#Produced by polyHédronisme http://levskaya.github.com/polyhedronisme
group aaaC
#vertices
v 0.00018988914928240883 0.391939202684421 0.9199883962028818
v 0.0004569365999818023 -0.3919762581759146 0.9199724431035675
v 0.3922777982535761 0.00013329695614740106 0.9198449171231565
v -0.39163735013029993 -0.00017120252906850913 0.9201160115337248
v -0.6558513810309259 0.33661089592572757 0.6562326545567841
v -0.33640892302731273 -0.6561022247653148 0.6560844037127325
v 0.6563185054217642 -0.3366457223784897 0.6557487553495441
v 0.3368924813330121 0.656081229612337 0.6558579469086182
v -0.6556046518668434 -0.656230129991997 0.33709060116395667
v -0.6556102885719104 -0.337159384376601 0.6561911496679568
v -0.9198384646119744 -0.39229350162195775 0.0003065220902020273
v -0.6558747682941087 -0.6561793050674519 -0.33666350122584243
v 0.6563417422900746 -0.6557319889727826 0.3366291819924156
v 0.3373664439435979 -0.655853441782166 0.6558434467085585
v 0.3922848980485026 -0.9198437528973638 -0.00017034896412350812
v 0.6558509520339803 0.656216508305867 0.33663503886270096
v 0.6560765237650782 0.3371366053075227 0.6557371304684939
v 0.9198372135474712 0.39229432930883396 -0.00032988296198991566
v 0.655632849166252 0.6561901224508132 -0.33711329654741257
v -0.6560949694881828 0.6557179513013245 0.3371394853622452
v -0.33688699132144995 0.6558214537381516 0.6561218631883678
v -0.3922834863569548 0.9198443309467286 0.00015960974014585176
v -0.6563080593950517 0.655762342091124 -0.3366352298049343
v 0.9201153037944224 0.00034785953017095966 0.3916451796156328
v 0.920117036223029 -0.3916415585496344 -0.00032782527091670775
v 0.9198379197835769 0.00031525462193425095 -0.39229477101200266
v 0.6558426161661223 -0.3366690265293606 -0.656212673041372
v 0.3368312079237052 -0.6558423598871949 -0.6561266490287178
v 0.6560629575754604 -0.6557466241305034 -0.3371451544927762
v -0.00020197656862373442 -0.3919529609508665 -0.9199824748637145
v 0.00014502565359418543 -0.9199709477989162 -0.39198236270903064
v 0.3364559508291432 0.6560911281182059 -0.6560717713262533
v 0.6556297925269599 0.337099501901814 -0.6562001531644637
v -0.0004345884119507257 0.9199845161778101 -0.39195188641909606
v -0.0004473446123563715 0.39197627614290076 -0.9199739423554467
v -0.00018649981251834177 0.9199688121607582 0.39198846170830465
v 0.39165282111553545 0.92010986706513 -0.00012239500721300235
v -0.656316235747785 0.3367045400097194 -0.6557208748415163
v -0.33731349463681 0.6558749076247118 -0.6558465537458784
v -0.9201170356236179 -0.00029228027737121287 -0.39164023628001915
v -0.39229004222119335 -0.00011687004474087409 -0.9198402543075584
v -0.9198364046781389 -0.000362033995810181 0.39229829834095037
v -0.9201157724448911 0.3916434458754957 0.000352764927088495
v -0.33693649244797713 -0.6560717520205671 -0.6558456390832184
v -0.656091414238847 -0.3370641589257815 -0.6557567297233156
v 0.0004804450428418772 -0.9199832165532081 0.3919538866836916
v -0.3916493074922239 -0.9201114672635274 0.00013478022151768696
v 0.39163875175885515 0.0001479664077251054 -0.9201162069442667
#normal vector defs 
vn -0.37360841822350266 0.37307912882731126 -0.8492518551442716
vn -0.5777257127310121 0.5771950394339964 -0.5771298703950709
vn -0.00046327974769533244 0.707115961820917 -0.7070974486659919
vn -0.37359675277007626 0.84927276098899 -0.3730432196968502
vn -0.7073564643306713 -0.00019841330465558742 -0.7068569819997341
vn -0.00035201599314775794 0.000010774102895286601 -0.9999999379843278
vn -0.8496503867300396 0.37291817007880246 -0.3728622517157935
vn 0.3727701165305581 0.3733243175716652 -0.8495124449538363
vn -0.3733659127600816 -0.3732995078897784 -0.8492616632099205
vn 0.37278101614278414 0.8495188000810756 -0.37329897175369064
vn -0.707353472174065 0.7068599524318193 0.0002702801885788865
vn 0.5769714141900394 0.5775334336829973 -0.5775457732386873
vn -0.0003387142822608321 0.9999999424335192 0.000020139347767272036
vn -0.8493930945353738 -0.37345880677132 -0.3729073485472812
vn -0.5773971634290278 -0.5775029699363472 -0.5771506175850556
vn 0.3730005724884977 -0.3730416790553261 -0.8495354487076077
vn 0.7068537509894739 0.00023641835001208297 -0.7073596813633602
vn -0.9999998733654406 -0.0003537584891737022 0.00035794417748207614
vn -0.00005418099553085726 -0.7070948290063408 -0.707118731088997
vn -0.3733612154508004 0.8492423362935387 0.3733481713411663
vn 0.849129602364972 0.37347675901745137 -0.37348899429745647
vn -0.8493904600575254 0.37285431631241445 0.3735177441172875
vn 0.7068596760739824 0.707353753461659 -0.00025652346278314355
vn -0.373052685865511 -0.8495081389793349 -0.37305175964790127
vn 0.5773027481507135 -0.5771655378949246 -0.5775824433309033
vn -0.5773581389625547 0.5771133589444389 0.577579215607316
vn 0.3730164870287972 0.8495180257917002 0.3730654423283768
vn -0.7068581300293717 -0.7073553075352044 0.00023002859943299582
vn 0.8493820009471317 -0.37289737973006304 -0.3734939901223314
vn -0.849116632769701 -0.3735234213387165 0.37347181642697563
vn 0.3733209599305183 -0.8492556076567019 -0.3733582378094834
vn 0.000004360646109280743 0.7070869123850336 0.7071266494163436
vn 0.9999998736909463 0.0003569448936291691 -0.00035384803867036143
vn -0.7068513049951388 -0.0002965038835406047 0.7073621029657413
vn -0.3730100650874811 0.3730172202055483 0.8495420206049602
vn 0.5773564825062308 0.5775712648209205 0.5771229731705322
vn 0.849381719061812 0.37351014191253995 0.3728818435001565
vn 0.00034149489678296296 -0.9999999415658544 -0.000015796306899104233
vn -0.5769309490819903 -0.5775918822893755 0.5775277460908436
vn 0.7073544539904816 -0.7068589671996451 -0.0002773252215128872
vn -0.372737871715009 -0.8495316539246311 0.37331280177546305
vn 0.37335275812702756 0.37331085579247725 0.84926245822268
vn -0.3727529918182846 -0.3733394489590629 0.8495133094551615
vn 0.8496588837249067 -0.3728700429122322 0.3728910194761679
vn 0.0003458289531906334 -0.00002023272458392378 0.9999999399964842
vn 0.7073492055525116 0.0002662324874986109 0.7068642235426075
vn 0.37363919784106364 -0.8492580485562896 0.3730342032562823
vn 0.0005139672626165191 -0.7071144422684613 0.7070989332285943
vn 0.577778880109422 -0.5771449271848785 0.5771267614001825
vn 0.3736096839087026 -0.37305845964956 0.8492603780782059
#face defs 
f 35//1 41//1 38//1 39//1 
f 23//2 39//2 38//2 
f 32//3 35//3 39//3 34//3 
f 22//4 34//4 39//4 23//4 
f 38//5 41//5 45//5 40//5 
f 41//6 35//6 48//6 30//6 
f 23//7 38//7 40//7 43//7 
f 48//8 35//8 32//8 33//8 
f 44//9 45//9 41//9 30//9 
f 19//10 32//10 34//10 37//10 
f 20//11 22//11 23//11 43//11 
f 19//12 33//12 32//12 
f 22//13 36//13 37//13 34//13 
f 11//14 40//14 45//14 12//14 
f 12//15 45//15 44//15 
f 27//16 28//16 30//16 48//16 
f 26//17 27//17 48//17 33//17 
f 11//18 42//18 43//18 40//18 
f 28//19 31//19 44//19 30//19 
f 36//20 22//20 20//20 21//20 
f 18//21 26//21 33//21 19//21 
f 5//22 20//22 43//22 42//22 
f 16//23 18//23 19//23 37//23 
f 12//24 44//24 31//24 47//24 
f 27//25 29//25 28//25 
f 5//26 21//26 20//26 
f 8//27 16//27 37//27 36//27 
f 9//28 11//28 12//28 47//28 
f 29//29 27//29 26//29 25//29 
f 42//30 11//30 9//30 10//30 
f 15//31 31//31 28//31 29//31 
f 1//32 8//32 36//32 21//32 
f 18//33 24//33 25//33 26//33 
f 4//34 5//34 42//34 10//34 
f 1//35 21//35 5//35 4//35 
f 8//36 17//36 16//36 
f 24//37 18//37 16//37 17//37 
f 15//38 46//38 47//38 31//38 
f 6//39 10//39 9//39 
f 13//40 15//40 29//40 25//40 
f 6//41 9//41 47//41 46//41 
f 3//42 17//42 8//42 1//42 
f 4//43 10//43 6//43 2//43 
f 7//44 13//44 25//44 24//44 
f 4//45 2//45 3//45 1//45 
f 3//46 7//46 24//46 17//46 
f 46//47 15//47 13//47 14//47 
f 2//48 6//48 46//48 14//48 
f 7//49 14//49 13//49 
f 2//50 14//50 7//50 3//50 
