#Produced by polyHédronisme http://levskaya.github.com/polyhedronisme
group aD
#vertices
v 0.3568248273450182 -0.000004522455415289324 0.9341707336048899
v 0.7557505177165887 0.3090347807198495 0.5773545436918459
v 0.46705397691194983 0.809028967601348 0.3568370948102634
v -0.17841945897618094 0.3089898377650595 0.9341791072273772
v -0.6455158385839896 0.49996256506071096 0.5773616402889714
v -0.9341710291059954 -0.000044170253327651396 0.3568254893486513
v -0.1783945572384501 -0.30904113438704833 0.9341670774752134
v -0.1102297549490766 -0.8090322794707595 0.5773350059830872
v 0.7557747450226237 -0.30899792993463027 0.5773421327120636
v 0.8660447671736143 -0.4999659396752882 -0.000012973749974223186
v -0.11029612689366529 0.808999480228795 0.5773683971080087
v -0.000039296065380630344 0.999999854326329 0.000018665088021507182
v -0.6454733234407246 -0.5000369812765353 0.5773442707251354
v -0.8660060200479871 -0.5000332946910044 -0.000006170345914538478
v 0.8660055816843286 0.5000336502102937 0.00000819609775201561
v 0.6454767613287681 0.5000354599833889 -0.5773418930103441
v 0.4671198788307602 -0.8090050251641998 0.35680483466299867
v 0.00003897550436898419 -0.9999997166625796 -0.000019748498349319535
v 0.11029347312867875 -0.8090006004223697 -0.5773674481056853
v -0.8660442487951103 0.4999664094993261 0.000011096596444118579
v -0.7557745806201771 0.3089991516702293 -0.5773420565176942
v 0.9341711030151892 0.000042760255782585674 -0.35682515871534065
v 0.6455133757945823 -0.4999635484395732 -0.5773631381739063
v 0.17841851373695009 -0.3089896619818531 -0.934179606550247
v -0.4671173993374653 0.8090061407765446 -0.3568053713451358
v 0.11023298676533683 0.8090305564037058 -0.5773366950339669
v 0.17839565058319273 0.30904121214923796 -0.9341667592254416
v -0.4670570068773815 -0.8090274027283988 -0.3568366002494278
v -0.7557509092689473 -0.30903357860272695 -0.5773542164731515
v -0.35682558779441687 0.000004962082667962694 -0.9341704048897855
#normal vector defs 
vn 0.3333522890837077 -0.5773209590155589 -0.745370217840777
vn -0.000005191070838195121 0.00002078732091872517 -0.9999999997704702
vn -0.30351377052187434 -0.5257264377148418 -0.7946641452785306
vn 0.6070590928093729 0.0000390728713280975 -0.7946566908488042
vn -0.1272870802716901 -0.9341706261884344 -0.3333515267140928
vn -0.6666687708178475 -0.000010869129605072495 -0.745354110405304
vn 0.8726899108679085 -0.35678272395390465 -0.33334427752309426
vn 0.49115596148556 -0.8506279226169763 -0.18761119039525007
vn 0.33331030110546905 0.5773753047441927 -0.7453468995364052
vn -0.745335865256623 -0.5773708453188094 -0.33334269894210106
vn -0.30355339799176945 0.5257346506016646 -0.794643575274095
vn 0.8726635654648001 0.35686257252507114 -0.3333277753819069
vn -0.49108953200811545 -0.85067361398513 0.18757791453560976
vn -0.9822475193619138 -0.00003420578593320084 -0.18758947075284177
vn 0.12736015282151225 -0.9341739214682483 0.3333143800106983
vn -0.7453787312483162 0.5773284644938377 -0.3333202530417829
vn 0.7453805888533456 -0.5773262393925237 0.3333199530024063
vn -0.12735708288795278 0.9341733836129248 -0.33331706045063175
vn 0.9822474784281662 0.000034579171714967456 0.187589685019699
vn 0.49109005036444814 0.8506734139889017 -0.18757746443938988
vn -0.8726614965149654 -0.3568641708444399 0.333331480763176
vn 0.3035545224505172 -0.5257343741262159 0.7946433286462264
vn 0.7453337856412168 0.5773732562199703 0.3333431729969599
vn -0.33330613634008577 -0.5773773009076013 0.745347215648316
vn -0.49115637021267905 0.850627837215322 0.18761050757857137
vn -0.8726915923721986 0.35678158659331854 0.33334109268260137
vn 0.6666683020731196 0.000011166070761020395 0.7453545296610621
vn 0.12728336609197385 0.9341708659862054 0.3333522729169244
vn -0.6070588266066571 -0.00003969920270458328 0.7946568941769283
vn 0.30351237192356656 0.5257268235064564 0.7946644242289583
vn 0.00000440773035564401 -0.00001946446528288716 0.9999999998008534
vn -0.3333548255707602 0.5773194998528678 0.745370213624292
#face defs 
f 19//1 24//1 23//1 
f 24//2 30//2 27//2 
f 19//3 28//3 29//3 30//3 24//3 
f 16//4 22//4 23//4 24//4 27//4 
f 28//5 19//5 18//5 
f 21//6 30//6 29//6 
f 10//7 23//7 22//7 
f 10//8 17//8 18//8 19//8 23//8 
f 16//9 27//9 26//9 
f 14//10 29//10 28//10 
f 21//11 25//11 26//11 27//11 30//11 
f 22//12 16//12 15//12 
f 8//13 13//13 14//13 28//13 18//13 
f 6//14 20//14 21//14 29//14 14//14 
f 8//15 18//15 17//15 
f 25//16 21//16 20//16 
f 17//17 10//17 9//17 
f 12//18 26//18 25//18 
f 2//19 9//19 10//19 22//19 15//19 
f 3//20 15//20 16//20 26//20 12//20 
f 6//21 14//21 13//21 
f 1//22 7//22 8//22 17//22 9//22 
f 2//23 15//23 3//23 
f 13//24 8//24 7//24 
f 5//25 11//25 12//25 25//25 20//25 
f 5//26 20//26 6//26 
f 1//27 9//27 2//27 
f 3//28 12//28 11//28 
f 7//29 4//29 5//29 6//29 13//29 
f 4//30 1//30 2//30 3//30 11//30 
f 4//31 7//31 1//31 
f 11//32 5//32 4//32 
