#Produced by polyHédronisme http://levskaya.github.com/polyhedronisme
group aC
#vertices
v -0.7071067811865475 1.387988382853408e-17 0.7071067811865475
v 9.253255885689386e-18 -0.7071067811865475 0.7071067811865475
v 9.253255885689386e-18 0.7071067811865475 0.7071067811865475
v 0.7071067811865475 1.387988382853408e-17 0.7071067811865475
v 0.7071067811865475 -0.7071067811865475 -4.857959339986928e-17
v 0.7071067811865475 1.387988382853408e-17 -0.7071067811865475
v 0.7071067811865475 0.7071067811865475 -4.857959339986928e-17
v 9.253255885689386e-18 0.7071067811865475 -0.7071067811865475
v -0.7071067811865475 0.7071067811865475 -4.857959339986928e-17
v -0.7071067811865475 1.387988382853408e-17 -0.7071067811865475
v -0.7071067811865475 -0.7071067811865475 -4.857959339986928e-17
v 9.253255885689386e-18 -0.7071067811865475 -0.7071067811865475
#normal vector defs 
vn -0.5773502691896257 -0.5773502691896257 -0.5773502691896257
vn 0 0 -1
vn 0.5773502691896257 -0.5773502691896257 -0.5773502691896257
vn 0 -1 0
vn -0.5773502691896257 0.5773502691896257 -0.5773502691896257
vn -1 0 0
vn -0.5773502691896257 -0.5773502691896257 0.5773502691896257
vn 0.5773502691896257 0.5773502691896257 -0.5773502691896257
vn 1 0 0
vn 0.5773502691896257 -0.5773502691896257 0.5773502691896257
vn 0 1 0
vn -0.5773502691896257 0.5773502691896257 0.5773502691896257
vn 0 0 1
vn 0.5773502691896257 0.5773502691896257 0.5773502691896257
#face defs 
f 10//1 12//1 11//1 
f 8//2 6//2 12//2 10//2 
f 5//3 12//3 6//3 
f 2//4 11//4 12//4 5//4 
f 8//5 10//5 9//5 
f 1//6 9//6 10//6 11//6 
f 1//7 11//7 2//7 
f 6//8 8//8 7//8 
f 4//9 5//9 6//9 7//9 
f 2//10 5//10 4//10 
f 3//11 7//11 8//11 9//11 
f 3//12 9//12 1//12 
f 2//13 4//13 3//13 1//13 
f 4//14 7//14 3//14 
