#Produced by polyHédronisme http://levskaya.github.com/polyhedronisme
group aaD
#vertices
v 0.20903293694522088 0.8102059065323297 0.5475852339485294
v 0.5477997678629267 0.22377004054567984 0.8061144377671097
v 0.597120928475104 0.5862296047908154 0.5475010341893806
v -0.08003177483924104 0.5861797303037862 0.806207101802304
v 0.12929040564148447 0.2237072857006587 0.9660327730338676
v -0.25833741338324595 -0.00009161649679969139 0.9660439121344181
v 0.5478071190301269 -0.2238101776485462 0.8060955910520008
v 0.886008939595731 0.3624891362041158 0.28906985715470324
v 0.28882816602087896 0.9485746639405603 0.12952440644883884
v -0.8062012967160517 -0.2240872383014432 0.5475464061665916
v -0.4676330597081642 0.3624462825833316 0.8061960144465515
v -0.806234226198601 0.22395189510835942 0.5475466533660259
v -0.46759233005657663 -0.3625052894455479 0.8061820439050196
v -0.7569640948612549 0.5859900912093047 0.2891384741001785
v -0.9659248923801486 -0.2240900467254586 0.12946513232077864
v 0.12926946651234583 -0.22378772069990965 0.966021648490828
v -0.07999278243938816 -0.5862924175070928 0.8061305130185791
v 0.2092059193370191 -0.8102356755883015 0.5474740681575101
v -0.12898798586735818 -0.9485675881458244 0.28907386082962905
v 0.5971890479023206 -0.5861848051889431 0.5474752494793599
v 0.8366312763663202 0.000026216809960363686 0.5477516149549457
v 0.8860503329655873 -0.3624168336182985 0.2890503738321969
v 0.9659600066722005 -0.22393308724682603 -0.12944307477617123
v 0.756948052086692 -0.5859908465343125 -0.28919226837087153
v 0.965928726594712 0.2240957364491721 -0.12940418171698345
v -0.41838309056921347 0.7244713369305613 0.5477876174360995
v -0.12925227054445754 0.948503265830018 0.2891679256462287
v -0.28911050492221085 0.9485050427758038 -0.12935324009237414
v 0.12896495022066284 0.9485751452257087 -0.2890776013505295
v -0.6770472865496804 0.7244630891217543 -0.12936670508867493
v -0.4182022181040384 -0.724587548174324 0.5477796977176419
v -0.7568425587191892 -0.586165037395521 0.28911452894444095
v -0.6769119340525029 -0.7245891439960133 -0.1293991034973962
v -0.8859892298927561 -0.3625199631335858 -0.2891224818404902
v -0.28888202253420525 -0.9485654301420366 -0.12943337647087033
v 0.6769190672969643 0.7245693105486741 0.12950230651017308
v 0.7568498133142064 0.5861598247525681 -0.2891140854152324
v 0.41822506561897926 0.7246003086916727 -0.5477438338012711
v 0.4675552210833 0.3625601042435797 -0.8061806336066051
v 0.41833606222810765 -0.7244707388788733 -0.5478276738320793
v 0.6770419530154307 -0.7244713381858608 0.12938453459704105
v 0.2890629368062999 -0.9485174144239288 0.12938992949675027
v 0.12916998932424678 -0.9485136006175962 -0.2891812351642205
v 0.08010246610532938 -0.5861640832464999 -0.8062117303759895
v -0.9659538927828188 0.22394941573091118 0.1294730369026215
v -0.886037021795928 0.3624171144093101 -0.2891006813532614
v -0.8366244798607473 -0.0000235767833213028 -0.547756188383844
v -0.5477647458286478 0.22373170640364842 -0.8061499199431768
v 0.258312388921975 0.00006351950047168253 -0.9660492925382806
v 0.8062089622412074 0.22411613843718262 -0.5475272521107614
v 0.8062426545091227 -0.22391916182320626 -0.5475590013836807
v 0.46761068856036103 -0.3623783616165069 -0.8062300211776076
v -0.12921582104426987 -0.2237105542886919 -0.9660389226543028
v -0.1292397269812806 0.22378541207984817 -0.9660183772056874
v -0.5971919482804855 0.5861829678229417 -0.5474757614605429
v -0.20923015078685156 0.810232056852351 -0.5474780915648546
v 0.07999103901179944 0.5862447831657356 -0.8061648725686654
v -0.20906969387792937 -0.8102241879949821 -0.5475487148214586
v -0.597100835724123 -0.5862425539775632 -0.5475210746311946
v -0.5477129872170423 -0.22374737847606707 -0.8061815870087422
#normal vector defs 
vn 0.607005076356118 0.0001009648566043518 -0.7946979470742335
vn 0.178367933759655 -0.3089384333793183 -0.9342065749005644
vn -0.000053268817034560266 0.00004590918503766044 -0.9999999975273899
vn 0.1783324572032609 0.30905222849902375 -0.9341757087227404
vn 0.3333544801709578 -0.5772988322570336 -0.7453863755292391
vn 0.6454904089669228 -0.4999182045890014 -0.577428714779776
vn 0.33324446978701994 0.5774439628661441 -0.7453231467664284
vn 0.6454169889476536 0.5000884480668797 -0.5773633643450231
vn 0.9341640733959716 0.0000958671422232128 -0.3568437680354483
vn 0.8727067865772191 -0.3567082907971969 -0.3333797533423503
vn 0.8726518117277171 0.3568903584161861 -0.3333287979726611
vn -0.35683355310181475 0.000024330967823305645 -0.9341679799633139
vn 0.11031210297229554 -0.8089648169669442 -0.5774142056162697
vn -0.303506896684298 -0.5257010635941641 -0.7946835567702603
vn 0.11016871404471097 0.8090382257071995 -0.5773387253513149
vn -0.3036052295510621 0.5257132669152359 -0.794637921054965
vn 0.8660616756175045 -0.4999371658549193 -0.00006498885628951966
vn 0.49119239832454076 -0.8505997638044074 -0.18764346416561442
vn 0.8659808785178262 0.5000771120634651 0.000005635467274898675
vn -0.6666987968691516 -0.000024370026384657346 -0.7453272527281741
vn 0.4910259738145378 0.8507225728493615 -0.18752225756972904
vn 0.9822510362623909 0.00005139170453564448 0.18757105085900722
vn -0.12727687232423004 -0.9341617922670287 -0.33338017883463683
vn -0.12748626404557803 0.9341679688866232 -0.3332828504227931
vn -0.7557445959133567 -0.30902180622810943 -0.5773695775006455
vn -0.7557883005011511 0.30897336270944875 -0.5773382942102463
vn -0.4670254390543039 -0.809045102020023 -0.3568378653864315
vn -0.4671887174158161 0.8089763021403983 -0.35678010720135706
vn 0.745402971084484 -0.5773007462547112 0.3333140547174355
vn 0.745355958054978 0.5773322437438045 0.3333646293860372
vn 0.00010408180308289194 -0.9999999934838611 -0.00004689622370158844
vn -0.0001467846554680332 0.9999999875008284 0.00005875889638587929
vn -0.7453085654317129 -0.5774198201220564 -0.3333189067909804
vn -0.7453900235366301 0.5773252590877008 -0.3333005521018244
vn 0.4671656798095982 -0.8089798026429221 0.35680233536771466
vn 0.4669929532778351 0.8090334284471851 0.35690684112782023
vn 0.7558232730396267 -0.30899376286912766 0.5772815902483321
vn 0.75579204926654 0.3090474723787203 0.5772937190735825
vn 0.1274294899753671 -0.9341640305203643 0.3333155999448056
vn 0.12717004083731107 0.9341494734310326 0.33345545729821374
vn -0.9822533640369379 -0.0000594343913165325 -0.18755885824367755
vn -0.49102352856339193 -0.8507082815585293 0.1875934809232185
vn 0.6666923761539953 -0.000020434574942839988 0.7453329961571322
vn -0.8659873680324355 -0.5000658740554687 0.0000036599538137253763
vn -0.4912320446913752 0.8505789383090252 0.18763407998927667
vn -0.8660680024711812 0.49992620889041706 0.00002756869939417237
vn 0.30359833909767014 -0.5257390337171738 0.7946235063998979
vn -0.11016458300683415 -0.8090614471595339 0.5773069715247265
vn 0.30356665142687694 0.5256917878321707 0.7946668687867192
vn -0.11035675154652776 0.808967161044302 0.5774023897941715
vn 0.3569398153364596 -0.000036697538541193876 0.9341273825773788
vn -0.872625854560504 -0.3569059866412152 0.3333800153761634
vn -0.8726903876957278 0.3567312991995759 0.3333980614743625
vn -0.9341498194503953 -0.00006780767662519432 0.35688108695041926
vn -0.6454240494997788 -0.5000780965317906 0.5773644375058515
vn -0.33326567639506455 -0.5773881430470076 0.7453569086053126
vn -0.6455299238321841 0.49994139896112527 0.5773644559911943
vn -0.33329333935453287 0.5773685777433081 0.7453596952992385
vn -0.1783323395068982 -0.30909160823019627 0.9341627023209969
vn 0.00004309056324380483 -0.000024861607717416305 0.9999999987625519
vn -0.178346915516466 0.3089380418285555 0.9342107171494557
vn -0.6070197571628936 -0.0000482116891384148 0.7946867383375255
#face defs 
f 39//1 50//1 51//1 52//1 49//1 
f 44//2 53//2 49//2 52//2 
f 49//3 53//3 54//3 
f 39//4 49//4 54//4 57//4 
f 40//5 44//5 52//5 
f 24//6 40//6 52//6 51//6 
f 38//7 39//7 57//7 
f 50//8 39//8 38//8 37//8 
f 23//9 51//9 50//9 25//9 
f 23//10 24//10 51//10 
f 25//11 50//11 37//11 
f 48//12 54//12 53//12 60//12 
f 58//13 44//13 40//13 43//13 
f 44//14 58//14 59//14 60//14 53//14 
f 29//15 38//15 57//15 56//15 
f 48//16 55//16 56//16 57//16 54//16 
f 41//17 24//17 23//17 22//17 
f 24//18 41//18 42//18 43//18 40//18 
f 8//19 25//19 37//19 36//19 
f 47//20 48//20 60//20 
f 9//21 36//21 37//21 38//21 29//21 
f 8//22 21//22 22//22 23//22 25//22 
f 35//23 58//23 43//23 
f 28//24 29//24 56//24 
f 34//25 47//25 60//25 59//25 
f 55//26 48//26 47//26 46//26 
f 33//27 59//27 58//27 35//27 
f 28//28 56//28 55//28 30//28 
f 20//29 41//29 22//29 
f 3//30 8//30 36//30 
f 19//31 35//31 43//31 42//31 
f 9//32 29//32 28//32 27//32 
f 33//33 34//33 59//33 
f 30//34 55//34 46//34 
f 18//35 42//35 41//35 20//35 
f 3//36 36//36 9//36 1//36 
f 7//37 20//37 22//37 21//37 
f 2//38 21//38 8//38 3//38 
f 18//39 19//39 42//39 
f 1//40 9//40 27//40 
f 15//41 45//41 46//41 47//41 34//41 
f 19//42 31//42 32//42 33//42 35//42 
f 2//43 7//43 21//43 
f 15//44 34//44 33//44 32//44 
f 14//45 26//45 27//45 28//45 30//45 
f 14//46 30//46 46//46 45//46 
f 7//47 16//47 17//47 18//47 20//47 
f 31//48 19//48 18//48 17//48 
f 4//49 5//49 2//49 3//49 1//49 
f 1//50 27//50 26//50 4//50 
f 5//51 16//51 7//51 2//51 
f 10//52 15//52 32//52 
f 12//53 14//53 45//53 
f 12//54 45//54 15//54 10//54 
f 10//55 32//55 31//55 13//55 
f 13//56 31//56 17//56 
f 26//57 14//57 12//57 11//57 
f 4//58 26//58 11//58 
f 6//59 13//59 17//59 16//59 
f 5//60 6//60 16//60 
f 4//61 11//61 6//61 5//61 
f 13//62 6//62 11//62 12//62 10//62 
