#Produced by polyHédronisme http://levskaya.github.com/polyhedronisme
group Expanded truncated icosahedron
#vertices
v 0.0702428326725209 0.21526830173716546 0.9734966992934968
v 0.004880161461406094 0.42571797276734863 0.904842744175456
v 0.24569698916877425 0.34808954720678353 0.9046774352251308
v 0.40781995448888314 0.12601571862878316 0.9042961273488369
v 0.6286579563652235 0.12624096652664943 0.7672913750576857
v 0.7004748830760016 0.349133221798174 0.6222987122987351
v 0.5459257827233045 0.5601125657562275 0.6229548095431204
v 0.07264446638544897 0.6364298629386025 0.7678363820245165
v -0.11635598356070911 0.7728839907376589 0.6235942232055328
v -0.3636109812281115 0.6920015045176114 0.6234878077282476
v 0.22875598817316134 -0.0005625565211752844 0.9728799168984684
v -0.1844167861649211 0.13176631645084963 0.9734110382070231
v -0.18405185573414876 -0.13669604625165638 0.9727424072218606
v 0.07245420479574073 -0.21896392841322193 0.9724115432731467
v -0.2555765628228532 0.3403914657687974 0.904774744653462
v -0.4039332154515055 0.13443550364136359 0.9047832701467992
v -0.582454541803952 0.2644203302171429 0.768515440624196
v -0.7704364730408172 0.12801449978557222 0.624326785966073
v -0.7700168434198267 -0.13233283946341456 0.6239948815444983
v -0.4038974408205219 -0.13846856490159815 0.9040566446790733
v -0.25306815943160704 -0.3431151927560492 0.904466138336025
v -0.430881580491023 -0.47259275098187753 0.7686360052086334
v -0.35888491277782264 -0.6937275116302847 0.6242354739430916
v -0.11097658668036389 -0.7734260887486933 0.6239109302717437
v 0.007607296428476291 -0.4269465275755373 0.9040817468150285
v 0.2494067578653819 -0.34824888694672607 0.9034474582242903
v 0.3165892148353774 -0.556547040801477 0.7679821231958998
v 0.4088557219881564 -0.12771042293252205 0.9034807270329293
v 0.7699714413316318 0.001262983750477538 0.6371420326520512
v 0.6280898797350545 -0.12678327712775764 0.7675033248839364
v 0.8391696988062542 0.2176485552941107 0.4970307044343922
v 0.8401494427632329 -0.21496315097958327 0.49678626365616485
v 0.953538766037182 -0.13225230246119554 0.26838660633139494
v 0.9526973906833244 0.13706637827834622 0.2689848148759313
v 0.70055811534521 -0.3466898621394025 0.6234927207226528
v 0.8080137682280238 -0.42503319722776306 0.40774610208491624
v 0.6553995819315098 -0.6348342660223434 0.40898252515219824
v 0.6100354363449609 -0.7724652381753034 0.1759620439417987
v 0.7206633712172263 -0.6916022722429959 -0.04575924792128124
v 0.9233359201129132 -0.34104760624137215 0.17547501639475765
v 0.9899211437255773 -0.13440333381015654 0.043057860392714205
v 0.9481100294414007 -0.2637057446097984 -0.17718515521870054
v 0.9022834281546258 0.13341772170794272 -0.4097556062329158
v 0.9891100496463285 0.13967274100908497 0.043508827909730804
v 0.9214080776293806 0.34554008167801226 0.17696197139090658
v 0.879480621342655 0.4738325901212165 -0.042455287881762484
v 0.8057064627227073 0.4287039390700693 0.4083597424721738
v 0.46208560686482025 0.7331802211018745 0.497567788278989
v 0.6527620437006307 0.6372853320254858 0.4091956524042031
v 0.2358235440980705 0.7326289155099692 0.6374899337178243
v 0.4194265019387845 0.8658948761086334 0.2704065580060716
v 0.16439996895739614 0.9480073680091418 0.2700942447106009
v 0.05162997803274917 0.8651858150536913 0.49741140527809624
v 0.6075122384317839 0.7740427508338156 0.1773570928716102
v 0.4330238728904156 0.9001604881139817 0.043831511781241506
v 0.5444441105924618 0.8200121124077718 -0.1761155566460792
v 0.4006750995610787 0.8192854839452479 -0.40989814144650394
v 0.1526650918706006 0.8992339471794557 -0.40968879767859523
v 0.17330871799570538 0.9837642219249045 0.043600846892942406
v -0.04270832942743151 0.9831614103365622 0.17696630491524437
v -0.17790029725360418 0.9830124797024323 -0.042464032192638466
v -0.15815506887511868 0.8986484122304621 0.40885549386049486
v 0.31326491722990774 0.5586727373869282 0.7678096644974147
v -0.5533669503623164 0.6663029875486515 0.49855184922210566
v -0.4035090401352591 0.818100709283593 0.4092766263425482
v -0.623164497064189 0.45045287452127875 0.6383505174421422
v -0.6932952555285342 0.6668440551914706 0.2710834060587889
v -0.8503331287989927 0.4497970274010567 0.27082698958862683
v -0.8062739298187215 0.31659841513787984 0.49834146782490674
v -0.5476756699375097 0.8174290383111078 0.17769507233450396
v -0.7217258844219844 0.6906031684863234 0.04405739434346527
v -0.6108556794438288 0.7718165921195348 -0.17617967712449173
v -0.6546654854706458 0.6347930510443129 -0.41024140407160664
v -0.8076909708489157 0.423439821092002 -0.41006487126392976
v -0.8817892076266813 0.46935985304791095 0.04386484868620491
v -0.9480865911994972 0.26348078644274997 0.1775306830280206
v -0.9899067875377169 0.1346089297146601 -0.04232133649051014
v -0.9032034456759569 0.12734071001455624 0.40962238712271526
v -0.43487717623152217 0.46905656329532086 0.7685453446058529
v -0.8040607630459077 -0.32101205354546875 0.4991657510453511
v -0.9023939198935377 -0.13126549132136825 0.41001420562914886
v -0.6200080398747196 -0.45391744244644217 0.6390184479470196
v -0.8479277525226195 -0.4540226938681139 0.2715720305317794
v -0.6896467614984096 -0.6705026949059382 0.2712308782204065
v -0.549182345571383 -0.6696623482552039 0.4986003599916597
v -0.9464690924852377 -0.2687574704313876 0.17813481050000896
v -0.8793871142116055 -0.4738489786281343 0.044179834242603196
v -0.9225411165893657 -0.34317122558480506 -0.17632930164414493
v -0.8055558843843021 -0.42708696775053584 -0.41049316213020565
v -0.651382796791115 -0.6379540565093996 -0.4106550134962511
v -0.7180240404722597 -0.6944900379184101 0.04400829973436772
v -0.5424231157662596 -0.8209878456237476 0.17769911107123856
v -0.43268980790945333 -0.9004483912852065 -0.04222323784636436
v -0.3989326578950672 -0.8201910222798745 0.4097729927766059
v -0.580183968906953 -0.2682642329074183 0.7688474553944461
v 0.057000400664449884 -0.8638653775035591 0.4991468096872665
v -0.15296376279335386 -0.8988739376632192 0.4101380533131231
v 0.24069409054647672 -0.7301637734660825 0.6384836282803893
v 0.16989578189837157 -0.9465579995190944 0.27196388071209665
v 0.422502761018153 -0.863922056569722 0.27153856072689025
v 0.46661168374889683 -0.7303363906095491 0.4975695151961908
v -0.03532161910495568 -0.9832875130256056 0.17814702527476092
v 0.17914250182363375 -0.9827195467915483 0.043054127245140315
v 0.041539804990530185 -0.9833813666031176 -0.1765350404942986
v 0.4372210995961578 -0.8982227097156251 0.04276414387965339
v 0.5490949826335964 -0.5562435751793707 0.623476877067939
v 0.07659488607487154 -0.6350500597902865 0.768441803969144
v 0.8052365172412038 0.32124654454720114 -0.4972128871724105
v 0.7694340086274729 0.13210165371358767 -0.6247401489536392
v 0.7704635980168772 -0.12862486402385825 -0.6243662669428162
v 0.5810802113158464 -0.26666892631819944 -0.7688516191185227
v 0.4012357249701441 -0.1362381599205655 -0.9057095558302868
v 0.8478150756943053 0.45532235118466624 -0.269553192078706
v 0.6213435014396633 0.4543267354460322 -0.6374475746563903
v 0.5507777766041488 0.6694135375219952 -0.4971567553218699
v 0.6904755948309538 0.6700396805684199 -0.27019463082515044
v 0.5811433260026133 0.26904415969611234 -0.7679922046350336
v 0.4309902133649286 0.4737387005907656 -0.7678772975393546
v 0.25328215648588737 0.34361469477213835 -0.9042114060879467
v 0.35893284920166707 0.6936440665952657 -0.6243439167758439
v 0.7176558127704107 0.6948429440428892 -0.04259220471851295
v 0.9467009097512401 0.26960446174297725 -0.17551332420684726
v 0.693632423805376 -0.6664275419692864 -0.27098555008340114
v 0.5472674290154526 -0.8178067826025394 -0.17688241321988993
v 0.8499430865329348 -0.45017143745483384 -0.27153857283011096
v 0.5529239296913726 -0.6671788378425917 -0.4979892559497488
v 0.6225805783249789 -0.4517234234825849 -0.6379786122127774
v 0.8058288860287545 -0.31773665487917435 -0.4983937371467216
v 0.40415347262167933 -0.8174226179076234 -0.4102945317073175
v 0.36077754759464065 -0.6909829100467073 -0.626179341381438
v 0.11491435100549546 -0.7721578980415327 -0.6248694791467896
v -0.07508576873976953 -0.6348888143372596 -0.7688025907741514
v 0.4319617254014094 -0.470806616859617 -0.7691648901155566
v 0.9030900233861489 -0.1271753267576057 -0.40987687973684145
v 0.8819047996577591 -0.4690728178148008 -0.04450474690928159
v -0.055605252543812454 0.865597155006255 -0.49631433011082965
v 0.11321895763308738 0.7732162108780914 -0.6236242720205678
v -0.16966823814744944 0.9473189226303285 -0.26937041696546715
v -0.23872836371467282 0.7319761846346663 -0.6372199988136038
v -0.4651037118376006 0.7314406059202132 -0.49731267847336846
v -0.42273581946812105 0.8642561763594319 -0.27030141869415764
v -0.0758713837436866 0.6369885170288644 -0.7670326716212382
v -0.3165429324783897 0.5566352546320441 -0.7679058456700363
v -0.24683220332819153 0.34778059248147936 -0.9044510484885577
v -0.547811481922702 0.5561360584877598 -0.6248623795929554
v -0.43806964878151955 0.8977472940346878 -0.04268664199331403
v 0.03688998617488434 0.9836350960477143 -0.1754538076554536
v -0.8401103688091502 0.21457264071883905 -0.4968847801520897
v -0.6997767976178045 0.3467109845633235 -0.6242908752026416
v -0.9533124655182191 0.13125116130604683 -0.269757464826955
v -0.7694147196362366 -0.0011136392314808306 -0.6378368472011255
v -0.8389267404869579 -0.21681507888209098 -0.4978648345160634
v -0.9524705803813821 -0.13538388465014736 -0.2706068190394706
v -0.6285475437329457 0.12473710355775279 -0.7675788777772653
v -0.626986588994451 -0.1285238153802557 -0.7681407214475051
v -0.4076198326900952 -0.12754565330833623 -0.9040832771046965
v -0.6979032758935639 -0.349261951774096 -0.6250999217083122
v -0.9891658032881194 -0.13955680159951728 -0.04248640229456485
v -0.9239995043940459 0.33934592852641077 -0.17553769812919273
v -0.4635383073457883 -0.7326046791185552 -0.4972109466220847
v -0.5460137516142675 -0.5568156807974313 -0.6255832937300111
v -0.41859842002485714 -0.8665398577935828 -0.2695560612091606
v -0.23803223956873268 -0.7318126157112672 -0.637579351285035
v -0.05305853280557343 -0.8645227294048229 -0.49855134962826875
v -0.16494453431157544 -0.9476480742643107 -0.2710974242324001
v -0.3145126360197455 -0.5570670375800293 -0.7684939365223308
v 0.15778580430211217 -0.8980533143023598 -0.4102235919144674
v -0.17192260940864132 -0.9840300725505036 -0.04261328712521368
v -0.6072024058792935 -0.7747576964357409 -0.1755026908909441
v 0.1830430734443706 -0.13199457607941428 -0.9735546775201324
v 0.254002454051525 -0.34099489917150694 -0.9048934019922372
v 0.18207067025501766 0.13505891958471786 -0.9733185714700805
v -0.07031776072070692 -0.21503094216434862 -0.9734421428665135
v -0.22731042250997113 -0.000486205078091548 -0.9731656336497366
v -0.07158359590440412 0.21616972739753126 -0.9730869211815933
v -0.00660171920559727 -0.4244216622636088 -0.9053496488944458
v -0.2471622970207701 -0.34766866259419565 -0.9042361360441022
v -0.4077821657304231 0.12464490991650529 -0.904408308864146
v -0.007361601573340947 0.4274151441735806 -0.9038611896432591
v 0.40155147137429487 0.13950879684547976 -0.9050521278858613
#normal vector defs 
vn -0.49834005296997125 0.8522815111244072 -0.1589761535620453
vn -0.5471406402739237 0.7629703547856836 -0.3442576905151852
vn -0.5895235957256109 0.8077503546926539 0.0011377946381208634
vn -0.30736587453206654 0.9382557924367179 -0.15875228228937216
vn -0.5652208370447089 0.6428331985435084 -0.5170018222606193
vn -0.27766220308065004 0.8508806721151133 -0.4459885455943155
vn -0.7956263005082437 0.5758263934613899 -0.18815619716824145
vn -0.6584118077857963 0.7355777260667925 0.159434313379041
vn -0.689165841406745 0.4985901777456642 -0.525792998901355
vn -0.39837922923155555 0.6551372889919115 -0.6419416813770549
vn -0.10078007048670964 0.982255355589939 -0.15817014195977747
vn -0.7997384400121745 0.5784427487347207 0.16069354063905095
vn -0.3060446963982995 0.9332976547810931 0.18786200091179764
vn -0.5583938730317536 0.754268830035863 0.34536186036811944
vn -0.009153494368862702 0.9393207601318112 -0.3429179539281015
vn -0.7867950738034432 0.3370493290483748 -0.5170602108330082
vn -0.2119231096110676 0.6427452770203829 -0.7361841512018356
vn -0.002340277832377956 0.9999969290169376 0.0008155098779013436
vn -0.8959912043849103 0.28170309289946444 -0.34328287040828814
vn -0.06485616853693427 0.7648065454996348 -0.6409872271454584
vn -0.9047941764947763 0.3948763421607573 0.15943704896566568
vn -0.9516771445277512 0.30709849372195874 0.0010619497210758555
vn 0.07711724935936323 0.8527800276192471 -0.5165454039529942
vn -0.965288956852468 0.2076844770584751 -0.15838051574490528
vn -0.43887266006426107 0.7362250285225957 0.5151344442230812
vn -0.4923595711811913 0.35506995413231696 -0.7946743863613245
vn -0.7249135722568073 0.5239818484683118 0.4471502378771654
vn 0.0953526032985696 0.9826812869181665 0.1588879145342458
vn -0.7468801896702816 0.1745216591111529 -0.6416480131498692
vn -0.16431571169439932 0.5009014694767899 -0.8497635346179285
vn -0.2646873482977028 0.8087252604743841 0.5252657048787499
vn 0.004463188566672705 0.9388380046964159 0.34433019165543827
vn -0.8911052164695871 0.2946575870969252 0.3451208477430891
vn 0.2607236486074928 0.8100111029089763 -0.5252667819508299
vn -0.0815218666211156 0.8530296227705537 0.5154557671988316
vn 0.3011361932680971 0.9348501487790474 -0.1880749649256699
vn -0.5017273154566607 0.5786873504060861 0.6429546262409472
vn -0.8947684872826496 -0.0014301525176315904 -0.44652806051769595
vn -0.9873008158490572 -0.0025917806818742326 -0.15884074318852562
vn 0.30233773096864197 0.9396354552891186 0.16024078006657252
vn -0.6762365080302093 -0.002533653665549946 -0.7366802330768838
vn -0.11067064078864837 0.3397179823266327 -0.9339934163319095
vn 0.18514327238388156 0.5789713545883268 -0.7940492045567111
vn -0.835928360515722 0.18608393795292275 0.516329879167795
vn -0.9820935130392604 -0.002773548107070657 0.1883736687467278
vn -0.2425004511374766 0.1746931733524705 -0.954293364947155
vn -0.7070453015576366 0.29498607795312015 0.6427053410071417
vn -0.5267837517276319 -0.0013977806585384 -0.8499981912480702
vn 0.4356196120433364 0.7370946744029114 -0.5166497794154945
vn -0.5484972733757989 0.39545172572755993 0.7367283581608685
vn 0.06204839625162089 0.7643782239215625 0.6417756051121914
vn 0.2738173347783764 0.8519848732790204 0.4462575969981893
vn -0.7456839577087754 -0.176671203283823 -0.642450559300888
vn -0.356890827901913 -0.001433685549330515 -0.9341450002570441
vn -0.9644539558755837 -0.21106146415999893 -0.15900196647392473
vn 0.09038993016056651 0.2852598904712195 -0.9541784190673752
vn -0.1892747386008821 0.5773163784286083 0.7942800970222303
vn 0.4956020388447864 0.8538945827143019 0.15887939043204924
vn 0.5556557759066189 0.7568714516075589 -0.34408176999527285
vn -0.8504706268465869 -0.00195363273470072 0.5260189123884342
vn -0.8943703038798575 -0.28517065058691526 -0.3446439606052695
vn 0.49905099053338786 0.5823454231956033 -0.6417335248611981
vn 0.5852287068543812 0.8108676154461524 0.0010348401903845005
vn -0.4260946695013028 0.30706310696771844 0.8509733138952754
vn -0.7855927842142826 -0.33959210364788683 -0.517224497225774
vn -0.950181022133722 -0.31169592814452307 0.0012936595531750376
vn 0.6557499029694763 0.7381003480821713 -0.1587448925682343
vn 0.20822734014527675 0.6441093438683149 0.7360465528467286
vn 0.5442447547328252 0.7648071724661485 0.34477186064141324
vn 0.28634057425068726 0.21185620725081228 -0.9344121269477871
vn -0.0006699062790789736 0.0008384135068552548 -0.9999994241440187
vn 0.42415210389132973 0.3116167409443765 -0.8502881861626469
vn -0.24178686833079638 -0.17564115009403702 -0.9543004226638643
vn -0.8352669571723317 -0.1905272998676165 0.5157794666921411
vn 0.5453747766216479 0.4004715025527823 -0.7363347938730077
vn -0.8894868727775153 -0.29850877165047424 0.34598499447837533
vn 0.3955102828491926 0.6568513424192983 0.6419641190304312
vn -0.49084923204776554 -0.35726845270962126 -0.7946233598986326
vn -0.6076386940584058 -0.0020919742799411674 0.7942108291421159
vn -0.9026789929965809 -0.3995737637944782 0.15972301928586616
vn 0.722505300560094 0.5281124545190088 -0.4461875458195536
vn 0.16195543321507186 0.5007421884130907 0.8503103541621653
vn -0.2895147327620055 0.20858537162301588 0.9341698786937163
vn 0.5635243708813498 0.6460191626642288 0.5148781650967421
vn -0.6867398099440774 -0.5015187249676343 -0.5261819095567719
vn -0.09288101673144439 0.28252234581527186 0.9547534974253663
vn 0.7966476634862537 0.5832495907678914 -0.15865817070349664
vn 0.29695872696376935 0.00193114278234576 -0.9548883626726278
vn -0.7928257692094478 -0.5796236939494163 -0.18831801052974384
vn -0.7047723386790861 -0.2986913525059807 0.643490036108532
vn -0.1121687471721271 -0.3380046646200714 -0.9344362037361932
vn 0.10990258796734703 0.3389471531149869 0.9343640877909024
vn 0.7059910168409937 0.2991485444832113 -0.6419398978669232
vn 0.7924424055239152 0.5803257089563472 0.18776875525971745
vn -0.29830443828667597 -0.002680732072167421 0.9544670113597578
vn 0.092117587898915 -0.2824470706136869 -0.9548497276019052
vn -0.7965858254144373 -0.582690926937535 0.16100405713358812
vn 0.6874531792189158 0.5019639294743392 0.5248241037609515
vn -0.5631531778515143 -0.6431350665320772 -0.5188793544481428
vn 0.2865876192072371 -0.2098010222162606 -0.9348000147593813
vn -0.1632491410315285 -0.49909325467412224 -0.8510321034433775
vn -0.7215116411476239 -0.5281994072622596 0.4476900019614687
vn 0.9025652719507568 0.400325136625376 -0.1584793830576405
vn 0.6060763642434754 0.0012124351393663724 -0.7954055385188381
vn 0.49197195234839614 0.357864956941683 0.7936600473096996
vn -0.397388404849352 -0.6553408458799083 -0.6423479052761781
vn 0.8900319622938664 0.30008160088423164 -0.3432115075373878
vn -0.5448734426619146 -0.398901062782641 0.737557369695831
vn 0.8345777648712884 0.1905307746096931 -0.5168926177738223
vn -0.4238165038437356 -0.31061118568524054 0.8508232850579971
vn 0.2418979880061497 0.17494367400731983 0.9544003742263502
vn -0.28989087342911324 -0.2117886768708986 0.9333321155150399
vn 0.00048739529401305365 -0.0024946961835360217 0.9999967694631714
vn -0.5438989926446534 -0.765749574562806 -0.3432221945868488
vn -0.21008386583935656 -0.6434255073260738 -0.7361171006274584
vn -0.6541745938996836 -0.7392820360224867 0.15974251754192026
vn 0.9500971138428728 0.3119527705620115 0.0009711879983884207
vn 0.7872351834516552 0.34074717922965114 0.513957319028414
vn 0.4242237780109782 -0.3085089930583189 -0.8513849818808377
vn -0.5850443531849703 -0.8110004827009524 0.0011497239677007174
vn -0.4980446564742456 -0.5819384810212574 0.6428834454736893
vn 0.8942236154343196 0.28624142421192694 0.344136561069442
vn 0.8505986529260012 0.002741183328482532 -0.5258083467903792
vn -0.5544535569576389 -0.7571648743025066 0.34537314067467934
vn 0.18606003374593738 -0.5766795673736367 -0.7955013138997421
vn -0.494713087098699 -0.8545492767263109 -0.15812809712323164
vn -0.0903260783896393 -0.28535621124915284 0.9541556645874285
vn 0.9638462246601551 0.21446314336302244 0.1581329040624295
vn 0.35862125610245044 -0.001535959923055721 0.933481888147068
vn 0.7466887771889749 0.1765359800321105 0.6413196689437615
vn -0.2750485153583917 -0.8514149913806075 -0.4465879831024393
vn -0.06406442185395787 -0.7630552339112588 -0.6431504177508962
vn 0.5467494217329893 -0.39825921842974893 -0.7365152169306263
vn -0.4342354629610467 -0.7381258520557238 0.5163427052201061
vn 0.5271322482825342 -0.0005254403274717286 0.849783099816102
vn 0.7063514246836327 -0.29621286473467723 -0.6429040391948694
vn 0.9821243528427699 0.0031796568497831864 -0.1882063902620953
vn 0.2432065981215479 -0.17604044674422575 0.9538659820646909
vn 0.8360694852858164 -0.18717513652591905 -0.5157065871601932
vn -0.18501524934044364 -0.5788729770998072 0.7941507626988088
vn 0.11373227437390267 -0.3419254478215277 0.9328193597357352
vn 0.677021008272599 -0.0009035203534781601 0.7359631363108644
vn -0.3015686108666556 -0.940108228274953 -0.15891158569998784
vn 0.9872079703558804 0.00269431478104196 0.15941506808857198
vn 0.8954646807869764 0.0017854226709519208 0.4451289899893789
vn 0.5006634742132102 -0.5795475675102447 -0.6430090999213903
vn 0.08065658661277111 -0.8526537138670427 -0.5162132885394523
vn -0.2995035896380438 -0.9352987950408175 0.18845095857840954
vn -0.25973176279944304 -0.8097807566194566 0.5261126662625738
vn 0.8911345042563124 -0.2944779915267113 -0.3451985049652596
vn -0.004537252561276465 -0.9385566459074507 -0.345095400957694
vn 0.26415295551565904 -0.808075905947913 -0.5265325690959695
vn 0.16496990534949008 -0.4996875836356319 0.8503512504191214
vn 0.7468613833230108 -0.17416670767434192 0.6417663375705518
vn -0.09701744854077753 -0.9824356561358618 -0.15939823158221084
vn 0.7243332813346051 -0.524731602886124 -0.4472114069247376
vn 0.49346085134853684 -0.3567919017470687 0.7932187132399786
vn 0.43688709989289537 -0.735151895118611 -0.5183448206075661
vn 0.9649259701914671 -0.2097999898239131 0.15780315687571653
vn -0.076359969723622 -0.8533270830940382 0.5157538601717179
vn 0.9516967006729062 -0.3070393440048371 -0.00048079245428871034
vn 0.90454392403882 -0.3951258337355812 -0.16023690273846233
vn 0.06717895806769585 -0.7627437376498241 0.6432021286259206
vn 0.896035377478196 -0.28223398429348495 0.34273106135471865
vn 0.003484158902304658 -0.9999934104570327 0.001019646632771707
vn 0.21143723665444478 -0.6420771656888953 0.7369065125623788
vn 0.7873008884796467 -0.33878917248851864 0.5151496943643699
vn 0.009627110943531011 -0.9380988618592371 0.34623379978460395
vn 0.5590561892203026 -0.754387968398623 -0.3440275721942525
vn 0.3054220613003809 -0.9333261846545956 -0.18873154879119158
vn 0.7997024035679543 -0.5784931702641434 -0.16069137402293057
vn 0.10292224719596439 -0.9818563602889563 0.15926424203899636
vn 0.40001418284204415 -0.6539074433383343 0.6421788762268149
vn 0.6899068097571273 -0.49872947383793953 0.5246880080353228
vn 0.657551513891545 -0.7359666935985132 -0.1611801243721114
vn 0.7950986099544152 -0.5772079501138775 0.1861429095450389
vn 0.2786882777633061 -0.8496095202214831 0.44776836309228435
vn 0.5669620010864693 -0.6419451589287334 0.5161981230612813
vn 0.3072088097147945 -0.9380105131689538 0.1604961819425479
vn 0.588883886508966 -0.8082171488954503 -0.000899133696697902
vn 0.5473801360845424 -0.7628948523985053 0.34404422797647766
vn 0.49732097518759116 -0.8527141956736043 0.15984476261417357
#face defs 
f 72//1 146//1 141//1 
f 72//2 141//2 140//2 73//2 
f 146//3 72//3 71//3 70//3 
f 61//4 138//4 141//4 146//4 
f 145//5 73//5 140//5 
f 136//6 139//6 140//6 141//6 138//6 
f 71//7 72//7 73//7 74//7 159//7 75//7 
f 70//8 71//8 67//8 
f 73//9 145//9 149//9 74//9 
f 139//10 143//10 145//10 140//10 
f 61//11 147//11 138//11 
f 67//12 71//12 75//12 68//12 
f 60//13 61//13 146//13 70//13 65//13 62//13 
f 70//14 67//14 64//14 65//14 
f 58//15 136//15 138//15 147//15 
f 74//16 149//16 148//16 
f 142//17 143//17 139//17 
f 147//18 61//18 60//18 59//18 
f 74//19 148//19 150//19 159//19 
f 142//20 139//20 136//20 137//20 
f 75//21 76//21 68//21 
f 159//22 77//22 76//22 75//22 
f 58//23 137//23 136//23 
f 77//24 159//24 150//24 
f 10//25 65//25 64//25 
f 143//26 144//26 178//26 154//26 149//26 145//26 
f 64//27 67//27 68//27 69//27 66//27 
f 59//28 60//28 52//28 
f 154//29 151//29 148//29 149//29 
f 179//30 144//30 143//30 142//30 
f 9//31 62//31 65//31 10//31 
f 52//32 60//32 62//32 53//32 
f 68//33 76//33 78//33 69//33 
f 57//34 120//34 137//34 58//34 
f 62//35 9//35 53//35 
f 55//36 56//36 57//36 58//36 147//36 59//36 
f 10//37 64//37 66//37 79//37 
f 148//38 151//38 152//38 153//38 150//38 
f 77//39 150//39 153//39 158//39 
f 51//40 55//40 59//40 52//40 
f 154//41 155//41 151//41 
f 144//42 179//42 175//42 
f 118//43 119//43 179//43 142//43 137//43 120//43 
f 78//44 18//44 69//44 
f 76//45 77//45 158//45 86//45 81//45 78//45 
f 144//46 175//46 174//46 178//46 
f 17//47 66//47 69//47 18//47 
f 178//48 156//48 155//48 154//48 
f 120//49 57//49 115//49 
f 17//50 79//50 66//50 
f 8//51 50//51 53//51 9//51 
f 48//52 51//52 52//52 53//52 50//52 
f 151//53 155//53 157//53 152//53 
f 156//54 178//54 174//54 
f 88//55 158//55 153//55 
f 119//56 172//56 175//56 179//56 
f 2//57 8//57 9//57 10//57 79//57 15//57 
f 54//58 55//58 51//58 
f 56//59 116//59 115//59 57//59 
f 18//60 78//60 81//60 19//60 
f 88//61 153//61 152//61 89//61 
f 114//62 118//62 120//62 115//62 
f 121//63 56//63 55//63 54//63 
f 79//64 17//64 16//64 15//64 
f 157//65 89//65 152//65 
f 158//66 88//66 87//66 86//66 
f 56//67 121//67 116//67 
f 8//68 63//68 50//68 
f 54//69 51//69 48//69 49//69 
f 119//70 180//70 172//70 
f 170//71 173//71 174//71 175//71 172//71 
f 180//72 119//72 118//72 117//72 
f 156//73 174//73 173//73 177//73 
f 19//74 81//74 80//74 
f 117//75 118//75 114//75 
f 86//76 83//76 80//76 81//76 
f 7//77 48//77 50//77 63//77 
f 155//78 156//78 177//78 166//78 161//78 157//78 
f 16//79 17//79 18//79 19//79 95//79 20//79 
f 86//80 87//80 83//80 
f 108//81 114//81 115//81 116//81 113//81 
f 3//82 63//82 8//82 2//82 
f 15//83 16//83 12//83 
f 7//84 49//84 48//84 
f 89//85 157//85 161//85 90//85 
f 2//86 15//86 12//86 1//86 
f 46//87 113//87 116//87 121//87 
f 112//88 170//88 172//88 180//88 
f 87//89 88//89 89//89 90//89 169//89 91//89 
f 19//90 80//90 82//90 95//90 
f 176//91 177//91 173//91 
f 3//92 2//92 1//92 
f 109//93 117//93 114//93 108//93 
f 45//94 46//94 121//94 54//94 49//94 47//94 
f 12//95 16//95 20//95 13//95 
f 176//96 173//96 170//96 171//96 
f 83//97 87//97 91//97 84//97 
f 6//98 47//98 49//98 7//98 
f 90//99 161//99 160//99 
f 112//100 171//100 170//100 
f 132//101 166//101 177//101 176//101 
f 80//102 83//102 84//102 85//102 82//102 
f 46//103 122//103 113//103 
f 109//104 110//104 111//104 112//104 180//104 117//104 
f 3//105 4//105 5//105 6//105 7//105 63//105 
f 166//106 163//106 160//106 161//106 
f 43//107 108//107 113//107 122//107 
f 22//108 95//108 82//108 
f 43//109 109//109 108//109 
f 95//110 22//110 21//110 20//110 
f 1//111 11//111 4//111 3//111 
f 20//112 21//112 13//112 
f 1//113 12//113 13//113 14//113 11//113 
f 90//114 160//114 162//114 169//114 
f 166//115 132//115 163//115 
f 91//116 92//116 84//116 
f 122//117 46//117 45//117 44//117 
f 47//118 6//118 31//118 
f 111//119 133//119 171//119 112//119 
f 169//120 93//120 92//120 91//120 
f 22//121 82//121 85//121 23//121 
f 34//122 45//122 47//122 31//122 
f 134//123 110//123 109//123 43//123 
f 84//124 92//124 94//124 85//124 
f 130//125 131//125 132//125 176//125 171//125 133//125 
f 93//126 169//126 162//126 
f 13//127 21//127 25//127 14//127 
f 44//128 45//128 34//128 
f 28//129 4//129 11//129 
f 5//130 29//130 31//130 6//130 
f 160//131 163//131 164//131 165//131 162//131 
f 131//132 164//132 163//132 132//132 
f 133//133 111//133 127//133 
f 94//134 23//134 85//134 
f 4//135 28//135 30//135 5//135 
f 110//136 128//136 127//136 111//136 
f 41//137 42//137 134//137 43//137 122//137 44//137 
f 14//138 26//138 28//138 11//138 
f 110//139 134//139 128//139 
f 21//140 22//140 23//140 24//140 107//140 25//140 
f 25//141 26//141 14//141 
f 5//142 30//142 29//142 
f 93//143 162//143 165//143 168//143 
f 33//144 41//144 44//144 34//144 
f 29//145 32//145 33//145 34//145 31//145 
f 126//146 130//146 133//146 127//146 
f 131//147 167//147 164//147 
f 92//148 93//148 168//148 102//148 97//148 94//148 
f 23//149 94//149 97//149 24//149 
f 42//150 125//150 128//150 134//150 
f 104//151 165//151 164//151 167//151 
f 167//152 131//152 130//152 129//152 
f 107//153 27//153 26//153 25//153 
f 35//154 32//154 29//154 30//154 
f 104//155 168//155 165//155 
f 123//156 126//156 127//156 128//156 125//156 
f 26//157 27//157 106//157 35//157 30//157 28//157 
f 129//158 130//158 126//158 
f 40//159 41//159 33//159 
f 24//160 97//160 96//160 
f 135//161 42//161 41//161 40//161 
f 42//162 135//162 125//162 
f 24//163 96//163 98//163 107//163 
f 32//164 36//164 40//164 33//164 
f 168//165 104//165 103//165 102//165 
f 27//166 107//166 98//166 
f 35//167 36//167 32//167 
f 102//168 99//168 96//168 97//168 
f 129//169 126//169 123//169 124//169 
f 103//170 104//170 167//170 129//170 124//170 105//170 
f 39//171 123//171 125//171 135//171 
f 102//172 103//172 99//172 
f 27//173 98//173 101//173 106//173 
f 106//174 37//174 36//174 35//174 
f 39//175 124//175 123//175 
f 36//176 37//176 38//176 39//176 135//176 40//176 
f 96//177 99//177 100//177 101//177 98//177 
f 37//178 106//178 101//178 
f 99//179 103//179 105//179 100//179 
f 38//180 105//180 124//180 39//180 
f 37//181 101//181 100//181 38//181 
f 105//182 38//182 100//182 
