#Produced by polyHédronisme http://levskaya.github.com/polyhedronisme
group J1
#vertices
v -0.673753829804992 0.7001124037665474 0.23642776468599686
v -0.603903198770111 -0.20293528619644177 -0.7707905560021272
v -0.07712545783121313 -0.4985480743406077 0.4416373378954579
v 0.6700107060573721 0.6302617727316663 0.3922445048711824
v 0.7398613370922531 -0.2727859172313228 -0.6149738158169417
#normal vector defs 
vn -0.02430869813592281 -0.973631417515506 -0.22682801859929722
vn -0.8763961245412814 -0.3871959070605579 0.286372419140836
vn 0.11503032810166318 0.7435698851027782 -0.6586894940600351
vn 0.7435705624035707 -0.4714040875329003 0.47421620067655995
vn -0.10851683765806378 0.11503103712105278 0.9874168098850395
#face defs 
f 2//1 5//1 3//1 
f 1//2 2//2 3//2 
f 5//3 2//3 1//3 4//3 
f 5//4 4//4 3//4 
f 4//5 1//5 3//5 
