#Produced by polyHédronisme http://levskaya.github.com/polyhedronisme
group J10
#vertices
v -0.6899626994531401 0.1372435967813347 0.3349209246034185
v -0.6058729567908951 0.22302409521421093 -0.6923821052361108
v -0.5753317513524921 -0.7100287816982472 -0.247118883001198
v 0.013288509462703218 0.7754161431788852 -0.07490081099245116
v 0.0564808368489072 -0.5441203950223622 0.5547967890305581
v 0.1298571677501414 0.4304966740897662 0.8932019534134266
v 0.41921630310378055 0.1924828897758079 -0.826694438324571
v 0.44975750854218355 -0.7405699871366502 -0.3814303341096005
v 0.7597329277448082 0.09405215137518841 0.14497505343468847
#normal vector defs 
vn -0.9933898582366015 -0.07427989729750585 -0.08751620655705315
vn -0.12985749122369833 -0.43049684565081936 -0.8932018236981953
vn -0.059726891213633324 0.7729812378616714 -0.6316111971615079
vn -0.002383353518432629 -0.9788846920424142 0.2043993133820016
vn -0.6696928964704302 0.7426033426392304 0.007190265508839233
vn -0.6291446028859514 -0.49615276349818027 0.598338954049122
vn 0.9312797306422043 -0.13162377882499537 -0.3396958111940922
vn 0.6912540899506566 0.7020563266752232 -0.17112772218954417
vn 0.7318022530970596 -0.5367006035457298 0.42002133816714216
vn -0.5142831124077241 0.7864282200585864 0.3421162594611776
vn -0.4801863010352476 -0.2552376573147153 0.8392108522812266
vn 0.6301321804804637 0.7523324232238299 0.19217013318696677
vn 0.6642289959032476 -0.2893335782091258 0.6892647688095388
#face defs 
f 1//1 2//1 3//1 
f 2//2 7//2 8//2 3//2 
f 4//3 7//3 2//3 
f 5//4 3//4 8//4 
f 4//5 2//5 1//5 
f 1//6 3//6 5//6 
f 9//7 8//7 7//7 
f 9//8 7//8 4//8 
f 5//9 8//9 9//9 
f 4//10 1//10 6//10 
f 1//11 5//11 6//11 
f 9//12 4//12 6//12 
f 5//13 9//13 6//13 
