#Produced by polyHédronisme http://levskaya.github.com/polyhedronisme
group J12
#vertices
v -0.510688131369596 0.20412411544945022 0.44444467672523735
v -0.15713484449433884 -0.408248279394975 -0.5555556581690586
v -0.15713484449433884 0.8164965102938754 -0.5555556581690586
v 0.15713474383922318 -0.8164965426245918 0.5555556391223739
v 0.6678228248812615 0.20412411544945022 0.1111109528737943
#normal vector defs 
vn 0.15713503243662966 0.8164966353961701 0.5555554211488472
vn 0.26189175178689245 0.2721655774096622 0.9259258117253552
vn 0.6285394408732725 0 -0.7777777132746309
vn -0.9428091073956661 0 -0.33333314718429546
vn 0.7332959861067839 -0.5443310582557158 -0.4074072848856437
vn -0.8380525354024305 -0.5443309719766022 0.037037020028146614
#face defs 
f 1//1 5//1 3//1 
f 4//2 5//2 1//2 
f 3//3 5//3 2//3 
f 1//4 3//4 2//4 
f 4//5 2//5 5//5 
f 2//6 4//6 1//6 
