#Produced by polyHédronisme http://levskaya.github.com/polyhedronisme
group J13
#vertices
v -0.9335378239594812 0.35573478587987006 -0.04426960161387297
v -0.5812077138179593 -0.5863420730155164 0.5642699011958309
v -0.11357484718878672 -0.35903413938540657 -0.4900625839062065
v 0.0042496409995485904 0.806198280249722 -0.5916296611015717
v 0.11357428721583926 0.35903418007335297 0.4900625694151255
v 0.5743316010936311 -0.7181136703220674 0.39300720507179476
v 0.9361642568881101 0.14252277892785795 -0.3213778797798836
#normal vector defs 
vn 0.20679725309482078 -0.10569207866074083 -0.9726582547949759
vn 0.49886097414916974 0.8175843851205629 0.28756477822913673
vn -0.4946866331142786 -0.025698089336687744 -0.8686913970003979
vn -0.20262330905866247 0.8975783580926437 0.3915314619667638
vn 0.42068334957368964 -0.677591971121733 -0.6032368026428967
vn 0.712747030755426 0.24568531327879387 0.656985842304402
vn -0.7143414974164368 -0.5481589071563935 -0.43501498545906536
vn -0.42227819794788446 0.3751180994888086 0.8252075708412955
vn -0.14861115377584153 -0.9510509928360215 -0.2709552250816198
vn 0.1434522739233371 -0.027774298321162034 0.9892674226208963
#face defs 
f 3//1 4//1 7//1 
f 4//2 5//2 7//2 
f 4//3 3//3 1//3 
f 1//4 5//4 4//4 
f 6//5 3//5 7//5 
f 5//6 6//6 7//6 
f 3//7 2//7 1//7 
f 1//8 2//8 5//8 
f 3//9 6//9 2//9 
f 5//10 2//10 6//10 
