#Produced by polyHédronisme http://levskaya.github.com/polyhedronisme
group J17
#vertices
v -0.6148977232399949 0.38414738531805026 0.08153553178277465
v -0.5342703196793683 -0.4473550999045549 -0.21620526687371927
v -0.3004589977709561 -0.24976705334995 0.6161634821409804
v -0.17554217673397005 0.2235855892304725 -0.6719454612318606
v -0.02738733503124762 0.9742992847613212 -0.22358630904745522
v 0.02738743431764087 -0.9742990135389133 0.22358618040805367
v 0.15511743713059747 0.5030169730885801 0.5052010236873308
v 0.3208831448386292 -0.4768357576327725 -0.44941930187525364
v 0.5546952578555273 -0.2792477110781676 0.38294944713944606
v 0.5944729836366225 0.34245517700100225 -0.24827917821881856
#normal vector defs 
vn 0.3886783330386996 0.41469141907305523 -0.8227758992419706
vn -0.7247227598961486 0.45307499646929084 -0.5191338641071889
vn 0.4744732465908578 0.05721069270855148 -0.8784088313019962
vn -0.8495911418218042 0.10285672150344677 -0.5173155580296087
vn 0.6930985844433711 0.6719484671166079 0.26095901935406596
vn -0.24943643237639207 -0.44932678236127743 -0.8578385097768686
vn -0.4203019803461541 0.7103322122455502 0.564601092421405
vn 0.9428042483111063 -0.26527713622630533 -0.20186181006346895
vn -0.9297052891071411 -0.20072382808322062 0.3088009395157745
vn 0.8364916213113547 0.36314355224817824 0.41037608109693197
vn -0.4875716749297829 0.40878962177922673 0.7714693169088211
vn -0.19944558903119153 -0.7444202619964405 -0.6372283190075216
vn 0.8031055133383546 -0.5896530786592227 -0.0856199817404704
vn -0.7714811884397309 -0.5353709085780883 0.3437946569274926
vn 0.26253546728247623 -0.016672512249377196 0.9647782935752992
vn 0.23106966819169553 -0.38060395090186977 0.8954035073639519
#face defs 
f 10//1 4//1 5//1 
f 4//2 1//2 5//2 
f 10//3 8//3 4//3 
f 4//4 2//4 1//4 
f 7//5 10//5 5//5 
f 4//6 8//6 2//6 
f 1//7 7//7 5//7 
f 10//8 9//8 8//8 
f 1//9 2//9 3//9 
f 7//10 9//10 10//10 
f 1//11 3//11 7//11 
f 2//12 8//12 6//12 
f 8//13 9//13 6//13 
f 3//14 2//14 6//14 
f 7//15 3//15 9//15 
f 9//16 3//16 6//16 
