#Produced by polyHédronisme http://levskaya.github.com/polyhedronisme
group J2
#vertices
v -0.7319494706560324 -0.0883223052212397 0.6756091174367728
v -0.23790551901476922 0.8973457131906896 0.37171297768832545
v -0.18004810512155395 -0.009327993841738096 -0.3229588474238654
v -0.0588065607154478 -0.9438679299820554 0.32504547048098614
v 0.7405742872607308 0.6509772528337866 -0.1666683573484682
v 0.8512634116841917 -0.486955746945639 -0.19551096695297282
#normal vector defs 
vn 0.4867820075183842 0.02521910080109806 0.8731593635248699
vn -0.2798446301435682 0.572570474174515 -0.7706166589708405
vn 0.1401938829964235 0.03871393311977374 -0.9893669221036161
vn -0.8477248828318836 0.2874589562586397 -0.4457912869206425
vn -0.16808785996450556 -0.5763394817875369 -0.7997370024360672
vn -0.7786553346738051 -0.4226062146725879 -0.4637885909594273
#face defs 
f 1//1 4//1 6//1 5//1 2//1 
f 2//2 5//2 3//2 
f 5//3 6//3 3//3 
f 1//4 2//4 3//4 
f 6//5 4//5 3//5 
f 4//6 1//6 3//6 
