#Produced by polyHédronisme http://levskaya.github.com/polyhedronisme
group J3
#vertices
v -0.7932720027783828 0.5797069685629214 0.18616608384428074
v -0.6486030203369724 0.3158808979335903 -0.6924826075119459
v -0.5868854522161187 -0.3054182246202938 -0.004924233066716033
v -0.08260573434385504 0.6165748596034325 0.7829506594661761
v 0.12378081621840924 -0.2685512272601782 0.5918594488747837
v 0.20673312421936157 0.0889218246643748 -0.9743476169266728
v 0.26845069234021535 -0.5323772978895093 -0.28678924248144294
v 0.7727304102124789 0.38961578633421706 0.5010856500514492
v 0.9173993926538893 0.12578882202449038 -0.377563934985173
#normal vector defs 
vn 0.167408903847925 0.9514937843693622 -0.2581353079663954
vn 0.5302961846039534 -0.604812084578674 -0.5941281839317913
vn -0.9736314345352705 -0.20575248505327456 -0.09852788731721272
vn -0.3839394192204845 -0.7019695039530579 -0.5998577647147155
vn 0.2759260279940154 -0.14092952523639882 0.9507910895628382
vn 0.6982093722749012 -0.6458305354818766 0.3088795750882224
vn -0.6042307251492676 -0.3002349376112442 0.738081440644027
vn -0.16740902265259125 -0.9514938868801031 0.2581348530599806
#face defs 
f 1//1 4//1 8//1 9//1 6//1 2//1 
f 7//2 6//2 9//2 
f 3//3 1//3 2//3 
f 7//4 3//4 2//4 6//4 
f 5//5 8//5 4//5 
f 5//6 7//6 9//6 8//6 
f 3//7 5//7 4//7 1//7 
f 3//8 7//8 5//8 
