#Produced by polyHédronisme http://levskaya.github.com/polyhedronisme
group J37
#vertices
v -0.8628559469692093 0.35740697803390625 -0.3574070469244357
v -0.8628559469692093 -0.35740697803390625 -0.3574070469244357
v -0.35740697803390625 0.8628559469692093 -0.3574070469244357
v -0.35740697803390625 0.35740697803390625 -0.8628560158597388
v -0.35740697803390625 -0.35740697803390625 -0.8628560158597388
v -0.35740697803390625 -0.8628559469692093 -0.3574070469244357
v 0.35740697803390625 0.8628559469692093 -0.3574070469244357
v 0.35740697803390625 0.35740697803390625 -0.8628560158597388
v 0.35740697803390625 -0.35740697803390625 -0.8628560158597388
v 0.35740697803390625 -0.8628559469692093 -0.3574070469244357
v 0.8628559469692093 0.35740697803390625 -0.3574070469244357
v 0.8628559469692093 -0.35740697803390625 -0.3574070469244357
v 0.8628559469692093 0.35740697803390625 0.35740690914337675
v 0.8628559469692093 -0.35740697803390625 0.35740690914337675
v 0.35740697803390625 0.8628559469692093 0.35740690914337675
v 0.5054489689353031 -1.2721304708650149e-17 0.8628558780786798
v 0.35740697803390625 -0.8628559469692093 0.35740690914337675
v -2.3129644924818454e-18 0.5054489689353031 0.8628558780786798
v -2.3129644924818454e-18 -0.5054489689353031 0.8628558780786798
v -0.35740697803390625 0.8628559469692093 0.35740690914337675
v -0.5054489689353031 -1.2721304708650149e-17 0.8628558780786798
v -0.35740697803390625 -0.8628559469692093 0.35740690914337675
v -0.8628559469692093 0.35740697803390625 0.35740690914337675
v -0.8628559469692093 -0.35740697803390625 0.35740690914337675
#normal vector defs 
vn -0.5773502691896257 0.5773502691896257 -0.5773502691896257
vn -0.7071067811865476 0 -0.7071067811865475
vn -0.7071067811865476 0.7071067811865476 0
vn -1 0 0
vn 0 0.7071067811865476 -0.7071067811865475
vn 0 0 -1
vn -0.5773502691896257 -0.5773502691896257 -0.5773502691896257
vn 0 1 0
vn -0.8164961357874153 0 0.5773508987125758
vn -0.4999995911126825 0.4999995911126825 0.7071073594400645
vn -0.7071067811865476 -0.7071067811865476 0
vn 0.5773502691896257 0.5773502691896257 -0.5773502691896257
vn 0 0.8164961357874153 0.5773508987125758
vn 0 -0.7071067811865476 -0.7071067811865475
vn 0.7071067811865476 0 -0.7071067811865475
vn 0.7071067811865476 0.7071067811865476 0
vn -0.4999995911126825 -0.4999995911126825 0.7071073594400644
vn 0.5773502691896257 -0.5773502691896257 -0.5773502691896257
vn 0 -1 0
vn 0.4999995911126825 0.4999995911126825 0.7071073594400644
vn 0 0 1
vn 0 -0.8164961357874153 0.5773508987125758
vn 1 0 0
vn 0.7071067811865476 -0.7071067811865476 0
vn 0.8164961357874153 0 0.5773508987125758
vn 0.4999995911126825 -0.4999995911126825 0.7071073594400644
#face defs 
f 3//1 4//1 1//1 
f 4//2 5//2 2//2 1//2 
f 23//3 20//3 3//3 1//3 
f 2//4 24//4 23//4 1//4 
f 7//5 8//5 4//5 3//5 
f 8//6 9//6 5//6 4//6 
f 5//7 6//7 2//7 
f 20//8 15//8 7//8 3//8 
f 23//9 24//9 21//9 
f 20//10 23//10 21//10 18//10 
f 6//11 22//11 24//11 2//11 
f 11//12 8//12 7//12 
f 20//13 18//13 15//13 
f 9//14 10//14 6//14 5//14 
f 11//15 12//15 9//15 8//15 
f 15//16 13//16 11//16 7//16 
f 21//17 24//17 22//17 19//17 
f 12//18 10//18 9//18 
f 10//19 17//19 22//19 6//19 
f 15//20 18//20 16//20 13//20 
f 18//21 21//21 19//21 16//21 
f 19//22 22//22 17//22 
f 13//23 14//23 12//23 11//23 
f 12//24 14//24 17//24 10//24 
f 16//25 14//25 13//25 
f 16//26 19//26 17//26 14//26 
