#Produced by polyHédronisme http://levskaya.github.com/polyhedronisme
group J47
#vertices
v -0.8518726831806083 -0.5059201807478314 -0.1354879164454269
v -0.8388749433523731 -0.3575724661641299 0.4104010053590129
v -0.799356341942003 0.03743873731692647 -0.28439711514859967
v -0.7863586021137678 0.1857855018428961 0.2614918066558402
v -0.6620777499910602 -0.37096923023970524 -0.6511783031880816
v -0.6280495322125424 0.017408670158189286 0.7779773917199795
v -0.4829766666302244 -0.7521276419339407 0.2158928357621937
v -0.47926479107223047 0.4041410705646721 -0.5729134973032638
v -0.45823431312194784 0.6441722064365969 0.3103532758003573
v -0.3900287185010257 -0.759170419899492 -0.3422128784149731
v -0.3653063162051163 -0.47699757321980235 0.6961299181286876
v -0.34198619912128747 -0.004266896991959595 -0.9396946853427457
v -0.29992524322072245 0.47579442469415834 0.8268398109222284
v -0.2684393799323997 0.7791222068869912 -0.205338061000029
v -0.12196517919573284 -0.49543629367783826 -0.7650094703191395
v -0.08196299839989596 -0.03886989969819333 0.9150640720091066
v -0.013860960071735871 0.45411885754400944 -0.8908332161982286
v 0.0008858360406731142 -0.9633131249541091 0.012304014365193747
v 0.020166307649050124 0.8424967579419039 0.5383234287675641
v 0.1912812057166949 -0.5181436235246807 0.7893438824227794
v 0.1969635010103631 0.8290999938663286 -0.5232568298372621
v 0.20996124083859835 0.97744770845003 0.022633042024909664
v 0.21882242930274204 -0.0616617846831625 -0.891003276532214
v 0.25882461009857893 0.3949046092964824 0.7890712158537638
v 0.41760015834609954 -0.8187029374871593 0.3667164007948667
v 0.43462139266834665 -0.5365823439827165 -0.6717955060250476
v 0.5021647970502305 0.3764658888384465 -0.6720681725940632
v 0.510548106475298 -0.8257457154527106 -0.19138931338230003
v 0.5268871993461401 0.6586387355181361 0.3662746239495974
v 0.6198351474753387 0.6515959575525847 -0.1918320402853011
v 0.7009425260935881 -0.380576214023282 0.5856515047330175
v 0.7426871127694763 0.18371817621858214 0.5854823944567639
v 0.8513357149737729 -0.3919721565157666 -0.3173831195953746
v 0.8930793515919295 0.17232223372609753 -0.3175522298716282
v 0.969006065398881 -0.11684113774389654 0.16285396277111935
#normal vector defs 
vn -0.4155256886983682 0.9056871948359381 0.0840779825040792
vn -0.7979604477935925 0.5861550664603115 -0.14029027699722155
vn -0.26848647560992983 0.9311690331492037 -0.24665612524025327
vn -0.5078588355720446 0.7609664458445584 0.40374431442449754
vn -0.42972228958486297 0.7436551906000496 -0.5121676593924565
vn -0.7651459072410874 0.5051564874546558 0.39921004974159585
vn 0.4256842056576155 0.8246555664561551 0.37247302421319445
vn -0.5343833065502307 0.4582352368022694 -0.7102499204035226
vn 0.526780445059563 0.8169956268368814 -0.23456450804045276
vn -0.7881162747704903 0.2429840863891193 -0.5655364455130455
vn 0.134118507086237 0.5377997921280449 0.8323362359311235
vn -0.9216961429812579 0.18284205374762794 0.3421184055189402
vn -0.9954186487504206 0.09558525221918522 -0.0022744841352217078
vn 0.3987950000786425 0.5177441129861816 -0.756903944619413
vn 0.6504323338915949 0.7531084180108191 0.09882049255885408
vn -0.938088920207562 -0.0042558286483074205 -0.3463683959404011
vn 0.44399711300500744 0.6063276152026486 0.6597222041783097
vn -0.23654602466328067 0.06599335499376884 0.969376529173605
vn 0.6362942205833666 0.5917558259615847 -0.49492899217234027
vn 0.09060938557019473 0.04120456056717886 -0.9950337297976675
vn 0.09584166853627342 0.20747350893512229 0.9735343433399414
vn -0.5447311605290631 -0.4105432353191105 0.7312470271272064
vn 0.40698746091811716 0.18389868138468293 -0.8947303960637524
vn -0.2800560781962534 -0.4305989606497691 -0.8579936644012429
vn -0.2610494491665331 -0.29109758336690456 0.9203887124730494
vn -0.6727175884436235 -0.7097948516816168 0.20890743099484846
vn -0.5716201138985593 -0.7174557532012393 -0.3981302394757782
vn 0.050093294314519886 -0.31467453346587293 -0.9478768906628929
vn 0.5156674086725446 0.5409802559226017 0.6644000950743906
vn 0.7053454217094969 0.5266068084255037 -0.47452408304885524
vn -0.4903598721504868 -0.6989550359949296 0.5205852989106444
vn -0.29806187219955804 -0.7135263954079866 -0.6340656144256522
vn -0.5044953552296931 -0.8603089976733571 -0.07316327681240985
vn 0.8755307815104342 0.46244193241608794 0.13997610428570556
vn -0.17977679152070292 -0.3442211598617628 0.9215161953725742
vn 0.3774031604224402 -0.027642069899953995 0.9256364137580154
vn 0.1271285506624165 -0.36747727955016357 -0.9213027627337738
vn 0.6568702444048359 -0.04881722421414117 -0.7524216641189684
vn -0.4199065110279934 -0.9056798013003547 -0.05850315814422014
vn -0.1491155035760323 -0.8417892126933969 0.5188019737686985
vn 0.023603874519821814 -0.8548768857520491 -0.518293707577596
vn 0.8602883057584307 -0.06348962136015325 0.5058390049757268
vn 0.9775156590269496 -0.07237100387984656 -0.19805447269509427
vn 0.43047937994206187 -0.6105746845882559 0.6647451075296829
vn 0.6201575972001483 -0.6249472792058063 -0.4741787140395471
vn 0.7979600735812002 -0.5861554524464941 0.1402907927753322
vn 0.28207140771196854 -0.9575738049323985 0.05906038485039688
#face defs 
f 14//1 9//1 19//1 22//1 
f 4//2 9//2 14//2 8//2 3//2 
f 14//3 22//3 21//3 
f 9//4 13//4 19//4 
f 8//5 14//5 21//5 17//5 
f 9//6 4//6 6//6 13//6 
f 19//7 29//7 22//7 
f 8//8 17//8 12//8 
f 22//9 30//9 21//9 
f 3//10 8//10 12//10 5//10 
f 13//11 24//11 19//11 
f 4//12 2//12 6//12 
f 4//13 3//13 1//13 2//13 
f 21//14 27//14 17//14 
f 22//15 29//15 30//15 
f 3//16 5//16 1//16 
f 19//17 24//17 29//17 
f 6//18 16//18 13//18 
f 21//19 30//19 27//19 
f 17//20 23//20 12//20 
f 13//21 16//21 24//21 
f 2//22 11//22 6//22 
f 17//23 27//23 23//23 
f 12//24 15//24 5//24 
f 6//25 11//25 16//25 
f 1//26 7//26 2//26 
f 5//27 10//27 1//27 
f 12//28 23//28 15//28 
f 32//29 29//29 24//29 
f 34//30 27//30 30//30 
f 2//31 7//31 11//31 
f 5//32 15//32 10//32 
f 1//33 10//33 7//33 
f 35//34 34//34 30//34 29//34 32//34 
f 20//35 16//35 11//35 
f 31//36 32//36 24//36 16//36 20//36 
f 26//37 15//37 23//37 
f 33//38 26//38 23//38 27//38 34//38 
f 18//39 7//39 10//39 
f 25//40 20//40 11//40 7//40 18//40 
f 28//41 18//41 10//41 15//41 26//41 
f 35//42 32//42 31//42 
f 33//43 34//43 35//43 
f 31//44 20//44 25//44 
f 28//45 26//45 33//45 
f 31//46 25//46 28//46 33//46 35//46 
f 25//47 18//47 28//47 
