#Produced by polyHédronisme http://levskaya.github.com/polyhedronisme
group J48
#vertices
v -0.9287614378338548 0.31690658967208013 0.19228089671084891
v -0.9278506773405488 0.22250953021599026 -0.29930298668302274
v -0.8929823388528042 -0.12009153483315162 0.4337730328915792
v -0.8915091565409229 -0.27283078664678584 -0.36162567410493623
v -0.8699602367017956 -0.48456990149291146 0.09143957177224335
v -0.6919918306652271 0.6266975986630705 -0.12162486287539626
v -0.657124399309448 0.2840965336139285 0.6114511566992057
v -0.6547404565042606 0.03695931521223896 -0.6755323408231468
v -0.5983231981773889 -0.5173808646830285 0.5106098317606002
v -0.5968500158655075 -0.6701192093646973 -0.2847897823678808
v -0.2740244276630494 0.7853468152315737 0.10353980505930367
v -0.27311366716974345 0.6909497557754838 -0.38804317120260257
v -0.25247460069195676 0.5736086075174135 0.5566059580684488
v -0.2500906578867694 0.3264713891157239 -0.7303766323219383
v -0.2166964088428717 0.1366086687482508 0.798098094249179
v -0.2137500442191089 -0.1688689277470522 -0.7927002268758173
v -0.18035488804324576 -0.3587307409825598 0.7357744996953001
v -0.17797185237002383 -0.6058670522522839 -0.551208090695087
v -0.15733187876027172 -0.7232082005103543 0.39344103857596413
v -0.15642202539893119 -0.8176061670984096 -0.09814284481790746
v 0.1538742560968115 0.8092243428259962 -0.1551089179838729
v 0.1647244615354897 0.7475339263839973 0.34152315479769574
v 0.16645708358948813 0.5679789465398667 -0.5935248897510939
v 0.19486392108737355 0.4064731714121796 0.7066737062438498
v 0.19766605172863072 0.11594601683936262 -0.80626547828707
v 0.23277931584704517 -0.08368742192791002 0.8008684752716456
v 0.23558144648830232 -0.3742136693687616 -0.7120707092592742
v 0.2639891911181532 -0.5357194444964486 0.5881278867356695
v 0.2657209060401862 -0.7152753314725446 -0.3469201578131202
v 0.2765711114788644 -0.7769648407825781 0.14971100783648306
v 0.590561234337896 0.6494266971892405 -0.3404078574331962
v 0.6081178663971032 0.5496095242396215 0.46315866578017895
v 0.6410594565902441 -0.08197838530501314 -0.6846299673045868
v 0.6694662940881295 -0.24348416043270024 0.6155695358223223
v 0.689825056788594 -0.6338275808231708 -0.09380312549522236
v 0.8712986207396389 0.4889759165373651 0.04170243323890279
v 0.8838814482323156 0.24773142738320103 -0.3967135385283183
v 0.901438080291523 0.14791516156554746 0.40685298468505676
v 0.921796842991987 -0.24242825882492317 -0.3025187695005224
v 0.9326479555626307 -0.3041186752669221 0.1941123961490808
#normal vector defs 
vn -0.0661493536471625 -0.48675964524698057 -0.8710277324925403
vn 0.13698016160431672 -0.7182472793215335 -0.6821710057412806
vn 0.09299175677170282 -0.18095901662899228 -0.9790844536980355
vn -0.02909415936683687 -0.9060930592454411 -0.4220768862162136
vn -0.12581192004914798 -0.9010298644542899 -0.4151102794861028
vn -0.4234455959362266 -0.4644843039197913 -0.7777841337378647
vn 0.18883822917155446 -0.17121635045480174 -0.9669669511106829
vn -0.11276700906952625 0.11589079977883208 -0.9868398675530575
vn -0.2083440054562358 0.1070344565274099 -0.9721812590799793
vn 0.48706593287463834 -0.6178413451375433 -0.6172834432184209
vn 0.16347591965158242 -0.9785800461829173 -0.12512680331051676
vn -0.7545208667626925 -0.6075861345637806 -0.24806723021293817
vn 0.25836418529868627 -0.9579732615003576 -0.12464019418034351
vn -0.8055293819318566 0.015429769649005817 -0.5923549080180391
vn 0.048309638556197756 0.4280599423998099 -0.9024582342331645
vn -0.015752673486286204 -0.9819408581528488 0.1885311761170582
vn 0.7934755636325943 -0.055097932255694676 -0.6061029184710164
vn -0.3781788219464065 -0.9092520021788558 0.17390104992486338
vn 0.4074225654652591 0.41176145021526794 -0.815143767237612
vn 0.8364426892754593 -0.5413408939544444 -0.08551996310944265
vn -0.499780961936095 0.5760001219248523 -0.6468715866605882
vn -0.15113849916597463 0.6716631621141932 -0.7252763271530512
vn 0.16235682208067395 -0.8625182690163998 0.4792728846250516
vn -0.997125531249434 -0.07472850878901378 0.012502995829167347
vn 0.5098573694636128 -0.7474239709476629 0.4259141585536596
vn -0.7558198033130679 -0.47300438581117504 0.45277287454438836
vn 0.9971254977639379 0.07472890790432926 -0.012503280867266897
vn -0.12791057983726892 -0.6832747460342955 0.7188702977571565
vn 0.020004198466187326 0.8761845622851914 -0.48156042700457957
vn -0.8383520010332901 0.5350586226129046 -0.10429857492343532
vn -0.03122301981159139 -0.685330974425381 0.7275620788132122
vn 0.11684652365839546 0.8715287240311477 -0.4762190389910801
vn 0.7489804399271964 0.5893539316293448 -0.30280396939191073
vn -0.2614532978540915 0.9478079947597421 -0.18248884379801594
vn 0.8185046591575063 -0.19740225859447622 0.5395205938972618
vn -0.16660850695228227 0.9682742777941193 -0.18624319685134208
vn -0.8076301761546557 0.23318615977472587 0.5416250672318589
vn 0.13404974730173405 -0.414393868172478 0.9001713099568283
vn 0.22933918209852303 -0.40147137786096615 0.88669288500179
vn -0.4265399810177257 -0.1436490090585428 0.8929885815562799
vn 0.3809930533548485 0.9185079265760536 0.10577089444789803
vn -0.5016942624953686 0.7742872364807186 0.3857228829124347
vn 0.7644490156935843 0.5014052382819465 0.405228934589492
vn 0.018884132255081024 0.9922465756477247 0.12284186039106101
vn -0.06959518887026532 -0.12955786245963624 0.9891265186825201
vn 0.44430122381137777 0.20209328351962033 0.8727856135821502
vn -0.1532669860639836 0.8924273271482106 0.42436151656572646
vn -0.2117424422083846 0.4593697752630502 0.8626381325575653
vn 0.08936882018439042 0.1946254129435694 0.9767979128844385
vn 0.14187812043253534 0.7292240274115347 0.6694048974934619
vn -0.11621201530054881 0.47309133785633506 0.8733151513314583
vn 0.045380359466331274 0.731914935874584 0.6798831882157479
#face defs 
f 16//1 27//1 18//1 
f 18//2 27//2 29//2 
f 16//3 25//3 27//3 
f 18//4 29//4 20//4 
f 10//5 18//5 20//5 
f 4//6 8//6 16//6 18//6 10//6 
f 33//7 27//7 25//7 
f 14//8 25//8 16//8 
f 8//9 14//9 16//9 
f 39//10 35//10 29//10 27//10 33//10 
f 20//11 29//11 30//11 
f 4//12 10//12 5//12 
f 35//13 30//13 29//13 
f 2//14 8//14 4//14 
f 14//15 23//15 25//15 
f 20//16 30//16 19//16 
f 39//17 33//17 37//17 
f 5//18 10//18 20//18 19//18 9//18 
f 37//19 33//19 25//19 23//19 31//19 
f 40//20 35//20 39//20 
f 2//21 6//21 12//21 14//21 8//21 
f 12//22 23//22 14//22 
f 19//23 30//23 28//23 
f 1//24 2//24 4//24 5//24 3//24 
f 40//25 34//25 28//25 30//25 35//25 
f 5//26 9//26 3//26 
f 36//27 38//27 40//27 39//27 37//27 
f 9//28 19//28 17//28 
f 12//29 21//29 23//29 
f 1//30 6//30 2//30 
f 19//31 28//31 17//31 
f 31//32 23//32 21//32 
f 37//33 31//33 36//33 
f 6//34 11//34 12//34 
f 38//35 34//35 40//35 
f 11//36 21//36 12//36 
f 3//37 7//37 1//37 
f 17//38 28//38 26//38 
f 34//39 26//39 28//39 
f 3//40 9//40 17//40 15//40 7//40 
f 36//41 31//41 21//41 22//41 32//41 
f 1//42 7//42 13//42 11//42 6//42 
f 36//43 32//43 38//43 
f 11//44 22//44 21//44 
f 17//45 26//45 15//45 
f 38//46 32//46 24//46 26//46 34//46 
f 13//47 22//47 11//47 
f 7//48 15//48 13//48 
f 15//49 26//49 24//49 
f 32//50 22//50 24//50 
f 15//51 24//51 13//51 
f 13//52 24//52 22//52 
