#Produced by polyHédronisme http://levskaya.github.com/polyhedronisme
group J51
#vertices
v -0.7135631615214283 -0.11963736422349452 -0.25455772290122336
v -0.5775727497647777 0.8102660168406379 0.09938361165438894
v -0.36180663424498544 0.01695269834194176 0.6760875556834381
v -0.0353734287657004 -0.756026154591213 0.1243312999193386
v -0.014558561131756766 -0.5229246793265249 -0.8522545558980743
v 0.026932334531255393 0.45283665662880773 -0.6184648450460298
v 0.37868886180769823 0.5894267191942439 0.31217958176191446
v 0.5921313304434458 -0.28734197848514254 0.7528709678396703
v 0.7051220672869832 -0.18355213373891083 -0.239575822225468
#normal vector defs 
vn 0.7373725339096099 0.5700594942094952 -0.36237262492817474
vn 0.26859966362766224 0.9332596204002888 -0.2384967539179843
vn 0.5936569108418414 0.16354140760549693 -0.7879249204131916
vn 0.9439296172835626 0.2995546663722 0.13879437837876132
vn -0.6194586626854982 0.35675315105533867 -0.6992840298733991
vn -0.5598097062005479 0.21550718255063592 -0.8001060849117091
vn -0.047465175989501555 0.5788631964882688 0.8140420485574867
vn 0.5429988119524716 -0.8193284707244285 -0.18399224787629986
vn 0.07646037152534782 0.46257604386392037 0.8832764093019864
vn 0.6072749672249306 -0.7943694943816059 -0.013936304311812751
vn -0.9355241744134173 0.0023559812861208935 0.3532548208309032
vn -0.610467726063375 -0.7673624748326417 -0.196173361223525
vn -0.26019504684511086 -0.6313490172904795 0.7305456563169864
vn -0.7373725390766297 -0.5700596797992002 0.3623723224570517
#face defs 
f 6//1 7//1 9//1 
f 2//2 7//2 6//2 
f 9//3 5//3 6//3 
f 9//4 7//4 8//4 
f 2//5 6//5 1//5 
f 5//6 1//6 6//6 
f 3//7 7//7 2//7 
f 9//8 4//8 5//8 
f 8//9 7//9 3//9 
f 9//10 8//10 4//10 
f 1//11 3//11 2//11 
f 5//12 4//12 1//12 
f 4//13 8//13 3//13 
f 4//14 3//14 1//14 
