#Produced by polyHédronisme http://levskaya.github.com/polyhedronisme
group J60
#vertices
v -0.7304639114827324 -0.26730451465955385 -0.35859121639934016
v -0.6836500805351055 -0.3887914796827916 0.2637744370294017
v -0.6041157675764628 0.3493398703758745 -0.4484637871834595
v -0.5283691043224039 0.15277007564279094 0.5585463760373438
v -0.47921467226793296 0.6089593813232247 0.11835871463179054
v -0.3724043976472703 -0.40640567873877825 0.8179470208842858
v -0.2834054824540362 -0.6052789939583888 -0.6589297704817123
v -0.23531824874039836 0.8658421616100996 -0.4096720318995521
v -0.20765972360535087 -0.8018487886914724 0.348080392739091
v -0.07897007418686372 0.3924727714530011 -0.804346397284697
v 0.03970509452989105 -0.9356447108492336 -0.2221833715226588
v 0.0435895156094486 0.07441510729130615 0.8250303237702218
v 0.11923940748853369 -0.197514265195941 -0.9344215957355199
v 0.12312473297346484 0.8125464573499723 0.1127920995573606
v 0.24179990169021964 -0.5155710249522625 0.6949551253193987
v 0.3704895511087068 0.678750535192211 -0.4574707602990157
v 0.4462353099573921 0.4821798360537539 0.5495394029217877
v 0.6420435953659153 -0.7320585392278595 -0.22774998659708873
v 0.6911989318257596 -0.2758683291420522 -0.667937648002642
v 0.7669455950798186 -0.47243812387513584 0.3390725152181613
v 0.8464799080384613 0.26569322618353036 -0.3731657089946998
v 0.8932937389860882 0.1442062611602926 0.24920084883941557
#normal vector defs 
vn 0.9697193312546882 -0.21545259450755277 -0.11499825264291731
vn 0.43540320825197 0.3308618556002381 -0.8372302423781995
vn 0.22646568253068566 -0.688858850258508 -0.6886122123927495
vn 0.6419474839281388 0.7601859756258835 0.10010349814095046
vn 0.30387998189580184 -0.8897572675014983 0.34057152190292517
vn 0.5606614791037968 0.005801712068510161 0.8280247858525837
vn 0.14627230172250377 0.6615424498601099 -0.7355039094266491
vn 0.286457238640486 0.9529310930372933 -0.0993206038705826
vn -0.5606621758357654 -0.005802374839875447 -0.8280243094458779
vn -0.007588279670442969 -0.7663860932298554 0.6423354062446834
vn 0.1666938329447076 -0.15855580423944798 0.9731768713857641
vn -0.5297727788721766 0.43304357756153294 -0.7292558280183715
vn -0.6419475808960441 -0.7601859549916195 -0.10010303299698897
vn -0.22646584119787436 0.6888587536581601 0.6886122568463804
vn -0.3029486798728127 0.904519724523093 0.30011025525960944
vn -0.8074065427730258 0.5832117543786017 -0.08921168220554569
vn -0.6495373703047234 -0.678443766818879 0.3432422757211516
vn -0.36754244049795515 0.30504576380272513 0.8785554259230428
vn -0.9697194309107329 0.2154521623429079 0.11499822196855729
vn -0.872000927694123 -0.01626278410473649 0.4892339971360859
#face defs 
f 18//1 19//1 21//1 22//1 20//1 
f 13//2 10//2 16//2 21//2 19//2 
f 19//3 18//3 11//3 7//3 13//3 
f 22//4 21//4 16//4 14//4 17//4 
f 20//5 15//5 9//5 11//5 18//5 
f 15//6 20//6 22//6 17//6 12//6 
f 8//7 16//7 10//7 
f 8//8 14//8 16//8 
f 10//9 13//9 7//9 1//9 3//9 
f 6//10 9//10 15//10 
f 12//11 6//11 15//11 
f 3//12 8//12 10//12 
f 1//13 7//13 11//13 9//13 2//13 
f 4//14 12//14 17//14 14//14 5//14 
f 8//15 5//15 14//15 
f 8//16 3//16 5//16 
f 6//17 2//17 9//17 
f 6//18 12//18 4//18 
f 5//19 3//19 1//19 2//19 4//19 
f 6//20 4//20 2//20 
