#Produced by polyHédronisme http://levskaya.github.com/polyhedronisme
group J75
#vertices
v -0.9803164317080626 -0.19727583662015075 -0.0056851197268764555
v -0.9463053549492146 0.1511387445479484 -0.2857480719432935
v -0.9357557534570612 0.07940570868090512 0.34354176166829437
v -0.9017879251587944 0.42754286639429123 0.06310780728977332
v -0.8122715542472008 -0.5324217986774381 0.2381443330377948
v -0.8048453279662594 -0.5556751799948486 -0.20838238830172912
v -0.767685956480886 -0.2553330702498755 0.5877461670943639
v -0.7594185590383431 0.5535748157275332 -0.341789704657324
v -0.7494596893346098 0.00744331039114868 -0.6619733307328634
v -0.6881752846827645 0.16867142224952694 0.7056540770032678
v -0.6619873862576594 -0.42957598145661335 -0.6141862925103829
v -0.6327527812361441 0.7319433616825686 0.2526941808696969
v -0.562628494032166 0.4097629131498531 -0.7179863709194836
v -0.5008460862680829 0.5721119104280866 0.6494771959631939
v -0.4902166642377455 0.8581237670423995 -0.15258677704956825
v -0.4833308247924613 -0.8361553296496623 0.25926328400085435
v -0.4762155563477173 -0.8591272922890811 -0.18729866817657595
v -0.41109154253420693 -0.38791190467953957 0.8249272610183706
v -0.3873719336143979 0.051788822275032724 -0.9204447303963603
v -0.33371253638478443 -0.7327163516274 -0.5930892329287234
v -0.3319622830916923 0.03625871242354346 0.9425835154530257
v -0.29975869727557836 -0.3852905747716514 -0.8727421649574845
v -0.2460457365980492 0.8679737298576212 0.43134742489053957
v -0.23536984793037274 -0.7468756397290055 0.6218974862351426
v -0.17208977836038078 0.6254573797610249 -0.7610328350406491
v -0.1446074490907612 0.4397078925205736 0.8864139031297426
v -0.12774242473403047 0.902455549834661 -0.4113707447859296
v -0.12018137079965041 -0.9915114205613353 0.04943325272717352
v -0.10332633691567444 0.9943030672826969 0.02563531298638957
v -0.003537360227158508 -0.26712767317873315 0.9636364409625218
v 0.003291833813062844 0.2673050439445555 -0.9636017030506281
v 0.11050173942000087 0.735398450614664 0.6685468547396749
v 0.11104244431124177 -0.7872549084038201 -0.606516655597117
v 0.12756004755346054 -0.90227970008129 0.41182839638722274
v 0.1450423655955179 -0.4394795591002384 -0.8864483249643716
v 0.1720389191261282 -0.6256625336366595 0.7608593630777065
v 0.24292541556197164 -0.9470951833027939 -0.20971296184058288
v 0.2717454769712551 0.5710932618880603 -0.7746011115223888
v 0.2995029075128877 0.3853332672640707 0.8727977925326383
v 0.31653121034750203 0.8480579760046443 -0.42493617259573074
v 0.3320738730580457 -0.03675794557414394 -0.9425206535673845
v 0.34135741425079574 0.939845020582458 0.012010158080395846
v 0.38722384615115846 -0.0516664596491259 0.9205342443300072
v 0.4735810532454184 0.7798088610720574 0.4093893180557139
v 0.49066672355955365 -0.85787216452518 0.15259418497113914
v 0.5276910651046636 -0.7124850544288873 -0.4624813183751821
v 0.5618050193573242 -0.36428470936725704 -0.742723878142581
v 0.5626408082929112 -0.40988968187408625 0.7179315072296955
v 0.6008297630814124 0.26740368112475366 -0.7533006952504109
v 0.6620732552139486 0.4296971511234819 0.6139894418387987
v 0.6725847516793386 0.7156752490039763 -0.1882024089470342
v 0.749544015895058 -0.00735746206323761 0.6619101444141648
v 0.759318052258923 -0.5537797274732198 0.34165734072585263
v 0.7756686291951871 -0.6231843123889258 -0.09979034325041468
v 0.804630949525137 0.5558287795115703 0.2088237029190993
v 0.8307988203351577 -0.059809521992208375 -0.5533337027439255
v 0.8483583127654578 0.3566845386358293 -0.3912076589102203
v 0.9463732544085148 -0.15094724345033037 0.28557307917484087
v 0.9629864600676086 -0.21978558925031635 -0.1559881132021509
v 0.9804233587066951 0.19678760349000549 0.005752498069920812
#normal vector defs 
vn -0.7337460026726613 0.6777944231392368 -0.047026838329194486
vn -0.8996891458446598 0.3906870457943662 -0.19473847359414517
vn -0.47617686444880364 0.7493446710832065 0.46015014689001965
vn -0.791666031690791 0.42826753479984536 0.4357198789399205
vn -0.38792657738818714 0.9099145630237105 0.14686203918391078
vn -0.9921433435653504 0.12134049474144934 0.030464243874870827
vn -0.24894718375948705 0.9505153737978237 -0.18586506899415983
vn -0.7953775043671525 0.29569142108738705 -0.5290947070629244
vn -0.825231749599642 -0.002307580378239076 0.564789548881273
vn -0.4569960016964642 0.724502208542177 -0.5159953529354244
vn -0.20578209825458985 0.689331544126795 0.6946047439441417
vn -0.43901734391179864 0.32071773045338386 0.8392877391678375
vn -0.9213431091977812 -0.23879794976913696 0.30676116820716115
vn 0.12464590305797632 0.9340476632650346 0.3346914423763925
vn 0.11248208782236424 0.9711249958157542 -0.21039016712045597
vn -0.896245482195303 -0.22143333404560817 -0.38433229661057006
vn -0.5795477448916222 -0.1156460279882735 0.8066910236277397
vn -0.5863907724356529 0.16180763007812257 -0.7937028114167292
vn -0.8962669812295867 -0.4434393714905327 0.008186706888915365
vn 0.09158846498590667 0.5382664475043226 0.8377832563214674
vn 0.07604004625014749 0.7768569571885277 -0.6250689397450954
vn -0.29483993267219377 0.3569517183026939 -0.8863717532179207
vn -0.2575142099242864 -0.21336928423591603 0.9424224001113954
vn -0.5530842954414816 -0.1991598074407785 -0.8089704155506255
vn 0.035508133405464284 0.5051124924826026 -0.8623227599919144
vn 0.044766374910320275 0.11733100257609524 0.9920833672186411
vn 0.45914557150730306 0.8637787498582047 -0.20753702189881437
vn 0.4072926602086558 0.6142496483359711 0.6758772510295729
vn -0.5862607019668199 -0.5968291924021225 0.5478077257815938
vn -0.6790852665824972 -0.7335659260525763 0.02691157455826142
vn 0.6040176797878062 0.7884053336285535 0.11653185148192126
vn -0.6001446866028409 -0.6792918663694424 -0.42236111969107354
vn 0.6696088122003149 0.6089711877464165 0.4251801160901133
vn -0.4469849901769275 -0.5339927016718651 -0.7176741691866264
vn -0.1260662611050186 -0.5344202534439345 0.8357644946514073
vn 0.5861988897640834 0.5968357516751155 -0.5478667239044144
vn -0.04487225941961707 -0.11728908642318901 -0.9920835401016349
vn 0.3185041340077829 0.2816494014249608 -0.9051125517287414
vn 0.5530417721931525 0.1993808622433331 0.8089450352036052
vn -0.372487024032351 -0.9270975159722242 0.04175658996678031
vn 0.29464492590403113 -0.35703932577842246 0.8864013128863797
vn 0.8714106530834468 0.4810395529188952 -0.0961479184396111
vn -0.18755146932824954 -0.9163102473611742 0.35383608766449853
vn -0.09932635093197988 -0.6180211068593536 -0.7798616463750969
vn 0.022320089755129256 -0.7849042070555124 0.6192149863657047
vn 0.5863531195422708 -0.1617887680280935 0.7937344730720718
vn 0.8962570926791662 0.22148147154019346 0.3842774799369321
vn -0.12467384490317113 -0.9340130571597386 -0.33477759998568996
vn 0.7866655891456736 0.19487156674909512 -0.5858176536490198
vn 0.3583514934800782 -0.28998220761327964 -0.8874088834287868
vn 0.6129392820380553 -0.05106851056476329 -0.788477928520114
vn 0.4569777970086492 -0.7245367260524949 0.5159630080172938
vn 0.7954882408956582 -0.2957510123310229 0.5288948830362289
vn 0.9547338440286001 0.07208761084437904 -0.28859428862872905
vn 0.1953000056524193 -0.974938817575683 0.10654674925258883
vn 0.35475521390872206 -0.6070517711744084 -0.7110814899282576
vn 0.9971021879982243 -0.05992982831702764 0.04685768204942982
vn 0.3040364260893036 -0.8443514176298382 -0.44117177511409994
vn 0.7916142208511465 -0.42829409191191214 -0.4357879027457998
vn 0.9077739672605757 -0.40791088025892136 0.09775038685543502
vn 0.5369260097141839 -0.827669938846874 -0.16331849993682923
vn 0.698870143966509 -0.7021461021803913 0.1362768251212017
#face defs 
f 8//1 4//1 12//1 15//1 
f 2//2 4//2 8//2 
f 12//3 14//3 23//3 
f 3//4 10//4 14//4 12//4 4//4 
f 12//5 23//5 29//5 15//5 
f 1//6 3//6 4//6 2//6 
f 15//7 29//7 27//7 
f 9//8 2//8 8//8 13//8 
f 7//9 10//9 3//9 
f 13//10 8//10 15//10 27//10 25//10 
f 14//11 26//11 32//11 23//11 
f 10//12 21//12 26//12 14//12 
f 5//13 7//13 3//13 1//13 
f 23//14 32//14 44//14 42//14 29//14 
f 27//15 29//15 42//15 40//15 
f 11//16 6//16 1//16 2//16 9//16 
f 18//17 21//17 10//17 7//17 
f 19//18 9//18 13//18 
f 6//19 5//19 1//19 
f 26//20 39//20 32//20 
f 25//21 27//21 40//21 38//21 
f 19//22 13//22 25//22 31//22 
f 30//23 21//23 18//23 
f 22//24 11//24 9//24 19//24 
f 31//25 25//25 38//25 
f 21//26 30//26 43//26 39//26 26//26 
f 40//27 42//27 51//27 
f 32//28 39//28 50//28 44//28 
f 24//29 18//29 7//29 5//29 16//29 
f 17//30 16//30 5//30 6//30 
f 42//31 44//31 55//31 51//31 
f 20//32 17//32 6//32 11//32 
f 44//33 50//33 55//33 
f 22//34 20//34 11//34 
f 36//35 30//35 18//35 24//35 
f 38//36 40//36 51//36 57//36 49//36 
f 19//37 31//37 41//37 35//37 22//37 
f 31//38 38//38 49//38 41//38 
f 50//39 39//39 43//39 52//39 
f 28//40 16//40 17//40 
f 48//41 43//41 30//41 36//41 
f 51//42 55//42 60//42 57//42 
f 34//43 24//43 16//43 28//43 
f 35//44 33//44 20//44 22//44 
f 34//45 36//45 24//45 
f 52//46 43//46 48//46 
f 55//47 50//47 52//47 58//47 60//47 
f 33//48 37//48 28//48 17//48 20//48 
f 49//49 57//49 56//49 
f 41//50 47//50 35//50 
f 49//51 56//51 47//51 41//51 
f 53//52 48//52 36//52 34//52 45//52 
f 58//53 52//53 48//53 53//53 
f 57//54 60//54 59//54 56//54 
f 37//55 45//55 34//55 28//55 
f 47//56 46//56 33//56 35//56 
f 60//57 58//57 59//57 
f 46//58 37//58 33//58 
f 56//59 59//59 54//59 46//59 47//59 
f 59//60 58//60 53//60 54//60 
f 54//61 45//61 37//61 46//61 
f 54//62 53//62 45//62 
