#Produced by polyHédronisme http://levskaya.github.com/polyhedronisme
group J81
#vertices
v -0.7257303852951037 -0.1832478023189434 0.1927522397439382
v -0.6905705326642411 -0.22318963939748812 -0.1855126624692841
v -0.6900526895055182 0.19530148916997098 0.15609658441525634
v -0.6548928368746556 0.15535965209142627 -0.22216831779796592
v -0.6199919058231544 -0.5193458397175346 0.04519410505066543
v -0.5758538413125321 -0.2838901957551328 0.5293884944583167
v -0.5265874316841314 0.47170833990882155 -0.050771570416008494
v -0.5181270629630946 0.32861554130552 0.47007847432032474
v -0.4838059464647208 -0.388458859042295 -0.46092202843518487
v -0.4701162107637939 -0.619988233153724 0.38183120868825504
v -0.44754843612200795 0.032458492062262534 0.7007860907634852
v -0.4260783191920722 0.22404602909514684 -0.520232048573177
v -0.4132273196236342 -0.6846159082855525 -0.2302144119920243
v -0.35466180514170764 0.6050223920443706 0.26321116841227093
v -0.3203406886433339 -0.11205200830344433 -0.6677893343432387
v -0.29777206507833687 0.5403947169125422 -0.3488344522680084
v -0.20478526115913612 0.5043799986081812 0.5998474231266495
v -0.18441195301783975 -0.615928682358621 -0.5282781427672353
v -0.17072221731691284 -0.847458905393261 0.3144750943562046
v -0.13556321360926124 -0.8874007424718056 -0.0637898078570177
v -0.13420663431804947 0.20822294936492378 0.83055503956981
v -0.09100747887881663 0.3751254972677353 -0.6242438182339093
v -0.020946695196452845 -0.3395226805429813 -0.7351454486752891
v -0.019590115905241057 0.756101011293748 0.1591993987515386
v 0.014731000593132672 0.039026610945933106 -0.7718011040039711
v 0.01556888780241054 0.7161591742152034 -0.21906550346168363
v 0.09325215299653317 -0.8187135165448741 -0.3618535386322287
v 0.13028557915411942 0.6554586178575587 0.4958356534659171
v 0.20796884434824203 -0.8794140729025187 0.35304846721858324
v 0.22233432292514183 0.5508899545703965 -0.49447486942758445
v 0.24312784805589363 -0.9193559099810633 -0.025216434994639065
v 0.24448442734710546 0.17626778185566597 0.8691284124321887
v 0.35774436646870206 -0.3714778480522391 -0.6965720758129105
v 0.35910094575991386 0.7241458437844902 0.19777277161391724
v 0.39342206225828763 0.007071443436675298 -0.7332277311415923
v 0.39425994946756543 0.6842040067059455 -0.18049297952251608
v 0.4079496851684924 0.4526746325945165 0.6622602576009238
v 0.42832299330978874 -0.6676348972954966 -0.46586530829296097
v 0.5213097972289895 -0.7036496155998575 0.48281741602490796
v 0.5217274674488119 0.3234201312540706 -0.5618309837596349
v 0.5438775718707756 -0.051202890383870964 0.8017722981001382
v 0.5781986883691492 -0.768276441808475 -0.12922820465537138
v 0.6367642028510758 0.5213610095982371 0.36419737574892386
v 0.6496160513427249 -0.3873009277824621 0.6542141634068654
v 0.6936539429144465 0.45673418338961963 -0.24784824493135546
v 0.7073428296921624 0.2252048092781907 0.5949041432688733
v 0.7501251638347839 -0.6349632385961369 0.18475368524969701
v 0.8435296379738071 0.35609178995343027 0.08878800978302309
v 0.8784305690253081 -0.31861455077874157 0.35615128155486553
v 0.9141082648148937 0.05993474071017281 0.31949562622618366
#normal vector defs 
vn -0.029193744269379526 0.6099430939899786 0.7919072845917421
vn -0.5412842871179742 0.4326551315685383 0.7209860315197494
vn 0.45008116548655047 0.3489987509873304 0.8219652159815228
vn -0.5715812349968431 0.6808182528228597 0.45801899351742215
vn -0.276807163728876 0.8798635203646945 0.3862874313769763
vn 0.5731483333222186 0.5842206343530048 0.5746192116577165
vn 0.33588796932458176 0.8281608098389818 0.44869694127534554
vn -0.8916952833073913 0.12613335625826394 0.434706680609324
vn 0.054406311130774175 0.9630688703453559 0.2637011647317126
vn -0.12739914850833495 -0.43204990035870594 0.8928058806702517
vn -0.7837748987489896 0.5954871962994213 0.1763289741774325
vn 0.7949155521383551 -0.016189795213943155 0.6065040440916325
vn 0.8202875975319178 0.4601295388066865 0.3397190969799322
vn -0.8771733008508596 -0.3955066189163107 0.2722893950703832
vn -0.44174069815838013 0.8869703620717854 -0.13471723125418195
vn 0.09339758603417427 0.9909937273806382 -0.09596000841610161
vn -0.892779317934556 0.43175657745243223 -0.12857428706732424
vn 0.6006414643426026 0.7990089723157179 -0.028539332006098362
vn 0.7268887294255881 -0.5308641516084527 0.4356788123963476
vn -0.9913649186656383 0.08365643620733122 -0.10098118002955615
vn -0.959432332932573 -0.27546037707339455 -0.06009308767357111
vn -0.7268887294255879 0.5308641516084527 -0.43567881239634776
vn -0.6006423125381293 -0.7990082892808359 0.028540603521301815
vn 0.1200916083279234 0.8884489260269626 -0.4429859043476997
vn -0.09339770155746961 -0.9909937073111059 0.09596010323864797
vn 0.44174132825823204 -0.8869702438111463 0.13471594375666437
vn -0.18476637080432604 0.7753011924355686 -0.6039614633631714
vn -0.8202885842864887 -0.4601287500829673 -0.33971778263192864
vn 0.4279315470736269 0.723597918704987 -0.5415539151968005
vn -0.46530090055082896 0.5600808638546354 -0.6854228606418326
vn -0.7949163666971321 0.016190791403461177 -0.6065029498945247
vn 0.8916952964887973 -0.12613386976950003 -0.4347065045714482
vn -0.05440639186861086 -0.9630690435337436 -0.2637005155680202
vn -0.335888189449621 -0.8281604661733701 -0.4486974107968105
vn -0.5731471532174524 -0.5842209737426872 -0.5746200436791921
vn -0.3923560171019688 0.26346810251016045 -0.8812725542098624
vn 0.12739893163127894 0.4320491502863869 -0.8928062745948977
vn 0.2768091322558786 -0.879863576841305 -0.38628589211589465
vn -0.4500799317157858 -0.34899858604134354 -0.8219659615871306
vn -0.267756930556048 -0.06782908449639803 -0.9610959584950841
vn 0.029193289295663193 -0.6099421433184753 -0.7919080335898635
vn 0.09204324844070216 -0.10456272789195487 -0.9902498050251138
#face defs 
f 28//1 17//1 21//1 32//1 37//1 
f 17//2 8//2 11//2 21//2 
f 37//3 32//3 41//3 46//3 
f 14//4 8//4 17//4 
f 24//5 14//5 17//5 28//5 
f 43//6 37//6 46//6 
f 34//7 28//7 37//7 43//7 
f 3//8 1//8 6//8 11//8 8//8 
f 34//9 24//9 28//9 
f 39//10 44//10 41//10 32//10 21//10 11//10 6//10 10//10 19//10 29//10 
f 7//11 3//11 8//11 14//11 
f 46//12 41//12 44//12 49//12 50//12 
f 43//13 46//13 50//13 48//13 
f 1//14 5//14 10//14 6//14 
f 26//15 16//15 7//15 14//15 24//15 
f 36//16 26//16 24//16 34//16 
f 7//17 4//17 3//17 
f 45//18 36//18 34//18 43//18 48//18 
f 44//19 39//19 47//19 49//19 
f 4//20 2//20 1//20 3//20 
f 2//21 5//21 1//21 
f 16//22 12//22 4//22 7//22 
f 20//23 19//23 10//23 5//23 13//23 
f 36//24 30//24 26//24 
f 29//25 19//25 20//25 31//25 
f 39//26 29//26 31//26 42//26 47//26 
f 30//27 22//27 16//27 26//27 
f 9//28 13//28 5//28 2//28 
f 45//29 40//29 30//29 36//29 
f 22//30 12//30 16//30 
f 15//31 9//31 2//31 4//31 12//31 
f 48//32 50//32 49//32 47//32 42//32 38//32 33//32 35//32 40//32 45//32 
f 31//33 20//33 27//33 
f 27//34 20//34 13//34 18//34 
f 18//35 13//35 9//35 
f 25//36 15//36 12//36 22//36 
f 40//37 35//37 25//37 22//37 30//37 
f 42//38 31//38 27//38 38//38 
f 23//39 18//39 9//39 15//39 
f 25//40 23//40 15//40 
f 38//41 27//41 18//41 23//41 33//41 
f 35//42 33//42 23//42 25//42 
