#Produced by polyHédronisme http://levskaya.github.com/polyhedronisme
group J84
#vertices
v -0.6715395624820226 0.48935593690959617 0.5559578288636511
v -0.6301755589372683 -0.08188211496067807 -0.35442535550098936
v -0.5559333500256578 -0.5791542600547582 0.5962533475682827
v 0.08610187780198467 0.7002610292430685 -0.17712245007907151
v 0.23571336351302735 -0.6769171254306106 -0.1251610355177144
v 0.2500067527777472 -0.009337065684647339 -0.9681990718699989
v 0.3081027742444248 0.058043057281558945 0.6563954038351957
v 0.9776755319860017 0.09953559378171277 -0.183758947572142
#normal vector defs 
vn 0.6143960808007419 -0.6235845526207973 -0.4833836588357204
vn -0.3480249414541309 -0.7320764661939297 -0.5856130870898096
vn 0.6489974452280701 -0.5833081090511916 0.48841986651093683
vn 0.469884656398579 0.7032784643644134 -0.5334864677219301
vn -0.4509548541297323 -0.8048661967643786 -0.3857850759722004
vn -0.492206057535382 0.5948267179226358 -0.6355425812413055
vn 0.4531453871745826 -0.6699661209517199 0.5880515749994237
vn 0.5043796398797045 0.7437343592254233 0.4387030678971467
vn -0.994049200854887 -0.10672775930084462 0.021803019845456635
vn -0.6099111956569112 0.6584960512895918 -0.4408982692735053
vn -0.08981895916196976 0.027826923385168963 0.9955692928721619
vn 0.29465505868126146 0.7933122190989622 0.532760846367132
#face defs 
f 8//1 5//1 6//1 
f 6//2 5//2 2//2 
f 5//3 8//3 7//3 
f 4//4 8//4 6//4 
f 5//5 3//5 2//5 
f 4//6 6//6 2//6 
f 7//7 3//7 5//7 
f 7//8 8//8 4//8 
f 2//9 3//9 1//9 
f 2//10 1//10 4//10 
f 3//11 7//11 1//11 
f 1//12 7//12 4//12 
