#Produced by polyHédronisme http://levskaya.github.com/polyhedronisme
group J91
#vertices
v -0.7628521695651352 -0.05850438303072417 0.051073857538559086
v -0.7281859894536015 0.5861787388858093 0.35515826239815473
v -0.3954183128240019 0.03128342054845877 0.656231987277328
v -0.3925949822227959 -0.653094044294738 -0.08551365734499639
v -0.2972603280275084 -0.07264067090619185 -0.48958454421745634
v -0.24116677852270105 0.9704805847129079 0.0024350134635371373
v -0.025159489242542757 -0.5633054225959953 0.5196428361546528
v 0.025159772408508512 0.5633065703497568 -0.5196455293263275
v 0.2411646073299871 -0.9704794369591461 -0.0024327979178525657
v 0.29726142931303395 0.07264181865995349 0.48958348728490136
v 0.39259444726920173 0.6530968282876195 0.08551423665156116
v 0.3954194141095275 -0.0312855452729367 -0.6562338623294428
v 0.7281854545000074 -0.5861816817298472 -0.35515768309159
v 0.7628549070897807 0.05850471266492593 -0.05107409635155421
#normal vector defs 
vn 0.8226464125334404 0.20575663337137462 -0.5300161202921457
vn 0.7107389660472686 -0.33099967841880584 0.6207167913216999
vn 0.6824395971813524 0.538503434299305 -0.4942572684815141
vn 0.7244868983824623 0.3096869414797557 0.6158025108336879
vn -0.16521121329501862 -0.545056561107019 -0.8219602181345385
vn -0.2374686607381412 0.07461285636511107 -0.9685254549222095
vn -0.4523884228838854 -0.8003491325137737 0.39342849531405366
vn 0.4523852953615704 0.8003519136210515 -0.39342643391585397
vn 0.23746800938238727 -0.07461532500137424 0.9685254244442455
vn 0.16520889696627422 0.545053974898223 0.8219623986599596
vn -0.7244883510788611 -0.30968630319641743 -0.615801122736529
vn -0.6824396117428566 -0.5385036344768878 0.4942570302782164
vn -0.7107409471966343 0.33099849356173056 -0.62071515467072
vn -0.822645831833307 -0.20576199992848193 0.5300149382354402
#face defs 
f 12//1 14//1 13//1 
f 13//2 14//2 10//2 7//2 9//2 
f 14//3 12//3 8//3 11//3 
f 14//4 11//4 10//4 
f 12//5 13//5 9//5 4//5 5//5 
f 8//6 12//6 5//6 
f 4//7 9//7 7//7 
f 11//8 8//8 6//8 
f 10//9 3//9 7//9 
f 11//10 6//10 2//10 3//10 10//10 
f 5//11 4//11 1//11 
f 7//12 3//12 1//12 4//12 
f 6//13 8//13 5//13 1//13 2//13 
f 3//14 2//14 1//14 
