#Produced by polyHédronisme http://levskaya.github.com/polyhedronisme
group J92
#vertices
v -0.621913371599634 0.4773554264813144 -0.026621706676961066
v -0.528440740920689 0.11119235198555445 -0.5689821265044768
v -0.4903552182666575 0.2243141257859244 0.5697266089566425
v -0.34944073368241807 0.7475177963739883 -0.5648955115322313
v -0.30340910941499505 -0.5080128706993681 -0.514995078192162
v -0.26532358676096346 -0.39489024940522544 0.6237136572689573
v -0.1718501085882458 -0.7610541713947581 0.0813523899476687
v -0.10725582821607513 0.887748353483611 0.033978335544194875
v -0.005016721951707733 0.08504716909592909 0.9963642965951899
v 0.02430317261067408 0.634707052788221 0.6303266511777984
v 0.04398791047055505 0.29528325431679076 -0.8435802788037732
v 0.23969964741386732 -0.873581004566651 -0.42355558507406676
v 0.2690195419762491 -0.3239219683681318 -0.7895940779852311
v 0.38841192220126536 -0.36718822045504124 0.7176795293236482
v 0.43585292861278724 0.5221802196163282 0.1254186761560629
v 0.481885400373983 -0.7333512949508011 0.17531826200235953
v 0.5293272542792775 0.15601629762679545 -0.41694343865899847
v 0.660885407612254 -0.09702585056236726 0.17940572446837777
#normal vector defs 
vn 0.9155984256353015 -0.255565993994773 -0.31042800403253046
vn 0.9396837906869422 0.33585178927663956 -0.06479158247718973
vn 0.6782227999349859 0.18446175230171133 -0.7113281209021123
vn 0.9080296928479195 -0.2575533054237686 0.33037610653890215
vn -0.22078683788870904 -0.5324151691800333 -0.8171825131768921
vn 0.009020864377297372 -0.9744277860367936 0.22451974034663266
vn -0.5149434606110852 -0.8240775575458189 -0.2360707765124632
vn 0.5576564959791537 0.7293590405067533 -0.39630117653537233
vn 0.7669171597375106 0.3268639965032699 0.5522662382312176
vn -0.3663750852534041 -0.21213617155367023 -0.9059622186515907
vn -0.04435596649601128 -0.8315121250702936 0.5537329086276965
vn 0.5149432546776423 0.8240777463681902 0.2360705665743225
vn -0.4637273193673672 0.1360701343813656 -0.8754666708686246
vn -0.0918928219346677 -0.5791236826482365 0.8100441157571777
vn -0.939683925743074 -0.3358511018406493 0.06479318708403495
vn -0.6270081932965773 0.77568469499028 0.07193037951240155
vn -0.484979203218032 0.5025056469864662 0.7157396504265472
vn -0.908030159030871 0.2575529898998643 -0.33037507122059256
vn -0.6782241155880986 -0.18446161560457563 0.711326901925754
vn -0.5951724626383155 0.684129763291927 0.42158772123387916
#face defs 
f 12//1 13//1 17//1 18//1 16//1 
f 17//2 15//2 18//2 
f 13//3 11//3 17//3 
f 14//4 16//4 18//4 
f 13//5 12//5 5//5 
f 7//6 12//6 16//6 
f 12//7 7//7 5//7 
f 17//8 11//8 4//8 8//8 15//8 
f 9//9 14//9 18//9 15//9 10//9 
f 13//10 5//10 2//10 11//10 
f 7//11 16//11 14//11 6//11 
f 8//12 10//12 15//12 
f 2//13 4//13 11//13 
f 6//14 14//14 9//14 
f 2//15 5//15 7//15 6//15 3//15 1//15 
f 4//16 1//16 8//16 
f 3//17 9//17 10//17 
f 4//18 2//18 1//18 
f 3//19 6//19 9//19 
f 3//20 10//20 8//20 1//20 
