#Produced by polyHédronisme http://levskaya.github.com/polyhedronisme
group dakdI
#vertices
v 0.10093315733501383 0.31036854641827816 0.8975740498836371
v 0.49067738579406456 0.3577151683314985 0.7945108299658856
v -0.18871953093810204 0.576147393502873 0.795259387396224
v 0.0009432748756859208 -0.0006045971828283777 0.9776730402263546
v -0.2643824384046576 0.1907148591908711 0.8977195987963504
v -0.6062856092371713 -0.0021756691559046025 0.7952053810185086
v -0.2631115986237978 -0.19364310380395855 0.8974338570020715
v -0.18504853365026774 -0.5778921865052253 0.7948218574581573
v 0.10243359029615785 -0.3107950256121849 0.8972474257228112
v 0.4930920779130064 -0.3559212105465402 0.7938098048315706
v 0.3285040154608281 0.0007241326352510813 0.8967970048140735
v 0.6574098315555303 0.0006472270856521259 0.6928218284725363
v 0.8749030922101859 0.0018920740036589194 0.43639247811209697
v 0.7587838289274781 -0.30969771615909203 0.4904185482536176
v 0.7962859209409392 -0.5755438786649673 0.18609107087246943
v 0.9215385330511062 -0.19018649881986352 0.1634348674464285
v 0.9821266273655218 0.0025931514360729166 -0.1882035158684736
v 0.9205318460501589 0.193777683908396 0.16491876404759076
v 0.7930785938811944 0.5794821314347481 0.18761120270693393
v 0.7565472794422234 0.3133388704042394 0.49155121324528434
v 0.5281816495634335 0.6257584367435882 0.4916003066107454
v 0.26794907451296973 0.8323297249800616 0.43742480792734
v 0.46489150190418094 0.8178692422375432 0.16469482647424685
v 0.30079308433204377 0.9351186544842017 -0.1870882252781258
v 0.09972277075811942 0.9353342176002929 0.16518521774982756
v -0.3060432517616961 0.9332156637521838 0.18814852747965274
v -0.0632373485108224 0.8162446697001872 0.49187779213335564
v 0.2011016030093629 0.6237511042612724 0.6947351656155492
v -0.4320035934459186 0.6955315975370037 0.49177172632012695
v -0.7087597211553059 0.5118744694511692 0.4376972597979926
v -0.6339385306717408 0.6950566374199315 0.16483876995082086
v -0.7963338649324514 0.5752010058980732 -0.18691667339864065
v -0.8585827911044348 0.38407969350424237 0.16554545461819942
v -0.9820890873112038 -0.002660114833311441 0.18830130403083883
v -0.7958411823041174 0.19198596812242694 0.4918866577697979
v -0.5310425460925593 0.3836948218442383 0.6949530188046796
v -0.794727748255651 -0.1958191224999887 0.49224685872498
v -0.7056906692096433 -0.5160621669709737 0.4377166532383642
v -0.8568685865466078 -0.3881970281981038 0.1650655112406831
v -0.7931497484340211 -0.5795847380805665 -0.18696952918993417
v -0.6304026694249099 -0.6980566755212149 0.1655518134474086
v -0.3008354305453138 -0.9349956434045195 0.18778959024372058
v -0.4281956917309768 -0.6976175347945212 0.4921007815142403
v -0.5290885942317506 -0.38658568646497543 0.6948142008388124
v -0.05916743789377001 -0.8166009980885883 0.491832438984299
v 0.27296025179839156 -0.8313019750168128 0.43633831968725956
v 0.10412103809438757 -0.9349205084614207 0.16502519894321585
v 0.3056533069361153 -0.9331956169558792 -0.18880751215909844
v 0.4689873921279874 -0.8156933419626894 0.16375465250266816
v 0.5317246206410998 -0.6238540899356171 0.4901772158110361
v 0.20525285246718705 -0.6230216063218299 0.6941816254374079
v 0.79507630535921 0.1956993186879924 -0.4917081663854156
v 0.6064091470975624 0.002333101379679195 -0.7951238714977211
v 0.7058059134964959 0.516246048130751 -0.4373448752517191
v 0.5305313730433888 0.387474295721759 -0.6931858153109686
v 0.185595519474254 0.5784321655117319 -0.7943063638641759
v 0.4284947416044652 0.6976615613666294 -0.49172598290321345
v 0.6300214256224581 0.6986421962972649 -0.1648393133757331
v 0.8572908160704255 0.38785413226842774 -0.16376650917807017
v 0.633113233924023 -0.6955727232991814 -0.16616205245231827
v 0.7079570210731126 -0.5120028598842887 -0.43884069871433307
v 0.4311202555707543 -0.695108194551781 -0.49305662182111964
v 0.18820257422955836 -0.5760039643047458 -0.7953749611814663
v 0.5308135769464846 -0.38459721040530365 -0.6945892818645155
v 0.7950090831726038 -0.19198850614969953 -0.4932596549882047
v 0.8590381877462916 -0.38344490487252625 -0.16496382663858786
v 0.05968395085267874 0.8168524812456042 -0.49136718251311184
v -0.2728453452613236 0.8310199256590441 -0.43692424724113893
v -0.20458914248927776 0.6245747406917335 -0.6929562631718292
v -0.4926792759336061 0.3556271277465666 -0.794173344715436
v -0.5310850660066623 0.6232847280530033 -0.4915123119627302
v -0.469592368698087 0.815187329647891 -0.1647917006005686
v -0.10369112483213759 0.9353125575194903 -0.16318728238159297
v -0.7583601660417262 0.30928866943692296 -0.49142457533605727
v -0.874691140428365 -0.002547421333146099 -0.43685857184225446
v -0.6569714915157429 -0.0018239952192752476 -0.6932129622181686
v -0.49075095337317226 -0.35787426476307355 -0.7943036087269983
v -0.7567901609293938 -0.312453311173998 -0.49169554175599395
v -0.9204202961060575 -0.19470133017504274 -0.16475139322693824
v -0.921571844728933 0.19061574849341764 -0.16302317591969714
v -0.5283870111924859 -0.6257982905724341 -0.49134498337096066
v -0.26823876398671237 -0.8320970400810077 -0.4377299640542124
v -0.20214131981131914 -0.6242424981366451 -0.6939942212577217
v 0.0627460238346505 -0.8155088329326001 -0.49310757887148055
v -0.09870980406651386 -0.9354412080419805 -0.16572600398541687
v -0.4660625638803496 -0.8175398877403998 -0.16317946491464297
v 0.26380784834923315 -0.19055420759665267 -0.8979442421170116
v -0.0010774105381680776 0.00035573795635054375 -0.9777210176403703
v -0.10047648936097406 -0.3104250008780769 -0.8976030980634386
v -0.3275365979628994 -0.0015256219331543316 -0.8971420399657866
v -0.10354097587792296 0.31063713539885757 -0.8972320439906922
v 0.26424896529048053 0.19466598905828147 -0.8969452417697447
#normal vector defs 
vn -0.7082018484944871 0.3024847990191552 0.6379287484910309
vn -0.8871883573239608 0.30235072689014547 0.3485410400194111
vn -0.8501995297555548 -0.0019520393532007486 0.5264569774879968
vn -0.5098259938159037 0.5774218547318378 0.6377001314941612
vn -0.425262326671778 0.3069722638149544 0.851422329259709
vn -0.7985659618814588 0.5772573979439065 0.17048841908871953
vn -0.5658822073645163 0.7472395731433698 0.34843987676036303
vn -0.706598826367544 -0.3068746786931163 0.6376096220674576
vn -0.2877761353957526 -0.00166347850299145 0.9576962612101791
vn -0.9517030094541805 0.30701559478945417 0.0016752169809761091
vn -0.8854092048642138 -0.30722161329506914 0.34880570561000807
vn -0.26465014709069135 0.8080169695092068 0.5263733243906205
vn -0.08921952738588246 0.27356180034795335 0.9577075844554153
vn -0.4233258257320774 -0.3103037257548983 0.8511796773013814
vn -0.589831026204664 0.8075266636188975 0.000219250736237195
vn -0.9855599965322419 -0.002186021725915891 -0.16931247604468316
vn -0.950261424999874 -0.31145317218949786 0.000381693997887863
vn 0.06929935927337869 0.7671774017450482 0.6376805101741906
vn -0.5064656035229169 -0.5800791266975077 0.6379661426894255
vn -0.08765159142347896 -0.27501992991465807 0.9574347166625347
vn 0.16148141340709302 0.4993438375661382 0.8512223475736345
vn -0.8972906507791096 0.2720814058341344 -0.34762220387041276
vn 0.013444211049262151 0.9372617599519651 0.3483671145803056
vn -0.795659482386295 -0.5812529652895349 0.17050213614760373
vn 0.23398525633481757 0.16956330290075972 0.9573396399018036
vn -0.540544691745782 0.7659101297030093 -0.3481280072671212
vn -0.3067404273882945 0.9365936228965388 -0.1694186995440067
vn -0.561396858989942 -0.7505224173075283 0.3486397393228308
vn 0.23527850806913098 -0.1693585502619342 0.9570588827726013
vn -0.8954295852264926 -0.2773485136364052 -0.3482580363534891
vn -0.6894477165235755 0.4988859579978113 -0.525142501701237
vn 0.3918079176420593 0.6634524260802215 0.6374303365868789
vn -0.002296889443909529 0.9999964415932284 0.0013568713141941322
vn -0.2606447683358845 -0.8095782550573836 0.5259727689504229
vn 0.16463677605447882 -0.499100701093681 0.8507603788013305
vn -0.7526940916862362 0.1676482049293913 -0.636667639922577
vn -0.5860810618824059 -0.8102510250494037 0.001505094409734122
vn 0.3019560599826433 0.9379937669715203 0.17026517836109528
vn 0.5270395719635341 0.0009484927764416151 0.8498402143614691
vn 0.07414797603229636 -0.7672236642848497 0.6370792153348299
vn -0.3956211514074134 0.6616222687189838 -0.6369771409510843
vn -0.7516749247911075 -0.17158605335322372 -0.6368226077448472
vn -0.018691433619310537 0.9374271364261538 -0.3476794417291827
vn 0.5359605675552425 0.7690907690762183 0.3482034734858536
vn -0.687329059409548 -0.5015950292549625 -0.5253391197292463
vn 0.6868271119204207 0.501959278860934 0.5256476012467524
vn -0.5361192337726653 -0.7692377250558702 -0.34763413171016366
vn 0.018404015987551273 -0.9371347246637525 0.3484821373111149
vn 0.7519619808816904 0.17132531744843413 0.6365538586087417
vn 0.39599439292838295 -0.6619371572625814 0.636417819207173
vn -0.07313037259021515 0.7678170926164563 -0.6364816265147238
vn -0.5263406574221196 -0.001267263977771902 -0.8502728423197236
vn -0.30221286837625677 -0.9379514209879205 -0.17004268303733674
vn 0.585536729883171 0.8106458685204547 0.00011750931933795333
vn 0.7532080312651364 -0.1686267584957071 0.6358008162600358
vn -0.1644849177467583 0.5002260795892541 -0.8501285674135456
vn 0.26121355234462773 0.8098506518559815 -0.5252707889840652
vn -0.39259373098965983 -0.6632762410329985 -0.6371301205160169
vn 0.002857407764011362 -0.9999959017604343 -0.0001779977700521583
vn 0.6898520701498895 -0.49899940803710946 0.5245033003599942
vn 0.8955708387587283 0.27687866301642705 0.3482686875549159
vn -0.23545959513632386 0.16868050826450315 -0.9571340894513513
vn 0.5612733670602627 0.7507821638253124 -0.348279126435417
vn 0.30668487310045395 -0.9367380703323612 0.16871922297522235
vn 0.5404461146262531 -0.766635443555857 0.34668154532553547
vn -0.23384200594771545 -0.17045958300272548 -0.9572154651993905
vn 0.7957372851036068 0.5813106575316276 -0.16994143854895458
vn -0.01332378679419815 -0.9367523845721536 -0.34973911234496907
vn 0.897364390864431 -0.27260008960666127 0.3470249863553759
vn -0.16187361319276714 -0.49967054936179406 -0.8509560949029047
vn 0.08760194818707365 0.2754526134101357 -0.9573148679715341
vn 0.5067115864496048 0.5805961342193926 -0.6373001624723015
vn -0.0697567049718569 -0.7667937250008653 -0.6380919882044961
vn 0.9504201837543611 0.3109677062859726 0.0007483044618335651
vn 0.9855806301256704 0.0019301349118016902 0.16919543758715413
vn 0.5894873756651705 -0.8077771417062886 -0.0008504517673812142
vn 0.4248349993315152 0.31152840400952947 -0.8499795743653294
vn 0.08916681783044424 -0.27370119622955835 -0.9576726652570289
vn 0.2641183167180225 -0.8078656014237878 -0.5268725508225117
vn 0.8855563342165081 0.30750570151241535 -0.3481813068882035
vn 0.9518732848721607 -0.3064908161709547 -0.0007931894756329819
vn 0.287848652641723 0.002153940108090013 -0.9576734901386565
vn 0.7073409542460775 0.30660431317573317 -0.6369164541667025
vn 0.5648100104299367 -0.7472905667082231 -0.3500663666035878
vn 0.7983699459741553 -0.5772191635413726 -0.17153269835755036
vn 0.42522903204464424 -0.30712159516966947 -0.8513851044543901
vn 0.5089301576101652 -0.577630119582391 -0.6382268715951446
vn 0.8502600803378852 0.001959008863808092 -0.526359153115137
vn 0.8868747434178258 -0.3023791529814625 -0.3493136661079534
vn 0.7074157109033613 -0.30274604265485994 -0.6386766361969989
#face defs 
f 36//1 30//1 35//1 6//1 
f 33//2 34//2 35//2 30//2 
f 35//3 34//3 37//3 6//3 
f 29//4 30//4 36//4 3//4 
f 36//5 6//5 5//5 3//5 
f 31//6 32//6 33//6 30//6 
f 31//7 30//7 29//7 26//7 
f 37//8 38//8 44//8 6//8 
f 5//9 6//9 7//9 4//9 
f 80//10 34//10 33//10 32//10 
f 39//11 38//11 37//11 34//11 
f 27//12 26//12 29//12 3//12 
f 3//13 5//13 4//13 1//13 
f 44//14 8//14 7//14 6//14 
f 72//15 32//15 31//15 26//15 
f 80//16 75//16 79//16 34//16 
f 79//17 40//17 39//17 34//17 
f 28//18 22//18 27//18 3//18 
f 44//19 38//19 43//19 8//19 
f 7//20 8//20 9//20 4//20 
f 2//21 28//21 3//21 1//21 
f 74//22 75//22 80//22 32//22 
f 25//23 26//23 27//23 22//23 
f 39//24 40//24 41//24 38//24 
f 4//25 11//25 2//25 1//25 
f 72//26 68//26 71//26 32//26 
f 73//27 68//27 72//27 26//27 
f 41//28 42//28 43//28 38//28 
f 9//29 10//29 11//29 4//29 
f 79//30 75//30 78//30 40//30 
f 71//31 70//31 74//31 32//31 
f 21//32 22//32 28//32 2//32 
f 73//33 26//33 25//33 24//33 
f 43//34 42//34 45//34 8//34 
f 51//35 10//35 9//35 8//35 
f 76//36 75//36 74//36 70//36 
f 86//37 42//37 41//37 40//37 
f 23//38 24//38 25//38 22//38 
f 11//39 10//39 12//39 2//39 
f 45//40 46//40 51//40 8//40 
f 69//41 70//41 71//41 68//41 
f 76//42 77//42 78//42 75//42 
f 67//43 68//43 73//43 24//43 
f 23//44 22//44 21//44 19//44 
f 78//45 77//45 81//45 40//45 
f 20//46 19//46 21//46 2//46 
f 81//47 82//47 86//47 40//47 
f 47//48 46//48 45//48 42//48 
f 12//49 13//49 20//49 2//49 
f 51//50 46//50 50//50 10//50 
f 69//51 68//51 67//51 56//51 
f 90//52 77//52 76//52 70//52 
f 86//53 82//53 85//53 42//53 
f 58//54 24//54 23//54 19//54 
f 14//55 13//55 12//55 10//55 
f 91//56 70//56 69//56 56//56 
f 57//57 56//57 67//57 24//57 
f 83//58 82//58 81//58 77//58 
f 85//59 48//59 47//59 42//59 
f 50//60 15//60 14//60 10//60 
f 18//61 19//61 20//61 13//61 
f 91//62 88//62 90//62 70//62 
f 58//63 54//63 57//63 24//63 
f 47//64 48//64 49//64 46//64 
f 50//65 46//65 49//65 15//65 
f 90//66 88//66 89//66 77//66 
f 59//67 54//67 58//67 19//67 
f 85//68 82//68 84//68 48//68 
f 14//69 15//69 16//69 13//69 
f 83//70 77//70 89//70 63//70 
f 92//71 88//71 91//71 56//71 
f 55//72 56//72 57//72 54//72 
f 84//73 82//73 83//73 63//73 
f 59//74 19//74 18//74 17//74 
f 16//75 17//75 18//75 13//75 
f 49//76 48//76 60//76 15//76 
f 92//77 56//77 55//77 53//77 
f 89//78 88//78 87//78 63//78 
f 84//79 63//79 62//79 48//79 
f 52//80 54//80 59//80 17//80 
f 66//81 17//81 16//81 15//81 
f 87//82 88//82 92//82 53//82 
f 53//83 55//83 54//83 52//83 
f 62//84 61//84 60//84 48//84 
f 60//85 61//85 66//85 15//85 
f 64//86 63//86 87//86 53//86 
f 62//87 63//87 64//87 61//87 
f 65//88 53//88 52//88 17//88 
f 66//89 61//89 65//89 17//89 
f 65//90 61//90 64//90 53//90 
