#Produced by polyHédronisme http://levskaya.github.com/polyhedronisme
group gD
#vertices
v 0.000012552591166741288 -0.000024364393197507017 0.9536927260376971
v 0.635804344024712 -0.00003892432950097304 0.7108320573946553
v -0.3178688737243315 0.5506099238972959 0.7108574325682638
v -0.3179112688542177 -0.5505801312191984 0.7108617636884904
v 0.7108661101024475 0.5505891490569161 0.3178857777194289
v 0.7108152586285528 -0.5506422099070125 0.3179075389557737
v -0.832254693465649 0.3403326526860245 0.31789440598582397
v 0.12149137585515064 0.8909103615619851 0.31788246070733556
v 0.12138903465359205 -0.8909152415187065 0.31790780696624715
v -0.8322999697254906 -0.34023663594527287 0.3178774916233414
v 0.8322838989633767 0.34025115580823484 -0.31790412453696426
v 0.8322500779363425 -0.34034415301114396 -0.31789377791462503
v -0.710805641138101 0.5506510732816049 -0.31791313874396615
v -0.12137375354384242 0.8909088936325347 -0.3179316108900007
v -0.12147465155900841 -0.890903267656348 -0.31790916642696737
v -0.7108703284746265 -0.5505575819675723 -0.3179308609210758
v 0.31791219221520917 0.5505934354246047 -0.7108515136882437
v 0.31784427036911866 -0.5506443951108955 -0.7108425882486266
v -0.6357869902280763 0.000029021105875045102 -0.7108486714840291
v -0.000021639674543899203 0.0000010467256631001556 -0.9536931996210285
v 0.30356737374477016 0.525701763350255 0.7946562043296638
v -0.6070568885403491 0.00002952810343359498 0.7946515252436314
v 0.30350625225828265 -0.525737735051574 0.7946496092020507
v 0.9822410535586638 -0.00004902898108847372 0.18759642528143208
v -0.49106685381631743 0.8506827910718561 0.18759183072913946
v -0.491185984810332 -0.8506144435330216 0.18759370133059552
v 0.4911752273459894 0.850610247714258 -0.18761024451509653
v 0.49107030116873057 -0.8506795516925142 -0.18757904534973951
v -0.9822372690534806 0.00007104844142365907 -0.1876096162436228
v 0.607054895549061 -0.000053135705942868715 -0.7946561160988794
v -0.30349755028098496 0.5257383013296124 -0.7946513890079409
v -0.30357114597413953 -0.525702192377906 -0.794646251291159
v 0.025173239714598287 0.7865566735381941 0.5387106350771325
v -0.13921916474215498 0.4150273850580437 0.8472806872960428
v 0.2450602189569646 0.08690032310048396 0.9175551504857928
v 0.6469258808010427 0.2556441866750162 0.6524163006479983
v 0.511044217590297 0.6880536178224942 0.4182472984780473
v -0.6937669619662455 -0.3714774421291483 0.5387072044901061
v -0.28982878233373655 -0.3280926499166373 0.8472709627533889
v -0.19779988322909048 0.16875232761186185 0.9175568160088037
v -0.5448496864399593 0.4324166062852127 0.6524338318105047
v -0.8513933151615243 0.09854564834377896 0.41824984699228035
v 0.6685995951931372 -0.41507001858710924 0.5387059987717857
v 0.4290463818764317 -0.08696832625197631 0.8472706333999752
v -0.04723153903007127 -0.2556684153375567 0.9175596609004673
v -0.10205935525674127 -0.6880605709299743 0.6524352735906387
v 0.340362240844847 -0.7865848075283804 0.4182728237266673
v 0.876241419498675 0.3714776553994822 -0.06097910033230325
v 0.7808840316615712 0.32805898601459116 0.43830276902524906
v 0.759125131243983 -0.16876961849013083 0.5520498271300786
v 0.8410503779218099 -0.4324439192013955 0.1230531345055499
v 0.9134278696055643 -0.09854719695576164 -0.25583749226329805
v -0.7598260426206782 0.5731137088780858 -0.06098219825237991
v -0.6745490807248884 0.5122297957152354 0.4383114156470369
v -0.23338076410080158 0.741818094910977 0.5520442916942437
v -0.045992802194719 0.9445966104170208 0.12303494704646464
v -0.3713600406185812 0.8403214603496486 -0.2558644389019956
v -0.11642753322193813 -0.9445850232258978 -0.06097336479567133
v -0.10632860900052642 -0.8402855197382176 0.43832363767348353
v -0.5257522071266322 -0.5730191346410394 0.5520385950362056
v -0.795052977844667 -0.5121217665792572 0.12303425341794132
v -0.5420681038582092 -0.7417606331406255 -0.2558678303164864
v 0.046155081177100495 0.9445860365148084 -0.12304313687155888
v 0.3714775359776855 0.8402798957694697 0.2558270426636758
v 0.7598926461329001 0.573024345700836 0.06098724858800582
v 0.6746230705665563 0.5121415081758278 -0.4383035634053258
v 0.2334786364803732 0.7417816870333611 -0.552052185299158
v 0.5256776793804876 -0.5731180000858529 -0.5520076160578542
v 0.7949761848229154 -0.5122435772305803 -0.12301178314499686
v 0.5419682315450632 -0.7418380731335461 0.2558500332771845
v 0.11631533553676128 -0.9445962282734512 0.06101205523748115
v 0.10620003816293884 -0.8403179842169483 -0.4382958065628992
v -0.8411167975641375 -0.43231337501255274 -0.1230455819181362
v -0.9134422961948634 -0.09843106768883808 0.25582763385721435
v -0.8761993031191433 0.3715760526268147 0.060985920935385594
v -0.7808373626196785 0.32817225940245587 -0.43830456442179677
v -0.759144995928976 -0.1686855424724862 -0.5520483052384465
v 0.1978145342585303 0.16872288274517175 -0.9175598320873408
v 0.5449137293311408 0.43234571770443925 -0.6524251401083506
v 0.8513973540728148 0.09843289436015742 -0.41826599973324513
v 0.6937416790341252 -0.37157356516627615 -0.5386734936429957
v 0.2897917166708974 -0.3281610190576635 -0.8472582294056885
v -0.24504054368957381 0.08695913969604922 -0.9175548412937965
v -0.6468809256062675 0.2557362182602766 -0.6524228139855447
v -0.5109392245145628 0.6881086804007972 -0.41828239543131307
v -0.025089470059487737 0.7865653205359365 -0.5387006946895658
v 0.13926050602587928 0.41504208523977115 -0.8472661771453283
v 0.04718489547771794 -0.255708812731034 -0.9175508886600348
v 0.10196454751619927 -0.6880923987479037 -0.6524146906945133
v -0.34046819031923586 -0.7865315736744095 -0.4182845744377204
v -0.6686473655998317 -0.41500261350796475 -0.5386983838852064
v -0.42908381982590743 -0.08690861744502887 -0.847258291917216
#normal vector defs 
vn -0.5562663296428739 -0.6564907109050027 -0.5094975142246425
vn -0.7339198192572035 -0.6743501115313851 -0.0813242029108335
vn -0.8643056619022551 -0.3377467287110449 -0.3726967534721663
vn -0.35255647092499354 -0.9173752913187223 -0.1847336181825159
vn -0.6060606891341573 -0.26334585643368374 -0.7505593920439873
vn -0.9510176778941635 -0.29825616586501286 0.08129351669287668
vn -0.12322339758378521 -0.8099580728823444 -0.5733968211113722
vn -0.7247461635169743 -0.5795256523148833 0.37268353435111184
vn -0.8304361062231986 0.08962026882401311 -0.5498582370909468
vn -0.10768790450254825 -0.9727402440703141 0.20537705029987136
vn 0.10756976507335055 -0.9727617932213224 -0.20533689218185167
vn -0.20379930381243105 -0.17381093357433533 -0.9634602239509352
vn -0.8467040663878791 -0.15338150297115255 0.509476533815386
vn -0.9707354647493318 0.153488203283629 0.18469983467957396
vn -0.3377190105253689 -0.7639364111756796 0.5498609184237307
vn 0.09462586325567629 -0.5116589963928138 -0.8539619531416001
vn -0.4904218871320064 0.17385664015198732 -0.8539673537653205
vn -0.8962161334218882 0.39322424467139033 -0.20535660592475388
vn 0.33760755518100993 -0.7640029773062413 -0.5498368752201874
vn -0.5311262498677204 -0.39313023307722994 0.7505688020042497
vn -0.6398410967485444 0.5116815418991206 -0.5733980908508141
vn 0.35244848921227984 -0.917417078917153 0.18473214599278523
vn 0.12311168982199606 -0.8099723027640878 0.5734007155421187
vn 0.2523953673739969 -0.0895952232648149 -0.9634673188522136
vn -0.048638736061646565 0.26338534559372667 -0.9634637684317967
vn -0.7630167566151443 0.29837391782140377 0.5733920424006701
vn -0.788577695853223 0.5796292630957512 0.2053658563780701
vn 0.5310948699412523 -0.3932185081062245 -0.7505447648240572
vn -0.09469055254190828 -0.5116175141660304 0.8539796358566637
vn -0.618198981316879 0.764005389028174 -0.18473165682871281
vn 0.7246732427208995 -0.5796339506000462 -0.3726569127175287
vn -0.2524197563555787 -0.08954076215905284 0.9634659924010635
vn -0.29042042556630293 0.8099785285413892 -0.509500500211544
vn 0.7338204759644639 -0.6744581704471639 0.08132456807356499
vn 0.5561922211652978 -0.65656091335763 0.5094879588039417
vn -0.39572933105122515 0.3378204923492748 0.8539763530067114
vn 0.3957677279878991 0.33778363319012794 -0.8539731392919646
vn 0.07495522788698944 0.6565321545681346 -0.7505646166923486
vn -0.49273679725352865 0.6744391295229168 0.5498566260405573
vn 0.8466837833067001 -0.15348662802134957 -0.5094785825764307
vn 0.20376352981652887 -0.1738442693335385 0.9634617760641033
vn -0.21705331318487373 0.9727662983688239 -0.08132396936503575
vn 0.9509748867806211 -0.2983913909636534 -0.08129786289541036
vn 0.048678162350750766 0.26335277622647457 0.9634706802824685
vn 0.6060250711695604 -0.26340370573060085 0.7505678523100466
vn 0.8642657583427565 -0.33784681520745974 0.3726985758094557
vn 0.13964662097923403 0.9173852608678629 -0.3726970678600585
vn 0.7630538055349744 0.2982745027396581 -0.573394463588552
vn 0.4928272690012002 0.6743698805983639 -0.5498604796405785
vn -0.13951979048707303 0.9174086664392533 0.37268695550635256
vn -0.0748964800984316 0.656524032980814 0.7505775851885482
vn 0.9707492377784173 0.15338039873382173 -0.18471700148301368
vn 0.490450730346507 0.17378119041264162 0.8539661462618663
vn 0.21720529455470777 0.9727346881334895 0.08129628847152556
vn 0.8304564746190649 0.0895139999282847 0.5498447849894674
vn 0.7886478661589356 0.5795376633526715 -0.205354912185424
vn 0.2905224612798474 0.8099555923978242 0.5094787903685387
vn 0.8962615228268374 0.393117438247205 0.2053630016484792
vn 0.6399181814966091 0.5116027067341509 0.5733824129255827
vn 0.6182911977247644 0.7639389454688549 0.18469781377160444
#face defs 
f 90//1 62//1 16//1 91//1 32//1 
f 61//2 73//2 16//2 62//2 26//2 
f 77//3 91//3 16//3 73//3 29//3 
f 62//4 90//4 15//4 58//4 26//4 
f 91//5 77//5 19//5 92//5 32//5 
f 73//6 61//6 10//6 74//6 29//6 
f 89//7 72//7 15//7 90//7 32//7 
f 60//8 38//8 10//8 61//8 26//8 
f 76//9 84//9 19//9 77//9 29//9 
f 58//10 71//10 9//10 59//10 26//10 
f 71//11 58//11 15//11 72//11 28//11 
f 92//12 83//12 20//12 88//12 32//12 
f 42//13 74//13 10//13 38//13 22//13 
f 74//14 42//14 7//14 75//14 29//14 
f 59//15 46//15 4//15 60//15 26//15 
f 88//16 82//16 18//16 89//16 32//16 
f 83//17 92//17 19//17 84//17 31//17 
f 75//18 53//18 13//18 76//18 29//18 
f 72//19 89//19 18//19 68//19 28//19 
f 38//20 60//20 4//20 39//20 22//20 
f 84//21 76//21 13//21 85//21 31//21 
f 70//22 47//22 9//22 71//22 28//22 
f 46//23 59//23 9//23 47//23 23//23 
f 82//24 88//24 20//24 78//24 30//24 
f 87//25 78//25 20//25 83//25 31//25 
f 41//26 54//26 7//26 42//26 22//26 
f 53//27 75//27 7//27 54//27 25//27 
f 81//28 68//28 18//28 82//28 30//28 
f 45//29 39//29 4//29 46//29 23//29 
f 57//30 85//30 13//30 53//30 25//30 
f 68//31 81//31 12//31 69//31 28//31 
f 39//32 45//32 1//32 40//32 22//32 
f 85//33 57//33 14//33 86//33 31//33 
f 69//34 51//34 6//34 70//34 28//34 
f 47//35 70//35 6//35 43//35 23//35 
f 40//36 34//36 3//36 41//36 22//36 
f 78//37 87//37 17//37 79//37 30//37 
f 86//38 67//38 17//38 87//38 31//38 
f 54//39 41//39 3//39 55//39 25//39 
f 80//40 52//40 12//40 81//40 30//40 
f 44//41 35//41 1//41 45//41 23//41 
f 56//42 63//42 14//42 57//42 25//42 
f 51//43 69//43 12//43 52//43 24//43 
f 34//44 40//44 1//44 35//44 21//44 
f 43//45 50//45 2//45 44//45 23//45 
f 50//46 43//46 6//46 51//46 24//46 
f 67//47 86//47 14//47 63//47 27//47 
f 79//48 66//48 11//48 80//48 30//48 
f 66//49 79//49 17//49 67//49 27//49 
f 55//50 33//50 8//50 56//50 25//50 
f 33//51 55//51 3//51 34//51 21//51 
f 52//52 80//52 11//52 48//52 24//52 
f 35//53 44//53 2//53 36//53 21//53 
f 63//54 56//54 8//54 64//54 27//54 
f 49//55 36//55 2//55 50//55 24//55 
f 65//56 48//56 11//56 66//56 27//56 
f 37//57 64//57 8//57 33//57 21//57 
f 48//58 65//58 5//58 49//58 24//58 
f 36//59 49//59 5//59 37//59 21//59 
f 64//60 37//60 5//60 65//60 27//60 
