#Produced by polyHédronisme http://levskaya.github.com/polyhedronisme
group daaC
#vertices
v 0.0006551491639860489 0.000632075852669329 0.9998898961238356
v -0.7062772449802216 -0.0003576062083351014 0.7078518870098224
v 0.0014067391482443397 -0.7068217064195097 0.707180718879416
v 0.7076311206206567 0.0009057882830527235 0.7064912904780022
v 0.0000666976369780759 0.7078727547856828 0.706178413206049
v -0.5453374958650653 -0.5475742462847066 0.5476250621625375
v -0.7060855515270076 -0.707888188000119 0.0010012360181710876
v 0.5476252951017992 -0.5461088347203539 0.5468213424093682
v 0.7074941578103024 -0.7065102301247871 -0.0006642271102563754
v 0.5469569033910207 0.5477011073820236 0.5459129290370147
v 0.7066665299945524 0.707333198937989 -0.0012980737227069534
v -0.5464366046648105 0.5474666519218794 0.5466426909840413
v -0.7073459552749107 0.7066087975301697 0.0003182677486412074
v 0.9998766170992425 0.0007096110164904471 -0.0011451171481944916
v 0.7061555565857299 0.0004129978604464206 -0.7079190892533449
v 0.5464400168141605 -0.5469078862289268 -0.5472016135048396
v -0.00015540776099828282 -0.7076218208788697 -0.7063841469483486
v 0.5462346675856108 0.5469720125716783 -0.5473335118924235
v -0.0016043835845105739 0.7070222483123492 -0.7069766882491213
v -0.0007459157146678485 0.9997687334567202 -0.0007408423466091216
v -0.5480294653956957 0.5467134466395983 -0.5457829930561675
v -0.7080277177163001 -0.0010145668008343664 -0.7060721270127267
v -0.999935829604133 -0.0012245447191392444 0.001177055290136634
v -0.546845960854577 -0.5482027057518978 -0.5454978135310905
v 0.0013373093980526246 -0.9997746694822203 0.00029123943442498204
v -0.001542873147390019 -0.00009067223059328633 -0.9999988056597856
#normal vector defs 
vn -0.35821120645749305 -0.3584718475859457 -0.8620804289952219
vn -0.862814250230746 -0.35869089171029683 -0.35621961456779366
vn -0.3566897449000412 -0.863618065689549 -0.3562811565292016
vn -0.35916480468775286 0.3572448311483069 -0.8621930025762365
vn -0.8636410500591967 0.3565632348623933 -0.3563520677604021
vn 0.3565038827265879 -0.3575071992716826 -0.8631880351752941
vn 0.35777303794021226 -0.8627103264372233 -0.35739242574740004
vn -0.8619076918608725 -0.3584936982453757 0.3586047950452099
vn -0.3558633416569123 -0.8633191212781823 0.35782869770358394
vn 0.3560525724831013 0.3577837172122296 -0.8632597392013397
vn -0.8627166107927149 0.3570664115437665 0.3580832685418139
vn -0.35840348631141383 0.8625647014396741 -0.35711213481217646
vn 0.35863240370804456 -0.8623658508000969 0.3573624747849376
vn 0.8626497293753081 -0.3569224454587951 -0.3583877960204855
vn -0.35611959033307705 -0.3575547122480773 0.8633269746337109
vn 0.3564583719694732 0.8629411301264827 -0.3581480629417134
vn 0.8623034618329114 0.35768542712337814 -0.35846042310768894
vn -0.3575138502151928 0.8630816487805973 0.35675469785620834
vn -0.35693796184466453 0.3580259243695693 0.8627935609828646
vn 0.8634507411601056 -0.35670602666265183 0.35667019518402177
vn 0.3582297408701 -0.3566283841488322 0.8628369767085403
vn 0.35723420402155726 0.8634541020726487 0.3561330328557021
vn 0.8629772431993178 0.35819205112618935 0.3563267211845317
vn 0.35770320636222525 0.35838713432521047 0.8623265495787237
#face defs 
f 24//1 22//1 26//1 17//1 
f 23//2 22//2 24//2 7//2 
f 24//3 17//3 25//3 7//3 
f 26//4 22//4 21//4 19//4 
f 21//5 22//5 23//5 13//5 
f 16//6 17//6 26//6 15//6 
f 25//7 17//7 16//7 9//7 
f 23//8 7//8 6//8 2//8 
f 6//9 7//9 25//9 3//9 
f 26//10 19//10 18//10 15//10 
f 12//11 13//11 23//11 2//11 
f 20//12 19//12 21//12 13//12 
f 25//13 9//13 8//13 3//13 
f 16//14 15//14 14//14 9//14 
f 2//15 6//15 3//15 1//15 
f 18//16 19//16 20//16 11//16 
f 14//17 15//17 18//17 11//17 
f 20//18 13//18 12//18 5//18 
f 5//19 12//19 2//19 1//19 
f 8//20 9//20 14//20 4//20 
f 3//21 8//21 4//21 1//21 
f 10//22 11//22 20//22 5//22 
f 14//23 11//23 10//23 4//23 
f 4//24 10//24 5//24 1//24 
