#Produced by polyHédronisme http://levskaya.github.com/polyhedronisme
group O
#vertices
v 0 -1.3086079969650596e-17 0.9999999999999999
v 0.9999999999999999 -1.3086079969650596e-17 -1.3086079969650596e-17
v 0 0.9999999999999999 -1.3086079969650596e-17
v -0.9999999999999999 -1.3086079969650596e-17 -1.3086079969650596e-17
v 0 -0.9999999999999999 -1.3086079969650596e-17
v 0 -1.3086079969650596e-17 -0.9999999999999999
#normal vector defs 
vn -0.5773502691896257 0.5773502691896257 0.5773502691896257
vn -0.5773502691896257 0.5773502691896257 -0.5773502691896257
vn -0.5773502691896257 -0.5773502691896257 0.5773502691896257
vn 0.5773502691896257 0.5773502691896257 0.5773502691896257
vn -0.5773502691896257 -0.5773502691896257 -0.5773502691896257
vn 0.5773502691896257 0.5773502691896257 -0.5773502691896257
vn 0.5773502691896257 -0.5773502691896257 0.5773502691896257
vn 0.5773502691896257 -0.5773502691896257 -0.5773502691896257
#face defs 
f 1//1 3//1 4//1 
f 3//2 6//2 4//2 
f 1//3 4//3 5//3 
f 1//4 2//4 3//4 
f 4//5 6//5 5//5 
f 2//6 6//6 3//6 
f 1//7 5//7 2//7 
f 2//8 5//8 6//8 
