# Polyhedron with triangles and quads
g polyhedron
# vertices
v 0.0610333849318228 -0.1569785745334036 0.9857142857142858
v -0.2597228451878671 0.12814677018141085 0.9571428571428572
v 0.3563612624677222 0.10373886761107197 0.9285714285714286
v -0.22630473404732435 -0.37254015534941964 0.9
v -0.09540279234432388 0.4811554344604922 0.8714285714285714
v 0.43374070638132256 -0.31852917662676555 0.8428571428571429
v -0.5770696295712349 -0.06268507108332762 0.8142857142857143
v 0.40833690279770524 0.46466550876740065 0.7857142857142857
v 0.013498303259859012 -0.6531098603501987 0.7571428571428571
v -0.47302822388321664 0.4954068760920433 0.7285714285714286
v 0.7125466302263703 -0.04772106194380386 0.7
v -0.5786705703983125 -0.46295144931653404 0.6714285714285715
v 0.11780659762870142 0.7568727101915488 0.6428571428571428
v 0.43719043137415137 -0.6568999832085347 0.6142857142857143
v -0.7869097917208924 0.1941951472204854 0.5857142857142856
v 0.7288858367757074 0.3978910324227862 0.5571428571428572
v -0.2746629788796771 -0.8032263024396682 0.5285714285714285
v -0.3469081219576609 0.7935078795574803 0.5000000000000001
v 0.8063241341451721 -0.35720651272877835 0.47142857142857136
v -0.8497687345072735 -0.28595567641562053 0.4428571428571428
v 0.43998537707760454 0.7967309551515201 0.4142857142857143
v 0.21668147295361256 -0.8968130402010059 0.38571428571428584
v -0.7750482110273067 0.5212957415663475 0.3571428571428572
v 0.9339396125308073 0.14070400304304095 0.3285714285714286
v -0.5995595613068623 -0.741975964870509 0.3000000000000001
v -0.05962881759042071 0.9606096682446066 0.2714285714285716
v 0.6983245036938701 -0.6733225792322541 0.24285714285714283
v -0.9764523940695415 0.024947039281687095 0.21428571428571447
v 0.7412572133113721 0.6450177887434513 0.18571428571428583
v -0.11143779354899404 -0.9812684345366008 0.15714285714285722
v -0.5830915545643421 0.802168078865546 0.12857142857142861
v 0.9750315740819915 -0.19827614466494436 0.1
v -0.8549987581923071 -0.5136877287548206 0.07142857142857148
v 0.2839231814873497 0.9578887682399371 0.0428571428571428
v 0.43804625604063696 -0.8988389154548927 0.014285714285714388
v -0.9301586398574315 0.36687984826904857 -0.014285714285714264
v 0.932931143278737 0.35749510095489556 -0.042857142857142906
v -0.4456991149701692 -0.8923285594995161 -0.07142857142857136
v -0.27343904867198354 0.9566771067927572 -0.1000000000000001
v 0.8450504584482051 -0.5189981796033396 -0.1285714285714285
v -0.9696426661240736 -0.18734786489516778 -0.15714285714285708
v 0.585470110947918 0.7891355734398654 -0.18571428571428572
v 0.10074438919990808 -0.9715617328290564 -0.21428571428571414
v -0.725548397585792 0.6438943476409424 -0.24285714285714272
v 0.9623386600679256 0.01519322055769216 -0.27142857142857124
v -0.6931454022289626 -0.6554002222831861 -0.3
v 0.0677091710350398 0.9420489819984301 -0.3285714285714285
v 0.5799428216580625 -0.7321989505586042 -0.3571428571428571
v -0.9109382964805798 0.14634175686036338 -0.38571428571428573
v 0.7601341560614185 0.5005630946519833 -0.4142857142857144
v -0.2190619754517376 -0.8694190025135121 -0.44285714285714267
v -0.4187799184382783 0.7761304542109176 -0.4714285714285715
v 0.8180644034340543 -0.2842017449525684 -0.5000000000000002
v -0.7794558260054142 -0.3362452381881072 -0.5285714285714284
v 0.34005180640326216 0.7575992381837326 -0.5571428571428573
v 0.25475286025849186 -0.769441197038683 -0.5857142857142859
v -0.6888846881070789 0.3848258667450804 -0.6142857142857143
v 0.7454305098070678 0.17626130864805942 -0.6428571428571427
v -0.41658761818508416 -0.6128934898041147 -0.6714285714285714
v -0.10294342370941414 0.7066842657898819 -0.6999999999999998
v 0.5306645260484836 -0.4331037222919306 -0.7285714285714288
v -0.6521840941921822 -0.03729076508029664 -0.7571428571428571
v 0.4315318441503585 0.4432079971172456 -0.7857142857142857
v -0.01765580575377032 -0.5801956980479853 -0.8142857142857144
v -0.35126886246449096 0.40767882333719113 -0.8428571428571427
v 0.4871137388811107 -0.05772737904343205 -0.8714285714285716
v -0.35382937469491255 -0.25456781729630956 -0.9
v 0.07573506790852223 0.3633446043767649 -0.9285714285714286
v 0.14794043997967044 -0.24898027479908885 -0.9571428571428571
v -0.16124640971549048 0.048651231152351614 -0.9857142857142858
# faces
f 44 31 23 36
f 18 31 39 26
f 16 24 37 29
f 35 48 56 43
f 32 40 53 45
f 48 40 27 35
f 45 32 24 37
f 1 3 5 2
f 55 63 68 60
f 31 44 52 39
f 69 61 56 64
f 36 28 15 23
f 59 54 62 67
f 21 29 42 34
f 26 34 47 39
f 16 8 3 11
f 40 32 19 27
f 46 38 25 33
f 51 43 30 38
f 70 68 66 69
f 33 46 54 41
f 41 33 20 28
f 28 41 49 36
f 50 42 29 37
f 55 42 34 47
f 15 10 2 7
f 9 17 12 4
f 17 30 38 25
f 43 30 22 35
f 5 18 10
f 11 24 16
f 51 59 46
f 69 66 61
f 58 45 50
f 21 29 16
f 37 45 50
f 2 5 10
f 3 6 1
f 3 6 11
f 19 24 32
f 19 11 24
f 19 6 14
f 19 6 11
f 9 6 1
f 9 6 14
f 63 58 66
f 63 55 50
f 63 58 50
f 67 69 70
f 67 62 70
f 64 51 59
f 64 67 59
f 64 67 69
f 22 9 14
f 22 9 17
f 53 66 61
f 53 58 66
f 53 58 45
f 53 48 61
f 53 40 48
f 23 15 10
f 23 18 10
f 23 18 31
f 54 59 46
f 34 21 26
f 8 21 16
f 8 3 5
f 27 19 14
f 27 22 14
f 27 22 35
f 38 51 46
f 68 63 66
f 47 60 55
f 56 51 43
f 56 64 51
f 56 48 61
f 52 57 44
f 52 47 60
f 52 47 39
f 65 68 70
f 65 68 60
f 65 62 70
f 65 57 62
f 65 52 60
f 65 52 57
f 42 55 50
f 25 12 17
f 20 15 28
f 20 7 15
f 20 7 12
f 20 25 33
f 20 25 12
f 4 9 1
f 4 7 12
f 4 2 1
f 4 7 2
f 13 8 5
f 13 8 21
f 13 21 26
f 13 18 26
f 13 5 18
f 30 22 17
f 49 36 44
f 49 57 44
f 49 57 62
f 49 54 62
f 49 41 54
