group random70
#vertices
v -0.38770609068873585 0.877891038026123 0.28105393182852634
v -0.45432941085295486 -0.8885837385758484 -0.0632750027465422
v -0.973823878899989 0.17784103141363197 0.14156136630421176
v -0.5382327806162145 0.6114791587394933 0.5799988899104713
v 0.05867870854686783 -0.450172121570518 0.8910117115526431
v 0.9943595801083147 0.10579317342519018 0.007538561099008781
v 0.5583147937783978 0.6851605208478027 -0.46780300524874036
v 0.9027391057838031 0.12101621899545267 0.4128161596021943
v -0.9287452147892707 -0.17919926266385164 0.3245303533827971
v 0.3191898363162281 -0.8814336264474065 0.34812729074318965
v -0.24316775677721958 0.8147783511941903 -0.5263132911956637
v -0.7413396100661248 -0.6636225599431042 0.10010334900275379
v 0.011724856397607616 -0.9552644821538309 -0.29552038318503343
v 0.9082772589999539 -0.392447646067036 -0.14497332816753927
v -0.4048690831439513 -0.7833817641124537 -0.47158672285194403
v 0.37405491163527144 -0.21745655952780515 0.9015517554748919
v 0.7293227550214122 -0.34108422327269644 0.5930850458765913
v -0.4398701955843804 -0.5060970349774073 -0.7418760019192127
v 0.19829381884071434 0.8369023895350871 -0.5101705124760025
v 0.33276535615819397 0.33947905991300015 0.8797847382294693
v 0.7079609085480698 -0.46327306232393617 -0.5330754371501221
v 0.4670071419109359 0.8222706724035946 0.3252311035388825
v 0.8923777712078277 -0.06480871431717845 -0.4466114015592348
v -0.3746656368550734 0.3892379569825338 -0.8414983502087483
v 0.046046714606410785 0.9506766286827653 0.306746878957761
v 0.3311551390572342 -0.9402424811474152 -0.0792486625864214
v -0.6659089895076964 -0.14104080294475374 0.7325794902927176
v -0.5915856536613722 0.638306140527942 -0.49253597365712304
v -0.5612994062834895 0.8132736409364927 -0.1533915299607613
v -0.7738003533698599 0.6046038800562288 0.18891045853957764
v -0.7182257694818458 -0.610974154522615 -0.3329599473774382
v -0.8434723681252493 0.5000550922619852 -0.19621230571001802
v -0.9506045891567629 0.031999395303234576 -0.30875063364198835
v -0.1425242832615034 0.40302829547763863 0.9040215825549653
v 0.7020035531612285 -0.6894665031197631 -0.17840109984194666
v 0.30593071350465567 -0.45976678314335423 -0.8336791371100419
v -0.32520021414087885 -0.12379943834230675 0.9375065438645515
v -0.9589639395617999 -0.2690470239393929 -0.08945312476078215
v 0.8520541040379813 0.48943837304308807 0.18561757132601459
v 0.2587900413441508 0.7250902469578386 0.638178539491664
v 0.6271197567405933 -0.09843183242932488 -0.772678448690155
v -0.005942511428696948 -0.8044538449504641 0.5939854357661764
v -0.8398343833799468 0.21454890112897063 0.4986451418766413
v -0.06001188568840497 -0.3433121665756232 -0.9373021550478124
v -0.4829586019505496 0.23459733425898682 0.8436320759433865
v -0.518832761928742 -0.04445954545204192 -0.8537188729128526
v 0.7211627951725287 -0.6386275124846018 0.26847555411373125
v 0.37362174188316144 0.41264738973864434 -0.8307399868394899
v 0.25736416045911603 0.053975460143345505 -0.9648058553996699
v 0.6172392580260044 0.09480459262854866 0.7810427565556463
v -0.789052244069381 -0.22876950276735614 -0.5701412726093864
v 0.9162128497457428 -0.2761879943667475 0.29030019932555734
v -0.4232761203749035 -0.8233164836352077 0.3781366071870416
v 0.3757433340759731 -0.6487955155002262 0.6617260203167679
v -0.18792576157667135 0.7658764929785318 0.6149122747504178
v -0.022676157794184953 -0.9877953629728051 0.15409773767683085
v -0.14284345666615347 0.9756444164452298 -0.16647438105279616
v 0.006185917458842561 0.5144395311839327 -0.8575043458667996
v 0.6592839895418026 0.7444619055018514 -0.10545659007571195
v -0.7515100225111796 0.20175444430234304 -0.6281145041069337
v 0.27769268235586536 0.950355003411923 -0.1403999346720926
v 0.6144277610280275 0.5100150102804341 0.6019661250990238
v 0.8825625522614815 0.41401928518286046 -0.22287075367210746
v -0.3884066479191433 -0.533850628053186 0.7510950557548848
v -0.6683760097849292 -0.5428870114725152 0.5084753704147503
v 0.08994396907579524 0.04509452903853195 0.9949254071927629
v 0.7336147640281678 0.24460355551002835 -0.6340177273797226
v -0.008702315249033485 -0.6933717041559482 -0.7205275494977152
v -0.12011651238940511 0.124416167056196 -0.9849328103106579
v 0.33861595826235297 -0.7828616157154168 -0.5219836428945984
#face defs
f 12 38 31
f 63 67 7
f 25 61 57
f 25 61 22
f 36 70 21
f 53 64 65
f 53 12 65
f 37 5 66
f 37 5 64
f 9 38 3
f 9 12 65
f 9 12 38
f 32 30 3
f 23 63 6
f 23 63 67
f 48 67 7
f 24 11 28
f 50 8 17
f 50 8 62
f 39 62 22
f 39 8 62
f 39 63 6
f 39 8 6
f 19 61 7
f 19 48 7
f 19 11 57
f 19 61 57
f 1 25 57
f 1 30 4
f 55 1 4
f 55 1 25
f 2 12 31
f 2 13 56
f 2 53 56
f 2 53 12
f 35 70 21
f 15 2 13
f 15 18 31
f 15 2 31
f 41 36 21
f 41 23 21
f 41 23 67
f 41 48 67
f 54 47 17
f 54 10 47
f 27 64 65
f 27 37 64
f 27 9 65
f 60 32 28
f 60 24 28
f 20 50 62
f 16 50 17
f 16 54 17
f 16 54 5
f 16 5 66
f 16 20 66
f 16 20 50
f 59 61 22
f 59 39 22
f 59 61 7
f 59 63 7
f 59 39 63
f 58 19 11
f 58 19 48
f 58 24 11
f 58 24 69
f 29 1 30
f 29 32 28
f 29 32 30
f 29 1 57
f 29 11 57
f 29 11 28
f 14 23 21
f 14 35 21
f 14 23 6
f 14 35 47
f 26 13 70
f 26 35 70
f 26 13 56
f 26 10 56
f 26 10 47
f 26 35 47
f 49 41 48
f 49 58 69
f 49 58 48
f 49 41 36
f 49 44 69
f 49 44 36
f 68 36 70
f 68 44 36
f 68 13 70
f 68 15 13
f 68 15 18
f 68 44 18
f 42 5 64
f 42 54 5
f 42 53 64
f 42 54 10
f 42 53 56
f 42 10 56
f 45 27 37
f 43 9 3
f 43 27 9
f 43 45 27
f 43 45 4
f 43 30 3
f 43 30 4
f 33 60 32
f 33 38 3
f 33 32 3
f 40 20 62
f 40 62 22
f 40 25 22
f 40 55 25
f 52 8 6
f 52 14 6
f 52 8 17
f 52 47 17
f 52 14 47
f 34 40 55
f 34 40 20
f 34 55 4
f 34 45 4
f 34 20 66
f 34 37 66
f 34 45 37
f 51 38 31
f 51 33 38
f 51 18 31
f 51 33 60
f 46 51 60
f 46 24 69
f 46 60 24
f 46 51 18
f 46 44 69
f 46 44 18
