#Produced by polyHédronisme http://levskaya.github.com/polyhedronisme
group daD
#vertices
v 0.3035160897872349 0.5256900132107 0.7946846280205676
v -0.30358911301987546 0.52564405218932 0.6787538562774328
v 0.000036457312405368956 -0.00003611678875972975 0.9105906893285413
v 0.607076005276838 -0.000021704941087118252 0.6786998710795802
v 0.6786989945496318 0.5257454199342209 0.30353896839274347
v 0.11588755627867096 0.8506242395508973 0.3036205916394483
v -0.6070458535119294 -0.00007341306335606884 0.7946621424336834
v -0.3034775044143864 -0.5257839667116345 0.6786961100708091
v -0.7946734108692922 0.324870277670788 0.30352319937014727
v -0.7946228409152443 -0.3249604028870593 0.3035638498369908
v 0.30357802965096786 -0.5257600129963562 0.7946136676521283
v 0.11599088629743085 -0.8506621213880355 0.3034735689643697
v 0.6787505443968551 -0.5257082128494142 0.303484980787151
v 0.9822486230134811 0.000025657658345274338 0.18756919651401724
v 0.7946511609541951 -0.324886114476634 -0.3035673015668259
v 0.7946376710572864 0.3249574796898509 -0.30352980350036873
v -0.49116161001438946 0.8506115455349652 0.18765417396166312
v -0.11595511796409706 0.850668245715906 -0.3034716297032578
v -0.678730412837976 0.5257351411240443 -0.3034823684623143
v -0.49108254765480114 -0.8506817887824903 0.18755912567159302
v -0.6787153273671236 -0.5257235521190539 -0.3035443307931423
v -0.11590528845563447 -0.8506330643393576 -0.3035895101720755
v 0.49108739059118817 0.850681163092602 -0.18754907560963613
v 0.30348564389959864 0.5257641977822838 -0.6787083529222846
v 0.49115633367210065 -0.8506140274981675 -0.1876561983033574
v 0.30354665319894386 -0.525664991758021 -0.6787555089466882
v -0.9822480205144788 -0.000015369924231485657 -0.18757235625916915
v -0.6070686272611664 0.00004401405087568106 -0.6787070781975661
v 0.6070395379476675 0.000060707908129644014 -0.794667067715925
v -0.000024246136998516384 0.000027350738321006743 -0.9105897574890853
v -0.30356297563478285 0.5257645076562681 -0.7946164357846056
v -0.3035248484160004 -0.5256890665638834 -0.7946819824946609
#normal vector defs 
vn 0.3568520961925534 -0.00004202294930983908 0.9341608960329331
vn -0.17836811493734583 -0.30906541825354306 0.9341645373345429
vn -0.17841331234349178 0.3089514378310892 0.9341936089701781
vn 0.7557891262851252 -0.30901679473701665 0.5773139675771126
vn 0.7557596198071688 0.30901608651710233 0.5773529729226119
vn -0.11020448400579902 -0.8090574963511854 0.577304892845165
vn -0.6454461116432064 -0.5000651398874101 0.5773509962181157
vn -0.11032555586543383 0.8089504386488876 0.5774317791157283
vn 0.46714022417920686 -0.8090124083366904 0.35676173296903413
vn -0.6455441767785649 0.4999202714772976 0.5773668140734709
vn 0.46705082140050896 0.8090167775575432 0.3568688608712149
vn -0.9341653925658521 -0.000050374622494089914 0.3568403239471192
vn 0.8660454094872472 -0.499965345239804 -0.00004759527201012988
vn 0.8660086619623273 0.5000289965196782 0.00000676338270356309
vn 0.00004424568959595051 -0.9999999969237986 -0.00006476667105353568
vn -0.000037688974516566804 0.9999999955157169 0.00008687984394886157
vn -0.866013460229106 -0.500020686088954 0.000013606711727129995
vn -0.8660406289827284 0.4999736275792376 0.00002600881043769041
vn 0.9341634130301516 0.0000399831358230654 -0.35684550740790827
vn -0.46706876138579384 -0.8090094474925458 -0.35686199854474
vn 0.6455028250195263 -0.499941623707834 -0.5773945581456281
vn -0.46710777207965354 0.8090297407914585 -0.3567649194885729
vn 0.11029554905554723 -0.808968706535288 -0.5774119185686752
vn 0.6454628559809485 0.5000549542556967 -0.5773410987217611
vn 0.11022929107364196 0.8090490585819784 -0.5773119816849611
vn -0.7557607954471148 -0.3089917902707153 -0.5773644374313701
vn -0.7557835390188753 0.3090402282374255 -0.577308738439896
vn 0.17840622696987254 -0.30896147028448456 -0.9341916441812268
vn 0.17836809338686105 0.3090518520904238 -0.9341690296627345
vn -0.35683868487051545 0.00004529562098234854 -0.9341660189324956
#face defs 
f 3//1 11//1 4//1 1//1 
f 7//2 8//2 11//2 3//2 
f 2//3 7//3 3//3 1//3 
f 11//4 13//4 14//4 4//4 
f 4//5 14//5 5//5 1//5 
f 20//6 12//6 11//6 8//6 
f 10//7 20//7 8//7 7//7 
f 6//8 17//8 2//8 1//8 
f 12//9 25//9 13//9 11//9 
f 17//10 9//10 7//10 2//10 
f 5//11 23//11 6//11 1//11 
f 9//12 27//12 10//12 7//12 
f 25//13 15//13 14//13 13//13 
f 14//14 16//14 23//14 5//14 
f 20//15 22//15 25//15 12//15 
f 23//16 18//16 17//16 6//16 
f 27//17 21//17 20//17 10//17 
f 17//18 19//18 27//18 9//18 
f 15//19 29//19 16//19 14//19 
f 21//20 32//20 22//20 20//20 
f 25//21 26//21 29//21 15//21 
f 18//22 31//22 19//22 17//22 
f 32//23 26//23 25//23 22//23 
f 29//24 24//24 23//24 16//24 
f 23//25 24//25 31//25 18//25 
f 27//26 28//26 32//26 21//26 
f 31//27 28//27 27//27 19//27 
f 32//28 30//28 29//28 26//28 
f 29//29 30//29 31//29 24//29 
f 31//30 30//30 32//30 28//30 
