#Produced by polyHédronisme http://levskaya.github.com/polyhedronisme
group dgD
#vertices
v -0.07518022465013169 0.6563909123235743 0.7506580533289355
v 0.04869458035951967 0.26317362065371547 0.9635134437249231
v 0.49063223226562647 0.17384084622958948 0.8538395820878354
v 0.6398606635860188 0.5118513234423625 0.5732076638818233
v 0.29022510208739577 0.8100914448209702 0.5094138704436758
v -0.5308541065935535 -0.3933230671356515 0.7506512300691729
v -0.25222262197088896 -0.08946180740935646 0.9635203242656263
v -0.39579092224094925 0.3379557150354706 0.8538886510084165
v -0.7631876495649222 0.2982189283816596 0.5732333149262975
v -0.846664832907921 -0.15370549152294222 0.5094278338579201
v 0.6060985448045366 -0.2630852582564555 0.7506139921939807
v 0.20363450157330065 -0.17368948407339016 0.9635166157250826
v -0.09477884359636103 -0.5117695982483118 0.853873211058967
v 0.12330750631491755 -0.810067908805775 0.5732115433730441
v 0.5564595214332567 -0.6564170956401717 0.509371826318219
v 0.8961100838176435 0.3933592449743713 0.20553910594810346
v 0.8303433361077328 0.0895470565648858 0.5500045766837072
v 0.864255771799917 -0.33797160420494254 0.372606560465233
v 0.9509872528003711 -0.2982713782192718 -0.08153773603092983
v 0.9706790298095099 0.15369083667097105 -0.18480672530728945
v -0.7887098408670202 0.5793819332200468 0.2055359570460426
v -0.4927185794777524 0.6743221093811228 0.550012450970305
v -0.1394293619121694 0.9174330017764367 0.37266089181485346
v -0.21713939776085167 0.9727289102397021 -0.08153873240946238
v -0.6184320258885913 0.7637934138351882 -0.1848235918945237
v -0.1074451289178267 -0.9727288555588641 0.2055256972168689
v -0.3376362235912695 -0.7638721069981128 0.5499945494101817
v -0.7248094844408449 -0.5794606801695881 0.3726576565211564
v -0.7338459752615938 -0.6744020707030046 -0.08153581378021649
v -0.3522817353340797 -0.9174608903961777 -0.18481823937711497
v 0.21707859018240433 0.9727401617876106 0.08152662543038887
v 0.6183248251403103 0.7638765301207489 0.18481924497974636
v 0.7886553350422492 0.5794691816435663 -0.20551045256375908
v 0.49260079799156004 0.6744160205248451 -0.549993256677037
v 0.13938384144707724 0.9174452024090987 -0.3726261114702622
v 0.7248506939641544 -0.5794433916074933 -0.3725880736989028
v 0.7338872662053337 -0.6743628360972997 0.08147239924972552
v 0.35232472814784815 -0.9174463638412752 0.18480551421042246
v 0.10746197751281066 -0.972733985368097 -0.20551904203949453
v 0.33771880405658417 -0.7638248744754965 -0.550005509799064
v -0.9509555427115188 -0.2983763102625458 0.08153083870798261
v -0.9706993134203309 0.1535467357921574 0.18482610723778392
v -0.8961641733075457 0.3932575064872144 -0.20551348614427473
v -0.8303633724185685 0.08938302880079392 -0.5499938189640496
v -0.8642233231012372 -0.3380147756284775 -0.3726191716449951
v 0.3957798275604428 0.33799644086101555 -0.8538722237301392
v 0.7631150277219748 0.2983644494705479 -0.5732608108999598
v 0.8467145024546168 -0.15362384093746462 -0.5093818133786456
v 0.5309312952039376 -0.39333315948992614 -0.7505975848596884
v 0.2522196509009051 -0.08946977966032733 -0.9635200653025812
v -0.4905956167612289 0.17372706116067504 -0.8538831038213204
v -0.6399446857464436 0.5116775585801951 -0.5732820555195687
v -0.29030438582460777 0.810072436190784 -0.5094143182211395
v 0.07516863220395519 0.6564364273748265 -0.7506200571172782
v -0.048604425389127015 0.26314651001816364 -0.9635252570785133
v 0.0948039299074936 -0.5117228286857249 -0.8538957660705819
v -0.12320271743014953 -0.8100415838533408 -0.573275732840974
v -0.5564075302400856 -0.6564380487382478 -0.5094043022690872
v -0.6060862650170844 -0.26313193715603056 -0.7506026037009925
v -0.20362827658793495 -0.1736864972819257 -0.9635104649786091
#normal vector defs 
vn 0.11155064403370246 -0.8810270833882337 -0.4597257140427197
vn -0.12732080601800663 -0.934148392031203 -0.3334009508391404
vn 0.12196951130675666 -0.9904823639792983 0.06378185445384901
vn 0.4911194337652753 -0.8506513062167818 -0.18760079160216347
vn -0.12195251250900302 -0.9904866208100557 -0.06374824459558597
vn 0.10688666799952277 -0.7215695367235625 -0.6840414050892702
vn 0.5513986567742857 -0.600880431767659 -0.5787073768548533
vn 0.3332730908153164 -0.5773634693810501 -0.7453727062099086
vn -0.35708213005074546 -0.8246824806819145 -0.4386241653793668
vn 0.1273461775138873 -0.9341645297679129 0.3333460400186205
vn 0.5682349507562269 -0.7779169871030109 0.26824280403329065
vn 0.833635244351205 -0.5370721486610733 -0.12886344131709673
vn 0.35717140514802587 -0.8246639807873308 0.4385862584903654
vn 0.7273259079560731 -0.3896421367283682 -0.5649566610826229
vn -0.5681760405622909 -0.7779449837170773 -0.26828639406498855
vn -0.11145347620526894 -0.8810460161656611 0.4597129974673104
vn 0.30380324911117706 -0.3439258848807658 -0.8884923024643906
vn 0.8726785656474119 -0.3568287667975516 -0.3333246949227053
vn 0.7453939990629511 -0.5773268468630196 0.3332889107848393
vn -0.30356289166822986 -0.5256852737096782 -0.7946726142297866
vn 0.8819989410059674 -0.45330392171409045 0.12881545956513807
vn -0.49109968935298953 -0.8506649051549277 0.18759081602028174
vn 0.04953626578857015 -0.26823938277690573 -0.9620778512673436
vn -0.7453615441683517 -0.5773373471737682 -0.3333433005676378
vn -0.10677322303171091 -0.721623345872606 0.6840023578431917
vn 0.7011062953457131 -0.43500811346078105 0.5649937201862529
vn 0.9578188527723057 -0.1030285381093791 -0.26826883085626696
vn -0.7010941803989855 -0.4350379464567606 -0.564985783319686
vn 0.6070473957353677 -0.00003350709994344104 -0.7946656266683377
vn 0.3036009317348018 -0.5256980759988142 0.7946496128111465
vn -0.00001584315446178732 -0.00002823970000084906 -0.9999999994757568
vn -0.8335696873380187 -0.5371720570855807 0.12887108844750036
vn -0.5513061811142503 -0.6008903215318846 0.5787852072699594
vn -0.8819694021956082 -0.4533465861216141 -0.12886755387838916
vn -0.3332617774438028 -0.5773932878055487 0.7453546665125913
vn 0.8927398060947814 0.1031322394484442 -0.43861073835486597
vn -0.44976661114279753 -0.09114868590347737 -0.8884829275564009
vn 0.796074371892067 -0.1769983061723347 0.5787375865008038
vn 0.9822462050946292 0.00007069337039115437 0.18759634212757637
vn 0.2075673683766405 0.1770657478866404 -0.9620621126052833
vn -0.7960491512982939 -0.17711593233975864 -0.5787362916118911
vn -0.2571075053944861 0.09121005962029533 -0.962068841452568
vn -0.6666603268371115 0.000026800502909941265 -0.7453616624855136
vn -0.8726637209668207 -0.3568484041520722 0.3333425363833163
vn -0.7272459907268188 -0.3896612582728584 0.5650463456858918
vn -0.3037353385384734 -0.3439298020612225 0.8885140040410434
vn 0.8726473824173469 0.35685301098967176 -0.33338037510891055
vn -0.04955909446546805 -0.2682661450023792 0.962069213519134
vn 0.6666639546131464 0.00008506390161672435 0.7453584133715091
vn 0.44978384594170745 -0.09104399837290919 0.8884849364452727
vn 0.5714465896831653 0.45339494215989407 -0.6840188751513412
vn 0.14596210169122104 0.4350472555968082 -0.8884981430861671
vn 0.9187452756878353 0.38967148045465855 -0.0637436720118812
vn -0.9822482285890424 -0.000037041737007929 -0.18758575655309806
vn 0.7071888435145878 0.5371633688970403 -0.45971671138178366
vn -0.9577879225979784 -0.10317434464332681 0.26832321914599316
vn -0.6783704560688553 0.26816470453771685 -0.6840330515210012
vn 0.333370230334046 0.5773219907364711 -0.745361394585944
vn 0.8187123718852034 0.3440250228407958 0.4597356150892537
vn 0.000010141460971578143 0.000010857674341889413 0.9999999998896307
vn 0.6783393048525541 0.26838829726423236 0.6839762491371756
vn 0.2571866765207354 0.09122202030324326 0.9620465458760368
vn -0.30348891869324757 0.5257074134294086 -0.7946862221630397
vn -0.6070404169485714 -0.00006898816419574895 0.7946709554473084
vn -0.8187921358240151 0.3438529050677212 -0.4597223270510542
vn 0.7967615326698301 0.600917529141784 0.06379014992737218
vn -0.8927577258917521 0.1029799984978837 0.43861003496268003
vn 0.7452999611487983 0.5774100722481479 0.3333550305274969
vn -0.20748798577725103 0.1770761495871745 0.9620773217395157
vn 0.24464865631479074 0.7779481157635966 -0.5787432627195213
vn 0.4910955188487823 0.8506676311408055 -0.1875893725559519
vn -0.9187888579688533 0.3895610572337639 0.06379041588830245
vn 0.3034848767436005 0.5257648598467723 0.794649760421675
vn -0.026212503650227304 0.8246775728473613 -0.5649954030741946
vn -0.7453662239177105 0.5772993650361276 -0.3333986133317556
vn -0.8726940844666057 0.35675104169646915 0.3333672587184843
vn 0.5355615719430911 0.7216702675690394 0.4385952890361183
vn -0.5356777661265777 0.7215583636195678 -0.4386375026924749
vn -0.14595438151108717 0.43499441409707185 0.8885252828265842
vn -0.7968367805203064 0.6008220834086054 -0.06374926900424745
vn -0.5715511111088026 0.4532547069082811 0.6840244864445872
vn -0.7072884837079301 0.5370201919556203 0.45973069752419826
vn 0.38955005799477943 0.8810551588902715 0.2683142920328739
vn -0.12731415361363127 0.9341666564655381 -0.33335231248281777
vn -0.3333900458700838 0.5773018107720114 0.745368161779198
vn -0.38965471714523264 0.881016800070069 -0.2682882766741118
vn 0.048369951552886654 0.9904811191842847 -0.12887009089085955
vn -0.49116817610509866 0.8506242625274202 0.1875958069394771
vn 0.02617724730716664 0.8246450719850268 0.5650444734480898
vn 0.1272898834892205 0.934174713208338 0.33333900276358347
vn -0.2447314418120242 0.7778819283260503 0.5787972243993171
vn -0.048420838230392615 0.990478786789674 0.1288689075949734
#face defs 
f 57//1 40//1 39//1 
f 57//2 39//2 30//2 
f 39//3 38//3 26//3 
f 37//4 38//4 39//4 40//4 36//4 
f 30//5 39//5 26//5 
f 57//6 56//6 40//6 
f 40//7 49//7 36//7 
f 56//8 49//8 40//8 
f 58//9 57//9 30//9 
f 26//10 38//10 14//10 
f 38//11 37//11 15//11 
f 37//12 36//12 19//12 
f 38//13 15//13 14//13 
f 49//14 48//14 36//14 
f 58//15 30//15 29//15 
f 27//16 26//16 14//16 
f 56//17 50//17 49//17 
f 36//18 48//18 19//18 
f 37//19 18//19 15//19 
f 57//20 58//20 59//20 60//20 56//20 
f 37//21 19//21 18//21 
f 27//22 28//22 29//22 30//22 26//22 
f 56//23 60//23 50//23 
f 45//24 58//24 29//24 
f 27//25 14//25 13//25 
f 15//26 18//26 11//26 
f 48//27 20//27 19//27 
f 59//28 58//28 45//28 
f 47//29 48//29 49//29 50//29 46//29 
f 12//30 13//30 14//30 15//30 11//30 
f 60//31 55//31 50//31 
f 41//32 29//32 28//32 
f 28//33 27//33 6//33 
f 41//34 45//34 29//34 
f 27//35 13//35 6//35 
f 48//36 47//36 20//36 
f 60//37 59//37 51//37 
f 18//38 17//38 11//38 
f 17//39 18//39 19//39 20//39 16//39 
f 50//40 55//40 46//40 
f 59//41 45//41 44//41 
f 55//42 60//42 51//42 
f 51//43 59//43 44//43 
f 41//44 28//44 10//44 
f 10//45 28//45 6//45 
f 13//46 7//46 6//46 
f 47//47 33//47 20//47 
f 13//48 12//48 7//48 
f 11//49 17//49 3//49 
f 12//50 11//50 3//50 
f 47//51 46//51 34//51 
f 55//52 54//52 46//52 
f 20//53 33//53 16//53 
f 42//54 43//54 44//54 45//54 41//54 
f 47//55 34//55 33//55 
f 42//56 41//56 10//56 
f 52//57 51//57 44//57 
f 46//58 54//58 34//58 
f 17//59 16//59 4//59 
f 7//60 12//60 2//60 
f 17//61 4//61 3//61 
f 12//62 3//62 2//62 
f 52//63 53//63 54//63 55//63 51//63 
f 7//64 8//64 9//64 10//64 6//64 
f 52//65 44//65 43//65 
f 33//66 32//66 16//66 
f 42//67 10//67 9//67 
f 16//68 32//68 4//68 
f 8//69 7//69 2//69 
f 54//70 35//70 34//70 
f 32//71 33//71 34//71 35//71 31//71 
f 43//72 42//72 21//72 
f 2//73 3//73 4//73 5//73 1//73 
f 54//74 53//74 35//74 
f 52//75 43//75 25//75 
f 21//76 42//76 9//76 
f 32//77 5//77 4//77 
f 53//78 52//78 25//78 
f 8//79 2//79 1//79 
f 25//80 43//80 21//80 
f 22//81 9//81 8//81 
f 22//82 21//82 9//82 
f 32//83 31//83 5//83 
f 35//84 53//84 24//84 
f 22//85 8//85 1//85 
f 53//86 25//86 24//86 
f 31//87 35//87 24//87 
f 22//88 23//88 24//88 25//88 21//88 
f 5//89 23//89 1//89 
f 31//90 23//90 5//90 
f 23//91 22//91 1//91 
f 31//92 24//92 23//92 
