#Produced by polyHédronisme http://levskaya.github.com/polyhedronisme
group dgC
#vertices
v -0.462259154950814 -0.25141184409363815 0.8503534688542829
v 0.25143638974607374 -0.46225804688193906 0.8503467461142012
v 0.4622839876466299 0.2514462887626011 0.8503291829318826
v -0.2514076806905238 0.4622915928331895 0.8503359706108354
v 0.8502763011557122 0.4624479673759894 0.2513379778570788
v 0.8503778183226496 -0.2512227834559313 0.4623235002437496
v 0.8503943293963265 -0.4622159193984617 -0.25136689851034955
v 0.8502931107606019 0.2514564250657751 -0.4623518274580236
v -0.46242625885244604 0.8502811665791608 0.25135792046478445
v 0.2512428914014856 0.8503796840816278 0.46230419193253974
v 0.4622027934140838 0.8503940790970655 -0.2513877221937956
v -0.251470877430776 0.8502958634990256 -0.4623366233064205
v -0.8502681985724786 -0.46243942205327876 0.2513822801078521
v -0.8503608439087749 0.25124388862560454 0.4623425520138331
v -0.8504023633621707 0.46221048535704423 -0.25135092523012537
v -0.8503099525127163 -0.2514748417677163 -0.46231015010258697
v 0.4624411650458848 -0.8502704168450589 0.25136920526663376
v -0.2512246626224583 -0.8503650469255717 0.46234273623309896
v -0.4622076115533245 -0.8504047340837437 -0.2513412197307691
v 0.25145655306713227 -0.850310544879113 -0.4623152619983812
v -0.4623597168950939 0.2512814414282164 -0.8503374487405374
v 0.25127890514640966 0.46232514494869204 -0.8503566551875503
v 0.4623247229125177 -0.2513184076326982 -0.8503450287958909
v -0.25131159997660335 -0.4623620098977039 -0.8503259001550635
#normal vector defs 
vn 0.1707885465954794 -0.7984183304351556 0.577372879495515
vn 0.57743544379476 -0.5772571944458881 0.5773581554893034
vn -0.17056124899959557 -0.5773600370652799 0.7984762037403975
vn 0.7985464629501764 -0.5772309570181074 0.17066917931988376
vn 0.5773781468260825 -0.17055349908502176 0.7984647641051759
vn 0.00013685838874385062 -0.9999999905154036 0.000015458791592793142
vn 0.5774444947097457 -0.7983932846382285 -0.17066346584429676
vn -0.5772535831433095 -0.5774214319375269 0.5773757794430127
vn 0.000015379464811966876 0.0000200194508271801 0.9999999996813467
vn -0.5772274788237165 -0.7985450860949579 0.170687384315339
vn 0.7984357425625738 0.170796925713446 0.5773463216868945
vn 0.9999999904729152 0.0001369675011361079 -0.00001714855549980325
vn 0.5774108401439744 -0.5772842926434267 -0.5773556678092007
vn -0.7984194601545489 -0.17077236863296003 0.5773761025172474
vn -0.17056918977512225 -0.7984870295650003 -0.5773427189425019
vn -0.5773508041326557 0.17058799757054893 0.7984771656423534
vn -0.7983866406946809 -0.5774583594970459 -0.17064763405111444
vn 0.1705856581040193 0.5773908214349426 0.7984487288310381
vn 0.5772736583580889 0.5774416243607304 0.5773355123509288
vn 0.7984635450503731 -0.17057709190047762 -0.5773728630134661
vn 0.17071589335349405 -0.5773420016793909 -0.7984561959515076
vn -0.5772791463225103 -0.5774354955004165 -0.5773361549022735
vn -0.5774143006124671 0.5772801055944192 0.577356393515402
vn -0.999999990705971 -0.00013508965765264406 0.00001840767410284602
vn 0.7983837822190427 0.577448309092924 -0.1706950105168247
vn -0.17076355128779522 0.7984395753991368 0.5773508932945601
vn 0.5772339401585728 0.7985504458536661 0.17064045169865338
vn 0.5773046046027918 0.1707132902028737 -0.7984837919785996
vn -0.577333807631664 -0.17074974026891412 -0.7984548833613727
vn -0.000020283249208690266 -0.00002223548137315098 -0.9999999995470866
vn -0.7985356601204588 0.5772431286465356 0.17067855737128312
vn 0.5772567210668725 0.5774130472411942 -0.5773810274496051
vn -0.7984878351057111 0.17055504108752612 -0.5773457847320158
vn -0.0001322972688903638 0.9999999910734231 -0.00001872394438844923
vn -0.5774479717795821 0.798390039331729 -0.17066688308962363
vn 0.17055307019635058 0.7984635817038476 -0.5773799086730174
vn -0.5774306604126652 0.5772628626458347 -0.5773572722546492
vn -0.17074882433441588 0.5773099024688738 -0.7984723636418447
#face defs 
f 18//1 17//1 2//1 
f 17//2 6//2 2//2 
f 18//3 2//3 1//3 
f 17//4 7//4 6//4 
f 6//5 3//5 2//5 
f 18//6 19//6 20//6 17//6 
f 17//7 20//7 7//7 
f 13//8 18//8 1//8 
f 2//9 3//9 4//9 1//9 
f 19//10 18//10 13//10 
f 6//11 5//11 3//11 
f 6//12 7//12 8//12 5//12 
f 20//13 23//13 7//13 
f 14//14 13//14 1//14 
f 24//15 20//15 19//15 
f 4//16 14//16 1//16 
f 16//17 19//17 13//17 
f 10//18 4//18 3//18 
f 5//19 10//19 3//19 
f 23//20 8//20 7//20 
f 24//21 23//21 20//21 
f 24//22 19//22 16//22 
f 9//23 14//23 4//23 
f 14//24 15//24 16//24 13//24 
f 8//25 11//25 5//25 
f 10//26 9//26 4//26 
f 11//27 10//27 5//27 
f 23//28 22//28 8//28 
f 21//29 24//29 16//29 
f 22//30 23//30 24//30 21//30 
f 15//31 14//31 9//31 
f 22//32 11//32 8//32 
f 21//33 16//33 15//33 
f 10//34 11//34 12//34 9//34 
f 12//35 15//35 9//35 
f 22//36 12//36 11//36 
f 21//37 15//37 12//37 
f 22//38 21//38 12//38 
