#Produced by polyHédronisme http://levskaya.github.com/polyhedronisme
group dkdI
#vertices
v 0.10608344582503737 0.32708705100840724 0.939006176449029
v -0.2781253527807644 0.2015556548800196 0.9391516546740925
v -0.2775151315779859 -0.2027526399164547 0.9390725277919787
v 0.10722058207870513 -0.32712151803735734 0.9388677076224035
v 0.34434297714384865 0.00023668610924687587 0.9388298176726024
v 0.6862321071500799 0.000857461936218527 0.7273710825832864
v 0.7929588550641896 -0.326270537616304 0.5145426884826615
v 0.9646060504961788 -0.20097296930535938 0.17068228657062784
v 0.9640852887548447 0.20340222466534166 0.17078054854962751
v 0.7919780825846138 0.32802231683435873 0.5149357387547852
v 0.5550969344208792 0.6531371362280473 0.5150423568004262
v 0.48910421106347746 0.8552741900042942 0.17112020755136975
v 0.10431491163096235 0.9796974627484929 0.1711672364507566
v -0.06745571514025438 0.8544044216932049 0.5151953472891154
v 0.21124304173613065 0.652571136154419 0.7276745994975774
v -0.44958702027041914 0.7296166719504422 0.5152902851475243
v -0.6623302476807849 0.7293481636703651 0.1713659323805768
v -0.8995001599384719 0.4019024817143969 0.17136787582331756
v -0.8333218928397513 0.1996562824447461 0.515463000868825
v -0.555318919354902 0.4022190494195994 0.7278877140442436
v -0.832720699933876 -0.2023352694607281 0.5153906873727593
v -0.8982695226372168 -0.40463837700779426 0.17140492569819799
v -0.6601731022853546 -0.731332866304845 0.17122471380150994
v -0.44730342581253546 -0.7310922836952459 0.5151784776654845
v -0.5539627228624455 -0.4041522537021093 0.7278479626788207
v -0.06482304343022526 -0.8547636934352975 0.5149455901470223
v 0.10721624347894693 -0.9794748467001577 0.17067800326048968
v 0.49150381981491 -0.8540202365341804 0.17047024005809078
v 0.5571588443634788 -0.6517135590207487 0.5146107350238052
v 0.21326394026924403 -0.6522590155431612 0.7273643295094577
v 0.8328340306180549 0.20225085459779824 -0.5152460211219474
v 0.5542230540080656 0.40420264723498556 -0.7276312257712929
v 0.4475494625536661 0.7311147501051802 -0.5149385490071736
v 0.6602317055476746 0.7313408939145659 -0.17093932217869684
v 0.8984178996495618 0.4044359429586344 -0.1710788352408348
v 0.662207316764824 -0.7294050737113498 -0.17158395258477113
v 0.4493331373540888 -0.729567542408292 -0.5155779202599635
v 0.5551153084139883 -0.40221252473571445 -0.7280434205483359
v 0.8333242111760301 -0.19975028503961392 -0.5154209292820975
v 0.8993836067847614 -0.40206597946472755 -0.17158403324215146
v 0.06499726490991321 0.8548295629879513 -0.5148067714329883
v -0.2131008020046644 0.6522470869246878 -0.7274261890005808
v -0.5570396888507815 0.6517396915333067 -0.5147080980869426
v -0.4915589445984325 0.8539309197996215 -0.17075081547582033
v -0.10709071537303227 0.9794656014785561 -0.17079278472645176
v -0.792904236678705 0.3260991571066424 -0.5147330316963991
v -0.6862190357253486 -0.0007238998850125023 -0.7273828708852776
v -0.7919958511748296 -0.3282450773018638 -0.5147662326614356
v -0.9640615852945574 -0.20356248655506679 -0.17068552467823517
v -0.9646559591151682 0.20081046347862577 -0.17061438890001626
v -0.555315151650609 -0.6529887232595777 -0.5149982150914398
v -0.2114043797400774 -0.6524162813531511 -0.7277639354417464
v 0.06730590390487298 -0.8542741376198686 -0.5154329726127979
v -0.1044381967604237 -0.9796804256856201 -0.1712051670298031
v -0.4890906425720446 -0.8553087553870529 -0.1709680369773364
v 0.278122728050252 -0.2014300504619235 -0.9391809586967004
v -0.10630748025713029 -0.3269062702772962 -0.9390474318535659
v -0.34439605745680907 -0.00022047924793321474 -0.9388098977804491
v -0.1070931635169701 0.32735857754243675 -0.93879765083066
v 0.2776216138541643 0.20284102295086978 -0.9390210274625315
#normal vector defs 
vn 0.3047128070782196 -0.9336846338842002 -0.18810398627099464
vn -0.30208952188112237 -0.9346383884237134 0.18759798414257722
vn 0.2778431124213463 -0.8503468559661587 0.44689308500858255
vn -0.27539217158972396 -0.8508799609674639 -0.447395176383366
vn 0.7954991006661986 -0.5763627233879625 0.1870486351943809
vn 0.18796315421760962 -0.5767280141490404 -0.7950186478015916
vn 0.7240427014057045 -0.5246215676836841 -0.44781064889330546
vn -0.18632175458315337 -0.5777164121406401 0.7946873290246933
vn -0.7938890737208334 -0.5784786807330846 -0.1873567574548278
vn -0.7225677869424394 -0.5268650198346113 0.44755898398734023
vn 0.49198248520683646 -0.3562879643805464 0.7943627135555088
vn -0.490956413885325 -0.357240632308525 -0.7945696510015133
vn 0.9821828232180707 0.0012941494902796785 -0.18792346035680735
vn 0.8945587059289407 0.0010644153317794056 0.4469492014387545
vn 0.6067238035623974 0.0010771341628564067 -0.7949119863058881
vn -0.0004673007465951184 0.0003850292441125177 -0.9999998166912298
vn 0.00045449649878865776 -0.0002064903225708281 0.9999998753973318
vn -0.6066532283836871 -0.001059886676094179 0.7949658716774476
vn -0.8945719424557041 -0.001223922663044622 -0.44692229949326
vn -0.9821643854317693 -0.0014899070817954174 0.1880183506105781
vn 0.4908040845528247 0.35734355212891994 0.7946174779968974
vn -0.49187000833827366 0.3563375669228982 -0.7944101165624563
vn 0.722798728704627 0.5268288753114156 -0.44722850302846756
vn 0.7939053164339948 0.5783750462791392 0.18760771407232277
vn 0.1865728278516504 0.577818564668519 -0.7945541430461809
vn -0.7242270927843483 0.5245504372316053 0.4475957516300422
vn -0.18818804646080758 0.5768948785252264 0.79484436105481
vn -0.7955463502350215 0.5762260396074986 -0.1872686730502305
vn 0.2752210712466535 0.8509668587227681 0.4473351845063709
vn -0.27769995902153455 0.8503422784964677 -0.4469907629480431
vn 0.30219205182894665 0.9346347783327073 -0.18745078005274474
vn -0.30485069244277674 0.9336933393718698 0.1878371723854626
#face defs 
f 54//1 53//1 37//1 36//1 28//1 27//1 
f 55//2 54//2 27//2 26//2 24//2 23//2 
f 27//3 28//3 29//3 30//3 26//3 
f 52//4 53//4 54//4 55//4 51//4 
f 29//5 28//5 36//5 40//5 8//5 7//5 
f 53//6 52//6 57//6 56//6 38//6 37//6 
f 37//7 38//7 39//7 40//7 36//7 
f 25//8 24//8 26//8 30//8 4//8 3//8 
f 49//9 48//9 51//9 55//9 23//9 22//9 
f 22//10 23//10 24//10 25//10 21//10 
f 30//11 29//11 7//11 6//11 5//11 4//11 
f 58//12 57//12 52//12 51//12 48//12 47//12 
f 40//13 39//13 31//13 35//13 9//13 8//13 
f 7//14 8//14 9//14 10//14 6//14 
f 39//15 38//15 56//15 60//15 32//15 31//15 
f 57//16 58//16 59//16 60//16 56//16 
f 2//17 3//17 4//17 5//17 1//17 
f 20//18 19//18 21//18 25//18 3//18 2//18 
f 47//19 48//19 49//19 50//19 46//19 
f 50//20 49//20 22//20 21//20 19//20 18//20 
f 5//21 6//21 10//21 11//21 15//21 1//21 
f 59//22 58//22 47//22 46//22 43//22 42//22 
f 32//23 33//23 34//23 35//23 31//23 
f 35//24 34//24 12//24 11//24 10//24 9//24 
f 60//25 59//25 42//25 41//25 33//25 32//25 
f 17//26 18//26 19//26 20//26 16//26 
f 15//27 14//27 16//27 20//27 2//27 1//27 
f 44//28 43//28 46//28 50//28 18//28 17//28 
f 12//29 13//29 14//29 15//29 11//29 
f 42//30 43//30 44//30 45//30 41//30 
f 34//31 33//31 41//31 45//31 13//31 12//31 
f 45//32 44//32 17//32 16//32 14//32 13//32 
