<svg version="1" xmlns="http://www.w3.org/2000/svg" width="714.667" height="714.667" viewBox="0 0 536.000000 536.000000"><path d="M0 268v268h536V0H0v268zM330.1 34c28.4 6.4 31.7 7.4 37.8 11 3.7 2.2 6.8 4.7 6.8 5.5 0 .8-.2 1.5-.4 1.5s-3.3-2.2-6.9-4.9l-6.4-4.9-10.3.5c-5.6.3-10.3.6-10.4.7-.5.4 47.5 20 49.2 20 1.1.1 3.1.9 4.6 1.9 2.7 1.8 15 6.3 13.4 4.9-.8-.7-26.1-16-29.7-17.9-.5-.2-.8-.2-.8.1 0 .2 3 2.5 6.6 5.1 3.6 2.6 6.3 4.9 6.1 5.2-.9.8-14.4-9.7-14.4-11.2 0-.8.3-1.5.6-1.5s9.5 5.4 20.4 11.9l19.8 11.9 15.2 17.3c8.4 9.6 17.6 20.6 20.5 24.6 5.8 7.9 31.9 60.4 45.6 91.6l8.3 19.2 2.7 31.5 2.7 31.5-7.2 31-7.1 31-11.1 18.5c-19 31.9-20.3 33.5-51.1 63-15.2 14.6-28.3 26.5-29.1 26.5-.7 0-1.7.4-2.2.9-.4.5-.3.6.5.2 3-1.7.4.8-11 11.1-9.4 8.3-13.9 11.6-19 13.7-3.7 1.6-7.2 2.5-7.9 2.1-.7-.5-1-.4-.6.2.4.6-9 5.1-22.1 10.6l-22.7 9.6-31.7 2.8-31.7 2.7-30.3-7.3-30.3-7.4-29.3-15.5c-16.1-8.5-29-15.7-28.8-15.9.3-.3 12.8 6 27.8 14 15 7.9 27.5 14.3 27.7 14.1.2-.2-.2-1.6-.8-3.1-.7-1.7-3.1-3.9-6.2-5.7-2.8-1.5-4.8-3-4.5-3.3.3-.3 2.1.5 4 1.7 3.7 2.2 4.8 1.4 1.9-1.5-1.1-1.1-2.7-1.5-4.7-1.2-2.4.3-6-1.1-16.6-6.8-13.4-7.2-17.2-8.4-28.6-9-2-.1-9.7-4.2-21.8-11.6l-18.8-11.4-21.2-24.2-21.2-24.2-12.6-29.3-12.7-29.3-2.5-31.6-2.5-31.5 6-34.5c7.9-45.9 14.6-74 19.6-82.5 2-3.5 4.1-6 4.6-5.7.6.3.7.1.4-.4-.9-1.5 10.3-20.4 11.6-19.6.6.3.7.1.3-.5-.4-.6 2.1-5.9 5.5-11.7 6.3-10.7 14.9-20.2 17.1-18.9.6.4.8.3.5-.3-.4-.6 7.7-8.5 18.1-17.6l18.7-16.4 24-10.1c13.2-5.5 26.5-11 29.5-12.1 7.9-2.9 93.9-14.8 115.7-16 1.3 0 16.3 3.1 33.4 6.9z"/><path d="M295.5 29.1c-1.6.5-3.6.7-4.3.4-.7-.2-7.2.1-14.5.7l-13.2 1.3 8 .7c5.9.6 9.2.4 12.9-.7 6-1.8 8.4-1.8 3.6-.1l-3.5 1.3 6.5.6c3.6.4 10.3.9 15 1.1 8.4.5 8.4.5 5-1-9.3-4.2-12.5-5.1-15.5-4.3zM318.5 33.9c2.8 1 7.7 2.1 11 2.4 5.6.6 5.3.4-3.5-1.8-11.2-2.8-14.6-3.1-7.5-.6zM218.8 37.4c-15.8 2.3-29 4.5-29.4 4.8-.3.4.4 1.2 1.7 1.8 2.6 1.4 7.5 1.1 31.4-2.2 13.6-1.8 17-2.6 22.5-5.4 3.6-1.8 5.6-3.3 4.5-3.2-1.1 0-14.9 1.9-30.7 4.2zM249 36.2c-3 1.6-4.8 2.7-3.9 2.5.8-.3 4.6-.8 8.2-1.2 5.6-.6 6.5-1 5.6-2.1-1.3-1.6.2-1.9 1.7-.4.7.7 3.6.8 7.8.4 9.4-1 6.3-2.4-4.9-2.3-7.9.1-9.7.5-14.5 3.1zM279 34.4c.3.3 8.4 1.5 17.8 2.7 14.8 1.9 17.7 2 20 .8 2.5-1.2 1.9-1.4-7.3-2-25.7-1.8-31-2-30.5-1.5zM267.9 36.4c-.2.3-6.5 1.2-13.9 2.2-11.4 1.4-14.4 2.2-19 4.8l-5.4 3 10.9 2.3c6.1 1.2 11.8 2.3 12.7 2.5.9.2 4.2-1.9 7.3-4.6 5.4-4.6 5.5-4.9 3.9-6.7-2-2.3-.8-2.6 1.6-.4 1.5 1.3 1.9 1.2 4-1 2.2-2.4 2.3-2.5.3-2.5-1.1 0-2.2.2-2.4.4zM271.6 38.9l-2.8 2.9 6.9 5.4c3.7 3 7.3 5.7 8 6.1 1.1.7 12.3-4.1 12.3-5.3 0-.5-18.7-11.3-20.5-11.8-.6-.1-2.3 1.1-3.9 2.7zM287.8 41.5c5.1 3 9.8 5.5 10.5 5.5 2-.1 14.3-6.9 12.6-7-.9 0-8.4-.9-16.5-2-8.2-1.1-15.1-2-15.4-2-.3 0 3.7 2.5 8.8 5.5zM319 38.6l-2.5 1.3 2.5.1c1.4 0 3.6.3 4.9.7 1.7.4 2.2.3 1.7-.5-1.5-2.4-4.1-3-6.6-1.6zM330.4 39.5c4.8 2 7.6 2.5 14.4 2.5 4.7 0 8.3-.2 8.1-.5-.3-.2-5.2-1.1-11-2-5.7-.8-12-1.7-13.9-2-2.9-.4-2.4-.1 2.4 2zM337.8 37.7c.7.3 1.6.2 1.9-.1.4-.3-.2-.6-1.3-.5-1.1 0-1.4.3-.6.6zM226 42.4c-7.3 1.2-7.4 1.6-1 2.9 1.6.4 4.2-.3 7-1.8 5-2.7 4.7-2.7-6-1.1zM306.5 44.6l-6.9 3.6 4.2 2.5c2.4 1.4 4.1 2.8 3.8 3-.2.3-2.5-.7-5-2.2l-4.5-2.7-5.3 2.5-5.3 2.5 5 .3c19.5 1 19.3 1 29.3-4 8.8-4.4 9.2-4.8 7.5-6.3-1.1-1-4.4-1.9-8.8-2.2-6.6-.6-7.4-.4-14 3zM183.9 44.1c-1.3 1-3.1 1.6-3.9 1.4-.8-.3-2.2 0-2.9.5-1 .5 1.3.7 5.9.4 4.1-.3 7.6-.7 7.8-.8.1-.2-.8-1-2.1-1.9-2.1-1.4-2.5-1.3-4.8.4zM262 47l-5.4 4.8 11.7.7c6.5.4 11.9.6 12.1.4.2-.2-2.6-2.7-6.3-5.5l-6.7-5.2L262 47zM331.4 43.8c.4.6 1.4.9 2.4.6 1.2-.4 1.3-.3.5.3-.9.6 1.9 4 9.6 11.7l10.8 10.8 27.4 10.9c15 5.9 27.5 10.7 27.7 10.5.2-.3-2-3.6-4.8-7.6-2.9-3.9-5-7.3-4.8-7.6.3-.2 3.1 3.4 6.3 8 6.8 10 8.5 11.2 8.5 5.8 0-3.3-.7-4.2-6.6-9.1-3.7-2.9-7.2-5.4-7.9-5.5-.8-.1-2.2-1.2-3.2-2.4-1.1-1.4-12.6-6.8-30.3-14.1-27.1-11.4-37.2-14.8-35.6-12.3zM211.4 49.2c-1.4 2.7-2.3 5.2-2.1 5.5.3.2 4-1.4 8.3-3.5 4.8-2.4 7.3-4.2 6.4-4.5-.8-.3-3.4-1-5.8-1.5l-4.3-1-2.5 5zM202 45.4c-.3.2-3.9.7-8 1-14.4 1.2-16 1.7-22.5 6.2-4.6 3.2-6.7 5.5-7.9 8.4-2.1 5.3-2.1 5.3 1.5 4.5 2.7-.6 31.6-13.9 32.8-15.1.2-.2-.4-1.1-1.5-1.9-2.3-1.7-1.2-2 1.5-.3 1.4.9 2.8.8 6.1-.6 2.3-.9 4.4-1.5 4.6-1.3.2.2-7.1 3.9-16.1 8.2-9.1 4.3-16.4 8-16.2 8.2.5.5 29.1-5.9 30.1-6.8.4-.4-.6-1.5-2.4-2.4-1.7-.9-2.9-1.9-2.6-2.2.3-.3 1.7.2 3 1.1 1.4.9 2.8 1.6 3 1.6.5 0 4.6-7.4 4.6-8.2 0-.5-9.6-.9-10-.4z"/><path d="M322.3 50.8c-5.1 2.6-9.3 5.1-9.3 5.7 0 .6-.9 1.1-2 1.2-1.1.1-1.8-.2-1.5-.8.4-.5-2.2-.9-6.2-.8-5.9.1-6.4.2-3.3 1 1.9.4 5.8 1 8.6 1.2 2.9.3 5.6.7 6.2 1.1.6.3 8.2 2 16.9 3.6s17.2 3.2 18.8 3.6c2.7.5 2.1-.3-5.5-8.1-13.4-13.6-11.8-13.1-22.7-7.7zM220.7 50.9c-3.7 2.1-6.9 4-7.2 4.3-1.1 1.1 32.1-.5 35.4-1.7 3.4-1.1 3.3-1.2-7.5-3.4-6-1.2-11.6-2.4-12.4-2.6-.8-.2-4.5 1.3-8.3 3.4zM168 51.1c-1.6 3-1 3 3 .3l3.4-2.4h-2.6c-1.7 0-3.1.8-3.8 2.1zM152.2 59.8c-12.5 8.1-13.1 8.7-10.6 9.4 1.6.4 3.3.3 4-.3.6-.5 1.8-.7 2.5-.4.8.2 3.8-.1 6.7-.8 4.9-1.1 5.5-1.6 7.2-5.5 1.1-2.5 1.4-4 .7-3.5-.7.4-4 2.7-7.5 5.1-3.5 2.4-6.5 4.2-6.8 4-.2-.3 3.6-3.2 8.5-6.6 4.9-3.4 9.1-7.1 9.4-8.2.3-1.1.2-2-.1-1.9-.4 0-6.7 4-14 8.7zM251 53.9c-1.5.5 2.5.9 9.9.9 6.8.1 12.2-.1 11.9-.3-.9-.9-19.2-1.3-21.8-.6zM143.7 59.8l-13.8 5.6 3.7 1.3c3.6 1.3 3.8 1.2 14-5.3 8.8-5.6 11.5-7.6 10.2-7.4-.2.1-6.5 2.6-14.1 5.8zM269.7 55.9l-8.8.6 12.9 10.7 12.9 10.6 4.1-4.1 4.1-4.2-5.5-7.3c-4.6-6.1-5.9-7.2-8.2-7-1.5.1-6.7.4-11.5.7zM292.8 55.7c.6.2 1.8.2 2.5 0 .6-.3.1-.5-1.3-.5-1.4 0-1.9.2-1.2.5zM218 56.7c-4.6.2-9 .9-9.8 1.5-1.5 1.3-5.5 8.8-4.7 8.8 1.1 0 33.9-10 34.3-10.5.5-.5-2.4-.4-19.8.2zM224.2 62c-10.6 3.2-19.9 6-20.5 6.3-1 .4-1 4.1-.2 16.5.6 8.9 1.3 16.3 1.6 16.6.2.3 11.4 1.6 24.8 3.1l24.4 2.6 3.6-3.4c2-1.8 8.9-8.2 15.4-14.2 6.5-5.9 11.6-11.1 11.5-11.5-.2-.4-6.1-5.5-13.2-11.4l-13-10.6-7.5.1c-6.3 0-11 1-26.9 5.9zM290.3 61.8c2.6 3.4 5.1 6.3 5.6 6.6.4.3 2.9-1.6 5.5-4.3l4.7-4.8-6.8-1.1c-3.7-.6-8.3-1.5-10.2-1.8l-3.5-.7 4.7 6.1zM185.3 62c-9.4 2.1-18.1 4.3-19.2 5-1.2.6-2.7.8-3.4.4-.9-.5-.9-.4-.1.5.9 1 5.2 1.1 17.7.5l16.6-.7 4.7-4.8c5.9-6 6.3-5.9-16.3-.9zM302.1 65l-5.4 4.9 4.3 5.8c2.4 3.2 4.8 6.1 5.2 6.4.5.3 6.3 1.8 12.8 3.4 11 2.5 15 2.8 15 .8 0-.7-16.8-22.5-18.8-24.5-.4-.3-2.3-.9-4.2-1.2-3.2-.5-4-.1-8.9 4.4zM318.2 63.7c.8 1 5 6.2 9.2 11.6l7.7 9.8 3.2-2.7c1.8-1.5 6-5.2 9.4-8.4l6.2-5.6-17.2-3.2c-20.5-3.8-20.5-3.8-18.5-1.5zM201 65.5c-1.8 1.9-2 2.5-.8 2.5.8 0 2-1.1 2.6-2.5.6-1.4 1-2.5.9-2.5-.2 0-1.4 1.1-2.7 2.5zM125 70.7c-1.4 2.1-3.3 5-4.3 6.4-1.3 2-1.5 2.9-.6 3.5.7.4.9.3.5-.4-.3-.6 2.5-3 6.9-5.8 4.1-2.6 7.5-5.1 7.5-5.5 0-.7-3.6-1.9-6-1.9-.8 0-2.6 1.7-4 3.7z"/><path d="M151.4 69.5c-2.8.7-5.7 1.6-6.3 2-.7.3-1.7.2-2.4-.3-2.7-2.2-5.5-1.5-12.9 3.2-4.3 2.7-7.6 5.1-7.4 5.3.8.8 17.4-4.8 18.7-6.3 1-1.2 1.4-1.2 2.1-.2.5.8 1.1.9 1.6.3.4-.6 1.2-1 1.7-1 2.4-.1 11.6-2.8 12.1-3.6.7-1.1-.7-1-7.2.6zM170.8 69.7l-10.7.4-.3 12.2c-.2 6.7 0 12.6.5 13.1 1 1.4.9 2.8-.3 2.1-.5-.3-1-.1-1 .4 0 1.8 1.5 1.2 6.3-2.4 4.7-3.6 6.3-4.4 5.1-2.3-.4.7-.3.8.5.4.6-.4.9-1.1.6-1.6-.3-.5 2.1-2.9 5.2-5.3 3.2-2.5 8.7-7.5 12.3-11.1l6.4-6.6-6.9.2c-3.9.1-11.8.4-17.7.5z"/><path d="M194.7 71.8c-1.5 1.6-2.5 3.1-2.2 3.4.3.3-1.3 2-3.7 3.8-2.4 1.9-7 6-10.4 9.2-3.3 3.3-6.8 6-7.6 6.2-1.2.1-9.8 5.4-9.8 6 0 .1 2.6.2 5.8.3 3.1.1 12.8.5 21.6.9 15.1.6 15.8.5 15.3-1.2-.3-1.1-.8-7.5-1.2-14.4-.9-16.8-.8-16.7-5-13.6-4.6 3.6-5.8 3.2-1.5-.4 1.9-1.7 3-3 2.4-3-.6 0-2.2 1.3-3.7 2.8zM170 95.3c0 .2-1.2 1.4-2.7 2.8l-2.8 2.4 2.4-2.8c2.3-2.5 3.1-3.2 3.1-2.4zM344.6 78.6c-5.8 5.3-10.6 9.8-10.6 9.9 0 .2.7.5 1.4.8 1.1.4 1.3.1.9-1.1-.5-1.3-.1-1.2 1.8.5 2.2 2 42.8 19.7 43.5 19 .2-.2-5.7-9-13.1-19.6l-13.4-19.2-10.5 9.7zM109.6 82.5c-7.6 6.8-14.3 12.9-15 13.6-1 1.1 5-2.9 17.1-11.4 2.3-1.6 6-5.6 8.3-8.8 2.3-3.3 4-5.9 3.8-5.8-.2 0-6.5 5.6-14.2 12.4zM371 89.8c12 17.2 14.4 20.1 17.8 21.4 6.1 2.4 10.5.1 18.6-9.6 4.8-5.8 6.3-8.3 5.5-9.2-.9-1.1-53.4-22.4-55.2-22.4-.3 0 5.6 8.9 13.3 19.8zM401.8 71.2c.6.8 3.9 3.6 7.2 6.2l6 4.7v-3.9c0-3.8 0-3.8-5.7-5.6-3.2-1-6.5-2.1-7.3-2.4-1.2-.5-1.3-.3-.2 1zM151.5 72.5c-2.2.7-3.9 1.7-3.8 2.3.2.6 2.4 4.6 5 8.8l4.8 7.8.7-5.5c.3-3 .6-7.5.7-10.2.1-5.3-.3-5.5-7.4-3.2zM291.8 74.5l-3.7 3.4 3.7 1c9.3 2.5 12.2 2.9 11.4 1.7-1.8-3.1-6.7-9.6-7.2-9.6-.3.1-2.2 1.6-4.2 3.5zM142.8 75.3c-2.5 1.1-38.4 42.5-37.5 43.3.5.5 50-14.7 51.5-15.9 2.9-2.3 1.3-8.2-4.7-18.2-3.3-5.3-6.1-9.8-6.3-10-.2-.2-1.5.2-3 .8zM416 79.5c0 3.1.8 4.1 8.3 10.3 11.9 9.9 12 9.7 1.7-2.6-5.1-6.2-9.5-11.2-9.7-11.2-.1 0-.3 1.6-.3 3.5zM126 80.1c-5.2 1.6-10.2 3.7-11.1 4.7-1 .9-10.3 11.7-20.8 24C77.3 128.4 73.2 134 75.6 134c.8 0 18.6-9.6 23.5-12.6 2-1.2 10.4-10.3 18.6-20.1 8.2-9.8 16.2-19.3 17.7-21.1 3.3-3.9 2.9-3.9-9.4-.1zM288 79.8c0 .5 16.9 33.3 17.6 34.1.2.2 5.7-5.2 12.3-12 6.6-6.8 11.9-12.4 11.8-12.5-.8-.5-21.2-5.2-21.5-5-.1.2 2.3 3.6 5.3 7.6 3.1 3.9 5.4 7.4 5.2 7.6-.2.3-3-3-6.2-7.3s-5.9-8-6.1-8.1c-.5-.7-18.4-5-18.4-4.4zM271.6 92.9c-7.7 7-14.1 13.2-14.3 13.7-.2.5 10.5 2.7 23.7 4.9s24 3.9 24 3.8c0-1-18.3-35.3-18.8-35.3-.4 0-7 5.8-14.6 12.9zM416 88.2c0 3.1.8 4 9.6 10.6 6.8 5.1 10.5 7.2 12.5 7.2 1.6 0 2.9-.2 2.9-.5 0-.5-21.6-18.6-23.7-19.9-.9-.5-1.3.2-1.3 2.6zM97 96.6c-7.4 5.2-14.2 10.3-15.1 11.2-1.3 1.3-5.9 16.8-5.9 19.7 0 .4 7-7.6 15.7-17.7 8.6-10.1 16.5-19.3 17.6-20.6 1.1-1.2 1.9-2.2 1.6-2.2-.2.1-6.5 4.4-13.9 9.6zM326.5 95c-2.7 2.7-4.7 5.1-4.4 5.3.4.4 22.4 6.7 23.3 6.7.2 0-.9-3-2.5-6.6-1.7-3.6-2.8-6.8-2.6-7 .2-.2 1.8 2.9 3.6 7l3.2 7.3 9.7 2.6c5.3 1.5 13.6 3.7 18.4 5.1 7.2 2 9 2.2 10.4 1.1 1.6-1.2 1.7-1.5.2-3.6-1.1-1.7-7.6-4.9-22.6-11.2-11.6-4.8-21.9-9-23-9.2-1.1-.2-4.2 1.5-7.6 4.2-3.1 2.5-5.9 4.3-6.2 4-.3-.3 2-2.4 5.1-4.8 4-3 5.2-4.5 4.3-5-2.6-1.7-4.4-.8-9.3 4.1zM416 94.9c0 .6.4 1.3 1 1.6.6.3.7-.1.4-.9-.7-1.8-1.4-2.1-1.4-.7zM408.7 101.7c-3 3.8-5.4 6.9-5.2 7.1.3.4 15.4-3.7 16.8-4.5.6-.4-4.8-9.3-5.7-9.3-.2 0-2.8 3-5.9 6.7zM419 95.5c0 .4 1 2.4 2.1 4.5 1.7 2.9 3 4 5.6 4.5 1.9.3 3.7.4 3.9.2.2-.2-2.3-2.5-5.6-5.1-3.3-2.6-6-4.4-6-4.1zM163 103.5c-1.1 1.3-1.5 1.3-2.2.3-1-1.6-.6.5 3.8 18.4 1.9 7.5 3.4 14.3 3.3 15-.1 1-6-20.5-8.6-31-.3-1.3-1-2.1-1.5-2-1 .4-34.9 39.1-34.5 39.4.1.1 2.8-.1 6-.4l5.9-.5 11.5-17.3c6.4-9.6 11.8-17.2 12-17 .3.2-4.5 7.9-10.6 17-7.4 11-10.6 16.6-9.6 16.6.9 0 7.8-.7 15.3-1.6l13.7-1.5 5.4-5.4 5.4-5.4-7.2-12.1c-4-6.7-7.1-12.3-6.9-12.5.2-.3 3.5 4.7 7.2 11.1 3.8 6.3 7.2 11.7 7.6 11.9.4.3 5.9-4.8 12.1-11.3l11.3-11.7-11-.6c-20.6-1.2-27-1-28.4.6zM313.5 107.8c-2.7 3.1-4.3 5.2-3.5 4.6 5.9-4.1 10-7.8 10-9 0-2.3-1.2-1.5-6.5 4.4zM205.5 104.7c.4 1 3.1 8.1 6 15.8 2.9 7.7 5.8 15.3 6.4 16.9l1.1 2.8 14.1-13.3c7.7-7.4 15.4-14.5 17.2-15.8 1.8-1.3-4.2 4.9-13.3 13.7-9.1 8.9-16.2 16.1-15.8 16.2.4 0 11.4 1.6 24.4 3.5 13 2 23.8 3.4 23.9 3.3.6-.9-15.2-38.9-16.4-39.3-.7-.3-10-1.4-20.5-2.5s-21.1-2.2-23.5-2.6c-4-.5-4.3-.4-3.6 1.3zM323.4 104.5c-.3.8 1.6 5.6 4.3 10.7l4.9 9.2 11.8 3.9c6.4 2.1 11.9 3.7 12.2 3.4.3-.2-1.9-5.6-4.9-11.8l-5.3-11.4-10.5-2.8c-12.1-3.2-11.8-3.1-12.5-1.2zM194.4 113.3c-4.9 5-10.2 10.6-11.7 12.3l-2.8 3.2 3.1 5c2.5 4.1 3.8 5.2 6.3 5.7 2.9.4 28.7 1.2 28.7.8 0-.8-13.3-35-13.9-35.5-.4-.4-4.7 3.4-9.7 8.5zM128.7 112.9c-13.6 4.2-25.4 8.3-26.1 9.1-1.7 1.8-19.9 35.1-19.4 35.5.4.5 28.4-9.8 29.3-10.7.3-.3-1.7-5.7-4.4-11.9-2.8-6.2-5.1-11.7-5.1-12.3 0-.6 2.5 4.3 5.4 10.9 5.1 11.2 5.6 12 8.1 11.8 1.5-.1 3.3-.7 4.1-1.4 2.6-2.2 34.5-38.9 33.7-38.8-.5 0-11.9 3.5-25.6 7.8zM411.1 108.1c-10.2 3.1-15.1 6.4-12.9 8.5 2.1 2.1 36.1 25.4 36.5 25.1.5-.5-12.9-36.7-13.6-36.6-.3 0-4.8 1.4-10 3zM425 106.1c0 .5 5.5 6.6 12.1 13.6 6.7 7 13 13.7 14 14.7 1.7 1.8 1.8 1.8 2.4-1.8.5-2.7.2-4.9-1.4-8.6-2.4-5.6-2.6-6.4-.9-5.4.7.4.8.3.4-.5-.4-.6-1.1-.9-1.6-.6-.8.5-13-8.2-13-9.2 0-.6 2.1.7 6.3 4 2.1 1.6 4 2.8 4.2 2.5 1-1-3.9-6.8-5.8-7-3.8-.2-7.1-.7-11.9-1.6-2.7-.5-4.8-.5-4.8-.1zM314.3 110.8c-3.4 2.6-6.2 4.9-6.3 5.2 0 .3 5.2 2.2 11.5 4.2 6.4 1.9 11.4 3.3 11.3 2.9-3.6-7.4-9-17.1-9.6-17.1-.4 0-3.5 2.2-6.9 4.8zM424.2 109c.3.8 3.2 8.8 6.4 17.8l5.9 16.2 3.8 1.1c2.1.5 4.2.9 4.7.7.4-.2-3.9-8.4-9.7-18.3-10-17.2-12.2-20.7-11.1-17.5zM256 109.5c0 1.7 14.5 37.5 15.2 37.5.4 0 3.9-2.9 7.7-6.5 3.7-3.6 7.2-6.5 7.7-6.5.5.1-2.9 3.7-7.6 8-5 4.7-7.8 8-6.8 8 1.8 0 16-14.9 15.3-16-.3-.4 3.1-4.1 7.5-8.2s8-7.9 8-8.4-10-2.6-22.2-4.7c-22.8-3.8-24.8-4.1-24.8-3.2zM349 111.3c.4 1.2 2.9 6.6 5.4 11.9l4.5 9.7 7.1 3.6c4 2 7.5 3.5 8 3.3.4-.2 4.5-4.4 8.9-9.5l8.1-9.2-3.7-1c-3.5-1-4.1-.7-15 6-6.3 3.9-11.6 6.9-11.9 6.6-.3-.3 4.5-3.5 10.6-7.3l11.2-6.8-7.8-2.2c-4.4-1.1-12-3.3-17.1-4.7l-9.2-2.5.9 2.1zM387.6 113.5c.4.8 1 1.2 1.5.9 1.1-.6.2-2.4-1.1-2.4-.5 0-.7.7-.4 1.5z"/><path d="M395.1 112.9c-.8.5-.9 1.1-.3 1.5.5.3 1.5-.1 2.2-.9 1.4-1.6.3-2-1.9-.6zM429.2 113.5c2.3 5.1 18.3 31.5 19.4 31.9 1.7.7 2.2-.2 2.9-5 .5-3.8.4-4.1-11.1-15.9-6.4-6.6-11.4-11.6-11.2-11zM70.7 127.1c-3.7 7.1-6.4 12.9-6 12.9.4 0 2-1.2 3.6-2.8 1.7-1.5 2.6-2.1 2.2-1.3-.5 1-.4 1.2.4.7.6-.4.9-1.2.5-1.7-.3-.6.1-1.8.9-2.7 1.3-1.4 6.1-17.2 5.4-17.8-.1-.1-3.3 5.6-7 12.7zM390.5 115.6c-.5 1.5-1.2 2-2.6 1.7-1-.3-1.9 0-1.9.6s1.6 1 3.5.9c3.7-.1 3.8-.2 2.5-3.3-.9-2-.9-2-1.5.1z"/><path d="M393 115.9c0 .5.6 1.1 1.3 1.4.9.3.8.8-.3 2.2-.8 1-1 1.6-.3 1.2.6-.4 1.3-.3 1.5.1.1.5 6.6 4.2 14.3 8.2 7.7 4 13.6 6.9 13 6.3-1.1-1-22-15.6-26.7-18.6-1.6-1-2.8-1.3-2.8-.8zM296.3 127.4c-5.4 5.6-12.2 13-15.1 16.4-5.1 5.9-5.2 6.2-3 6.7 5.6 1.3 73.3 13.4 73.5 13.1.2-.2-4.2-8.9-9.7-19.4-7.5-14.1-10.7-19.2-12.3-19.6-1.2-.3-7-2.1-12.9-4l-10.8-3.4-9.7 10.2zM452 121.7c.1.5.7 1.9 1.4 3.2 1.1 2.1 1.4 2.1 2 .6.3-1 .1-2.4-.5-3.1-1.2-1.5-2.9-1.9-2.9-.7zM383.2 131.5L375 141l14.1 7c7.8 3.9 14.3 7 14.4 6.8.9-.9-9.4-32.3-10.6-32.5-.8-.2-5.1 4-9.7 9.2zM87.5 129.2c-6 3.3-11.2 6.2-11.3 6.4-.6.4 3 21.8 3.8 22.7.6.6 17.4-28.7 19.8-34.5.7-1.6-1.5-.6-12.3 5.4zM396.3 125.7c.2 1 2.4 8.2 4.7 16l4.3 14.2 6.1-2.4c3.4-1.3 10-3.8 14.8-5.7 4.8-1.8 8.8-3.6 8.8-3.9 0-.6-37.3-19.9-38.5-19.9-.4 0-.5.8-.2 1.7zM334 126.6c0 .3 4.4 8.8 9.8 19l9.7 18.4 4.7-5.3c2.6-2.8 4.7-6.1 4.7-7.2 0-1.1-1-5.4-2.2-9.5l-2.2-7.5-12.3-4.2c-6.7-2.3-12.2-4-12.2-3.7zM455.1 131.6l-1.3 5.6 3.3 3.4c1.8 1.9 3.4 3.2 3.6 3 .3-.2-.7-2.7-2.2-5.6-1.4-2.8-2.4-5.7-2.1-6.3.3-.9.5-.9.5 0 .2 2.4 20.3 43.8 22.5 46.1 6 6.7 4.5 2.2-8.1-23.8-7.5-15.4-13.9-28-14.3-28-.3 0-1.1 2.5-1.9 5.6zM174 134.5l-4.4 4.5h7.2c4 0 7.2-.2 7.2-.6 0-.9-4.5-8.4-5-8.4-.3 0-2.6 2-5 4.5zM63.5 136.7c-1.5 2.7-3.6 6.4-4.7 8.3l-2 3.5 2.1-2.5c2.2-2.5 8.5-14 7.7-14-.2 0-1.6 2.1-3.1 4.7zM360.4 137.7c.4 1.5 1.4 5.2 2.2 8.1 1.8 5.9 2.1 5.9 7.4-.8l2.9-3.6-6.6-3.3-6.5-3.2.6 2.8zM72.8 137.2c-.9.7-3.1 4.7-5 8.8-3.2 7.3-3.3 7.7-2.4 15.7.5 4.6 1.2 8.3 1.5 8.3.3-.1 3.2-2.4 6.3-5.3l5.7-5.2-2-11c-2.4-13.7-2.1-12.8-4.1-11.3zM66.1 141.9c-2.1 2.3-2.7 3.7-2.3 6.1.2 1.7.6 2.9.8 2.7.9-.8 5.3-11.7 4.8-11.7-.3 0-1.8 1.3-3.3 2.9z"/><path d="M452.2 142.2c-.8 3-.6 3.4 1.7 3.9 1.4.4 3.6.7 4.9.8 2.2.1 2.2 0-.9-3.9-1.8-2.2-3.6-4-4-4-.5 0-1.2 1.5-1.7 3.2zM149.2 141.9l-13.2 1.6-4.6 6.8c-3.4 5.2-4.4 7.5-4 9.3.8 2.9 1.3 2.9 15.1.4 6-1.1 11-2 11.2-2 .1 0 2.8-3.5 5.9-7.8 3.1-4.2 6.1-8.3 6.7-9 1.2-1.5.4-1.5-17.1.7zM162.4 148.2c-3.2 4.5-6 8.5-6.2 8.8-.3.7 34.5-5.3 35.2-6.1.2-.2-1.1-2.8-3-5.7L185 140h-16.6l-6 8.2zM190.1 146l3.1 5h14.5c13.4 0 14.5-.1 13.8-1.8-.4-.9-1.1-2.9-1.7-4.3-.8-2.2-1.7-2.7-6.1-3.3-2.9-.3-10-.6-15.9-.6H187l3.1 5zM220 142.4c0 .3.7 2.4 1.7 4.7l1.6 4.2 6.6-.7c3.6-.3 14-.6 23-.6s16.2-.2 16-.4c-.2-.2-9.8-1.8-21.4-3.5-11.5-1.7-22.5-3.4-24.2-3.7-1.8-.4-3.3-.4-3.3 0zM369.4 147.5l-4.7 5.5 3.8 13.3c2 7.2 4 13.5 4.4 13.9.3.4 7.5-4.8 15.9-11.5s14.7-12.3 14-12.6c-.7-.2-7.5-3.5-15-7.2l-13.7-6.9-4.7 5.5zM124.7 144.7c-3 .5-3 .9 0 8.2l1.5 3.5 1.8-2.5c1.1-1.3 2.9-4.1 4-6.2l2.1-3.7-3.3.1c-1.8.1-4.6.4-6.1.6zM422 150.5c-7.4 2.9-14.1 5.7-14.9 6.2-1.1.7-.5 4.9 3.4 23.3 2.6 12.4 5.1 23.3 5.4 24.3.5 1.4 33.5 21.4 36.4 22 .4.1 3.5-6.5 6.9-14.8l6-15-3.3-9.5c-2.7-7.9-5.1-12.3-14.3-25.7-6.1-9-11.3-16.3-11.6-16.2-.3 0-6.6 2.4-14 5.4zM438.6 146.2c1.2 2.1 16.6 24.2 17.5 25.2.4.5-.9-4-3-9.9l-3.8-10.8-5.8-2.9c-3.1-1.6-5.3-2.3-4.9-1.6zM116.8 146.8c-2 .4-2.2 1.1-.9 3.1.7 1.1 1.1.9 2.1-.9 1.3-2.5 1.2-2.8-1.2-2.2zM445 147c2 1.3 3.3 1.3 2.5 0-.3-.6-1.4-1-2.3-1-1.5 0-1.5.2-.2 1zM60.3 148.7c-.3 1-3.3 8.5-6.5 16.7-3.3 8.2-5.8 16-5.6 17.4.4 3.6 14.8-27.7 14.8-32.3 0-3.7-1.6-4.7-2.7-1.8zM118.5 149.9c-1.3 2.7-1.3 3.3.6 7.5 2.3 5.2 3.4 5.7 5 2.2.9-1.9.8-3.5-.7-7.5-1-2.8-2.1-5.1-2.6-5.1-.4 0-1.4 1.3-2.3 2.9zM450.7 148.3c-.5 1.4 12.7 15.6 13.6 14.6 1-1-1.2-13.2-2.5-14-.7-.5-2.4-.9-3.8-.9s-3.5-.3-4.6-.6c-1.3-.4-2.3 0-2.7.9zM97 154c-8.8 3.3-15.6 6.4-15.8 7.2-.3 1.7 5.5 14.8 6.6 14.7.4 0 4.5-1.4 9.1-3.2l8.4-3.2 5.2-8.5c3.9-6.2 5.1-8.9 4.5-10.4-.4-1.1-1.1-2.1-1.6-2.2-.5-.1-7.9 2.4-16.4 5.6zM232.8 151.7c-4.9.2-8.8.6-8.8.9 0 1 11.3 29.9 12 30.7.6.7 28.4-27.7 30.4-31.1.7-1.2-9.8-1.4-33.6-.5zM253.7 167.7c-8.6 9.2-15.3 17.1-14.9 17.4.4.4 2.1.9 3.8 1.2 3 .6 3.5.2 15.8-15.9 11.5-15.1 14.1-19.4 11.8-19.4-.5 0-7.9 7.5-16.5 16.7zM52.7 157.4c-4.6 5.4-4.7 5.6-4.6 12.3v6.8l3.1-7.5c5.3-13.2 6.8-17 6.5-17-.2 0-2.4 2.4-5 5.4zM173 155.6c-9.6 1.8-18.8 3.5-20.5 3.8-10.6 1.7-23.1 3.9-23.4 4.2-.5.4 6.1 18.4 6.8 18.4.4 0 4.2-4.9 8.6-11 4.3-6 8.1-10.7 8.3-10.5.2.2-3.4 5.6-8.1 12l-8.5 11.7 5.8 12.7c3.2 7 7.3 15.4 9.1 18.5 2.9 5.3 3.3 5.6 4.3 3.9.6-1.1 9-16.4 18.6-34.1 9.6-17.6 17.7-31.9 17.8-31.7.2.2-7.8 15.3-17.7 33.6-10 18.2-17.9 33.4-17.6 33.7.4.4 50.4-7 57.1-8.5 2.1-.4 8.4-8.1 8.4-10.1 0-1.2-26.5-45.8-28.8-48.5-.8-.9-1.8-1.6-2.1-1.6-.3.1-8.5 1.6-18.1 3.5zM194.3 152.7c2.2 4 28.9 48.3 29.1 48.3.6 0 11.6-14.9 11.6-15.7 0-.4-2.8-8.1-6.2-17.1l-6.3-16.2h-14.3c-7.9 0-14.1.3-13.9.7zM273.6 152.8c-.5.8 9 30.7 12.9 40.4.6 1.5 9.3 5.3 10.2 4.4.2-.2-4.7-10.6-11-23.2-6.2-12.5-11.7-22.2-12.1-21.6zM276 152.5c0 .3 5.1 10.8 11.4 23.4l11.5 22.8 9 3.1c4.9 1.8 9.2 3.2 9.5 3.2.7 0 34.7-39.2 34.4-39.6-.4-.4-72.5-13.4-74.3-13.4-.8 0-1.5.2-1.5.5zM455.2 164.7c2.3 6.7 5.6 13.9 7.6 16.6 1.9 2.6 3.2 5 2.9 5.3-.2.3-1.4-1-2.7-2.8-2.3-3.5-2.3-3.4.5 5.1 1.6 5 1.9 5.3 3.1 3.6.9-1.2 1-2.2.4-3-.6-.7-.8-1.9-.4-2.8.3-.8 0-6-.6-11.4l-1.1-9.8-6.2-6.3c-3.4-3.4-6.5-6.2-6.9-6.2-.4 0 1.1 5.3 3.4 11.7zM465.4 158.5c.6 5.4 1.1 6.4 5.2 10.5l4.5 4.5-4.6-10c-2.5-5.4-4.8-10.2-5.2-10.5-.3-.3-.3 2.2.1 5.5zM112.4 160.1c-2.2 3.5-4.4 6.9-4.8 7.6-.4.8 1.3.5 4.8-.7 8.8-3 8.7-2.8 6.2-8.4l-2.2-5-4 6.5zM358.7 159.7c-2.6 3.1-4.6 6.1-4.4 6.7.2.6 2.1 6.1 4.2 12.3l3.9 11.2 4.5-3.6c2.6-2 4.7-3.7 4.8-3.8.4-.2-6.8-25.7-7.6-27.2-.4-.7-2.4 1-5.4 4.4zM259.4 170.8c-6.7 8.6-12 15.9-11.8 16.1.3.3 35.2 7.1 37 7.1 1 0-10.9-36.6-12.4-38.2-.4-.4-6.2 6.4-12.8 15zM61.2 160c-1.1 2.5-4.1 8.9-6.6 14.2-2.5 5.4-4.3 9.8-4 9.8.3 0 3.9-2.9 7.8-6.5l7.3-6.4-.9-6.8c-1.2-9.3-1.3-9.4-3.6-4.3zM389.1 170.1c-13.5 10.8-15 12.3-13.4 13.4 1.5 1 30.6 17 37 20.3 1.8 1 2 .9 1.7-.6-.2-.9-2.4-11.4-4.9-23.2-2.5-11.8-4.7-21.6-4.9-21.7-.2-.2-7.1 5.1-15.5 11.8zM124.2 161.1c-1.1 1.6-.9 1.9.8 1.9 1.1 0 2-.6 2-1.4 0-2.4-1.5-2.6-2.8-.5zM72.3 166.9c-5.4 4.9-6 6.5-4.4 12.1.7 2.3 1.1 1.8 4.5-4.8 3.5-6.9 5.8-12.3 5.3-12.2-.1.1-2.6 2.2-5.4 4.9zM76.2 169.7c-1.7 3.8-3.5 8-4.1 9.5l-1 2.6 7.1-2.4c3.9-1.3 7.3-2.6 7.5-2.8.5-.4-5.3-13.6-6-13.6-.2 0-1.8 3-3.5 6.7zM123 164.9c0 1.6 10.4 19.1 11.3 19.1.5 0 .6-.8.2-1.8-.4-.9-2-5.4-3.7-10-2.6-7.2-3.3-8.2-5.4-8.2-1.3 0-2.4.4-2.4.9zM113.2 167.9l-7.3 2.7-5.6 9.2c-3.1 5.1-5.8 9-6 8.8-.3-.2 1.8-4.1 4.6-8.5 2.7-4.5 4.5-8.1 3.9-8.1-1.5 0-13.1 4.1-14.1 5-.9.8 3.5 11.4 5 12.3.8.5 37.1-4.7 37.8-5.5.4-.4-9.9-18.8-10.5-18.7-.3 0-3.8 1.3-7.8 2.8zM338.3 183.2c-7.7 9-15.2 17.7-16.7 19.5l-2.7 3.2 8.5 2.7 8.5 2.8 12.9-10.5 12.8-10.4-4-11.7c-2.3-6.5-4.3-11.8-4.6-11.8-.3 0-6.9 7.3-14.7 16.2zM466.3 169.5c.4 1.6.9 6.1 1.2 10 .9 10 1 10.1 7.8 14.5 5.6 3.6 6.3 3.8 7.5 2.3 1.9-2.6 1.5-4.8-2.7-13.1-3.6-7.1-5.3-9.2-12-14.7l-2.3-2 .5 3zM43.7 181.6c-1.5 6.5-2.6 11.8-2.4 12 .2.2 1.1-1.9 2.1-4.7 1-2.7 2-4.8 2.3-4.6.2.3-1.2 4.4-3.1 9.3-2 4.8-3.4 8.9-3.2 9.1.2.2 1.7-.9 3.3-2.5 2.4-2.1 3.2-3.9 3.6-7.7.6-5.8.9-22.5.4-22.5-.2 0-1.6 5.2-3 11.6zM57.5 179.9c-7.5 6.5-10.2 10.5-10.4 15.3-.1 1.2.4 1.5 1.5 1.1 1.1-.4 1.4-1.4.9-3.7-.4-2.6-.4-2.8.5-.9.5 1.3 1.2 2.3 1.5 2.3.4 0 4-2.3 8.1-5.2 7.8-5.5 8.1-6.1 6.5-13.1l-.6-2.7-8 6.9zM77.7 180.7c-4.7 1.8-7.2 3.3-7.9 4.9-.6 1.3-1.5 2.1-1.9 1.8-.5-.3-.6.1-.4.8.3.8-.8 4.6-2.4 8.5-1.6 3.9-3.2 8.5-3.6 10.2l-.7 3.2 7.9-4.9C88.8 192.5 92 190.5 92 189.9c0-1.9-5.3-11.9-6.3-11.8-.7 0-4.3 1.2-8 2.6zM481.6 184.2c2.7 5.5 4.4 6.6 4.4 2.9 0-.9-1.6-3.3-3.6-5.2l-3.6-3.4 2.8 5.7zM367.2 187.8l-4.3 3.7 6.6 19.6c5.4 16.1 7 19.8 8.9 20.7l2.3 1-4.1-23.8c-2.3-13.1-4.3-24.1-4.6-24.4-.3-.3-2.5 1.2-4.8 3.2zM377.3 207.2c2.2 12.8 4.3 23.7 4.7 24.1.4.4 7.8-4.9 16.4-11.9 8.6-7 15.3-13.1 14.9-13.5-.8-.8-38.9-21.9-39.6-21.9-.2 0 1.4 10.5 3.6 23.2zM112.2 188c-9.6 1.6-17.5 3-17.8 3.2-.2.3 3.5 8.9 8.3 19.1l8.6 18.7 4.2-7.7c14.1-26.6 18.4-35.1 17.8-35.7-.9-.8-1.3-.8-21.1 2.4zM59 190.7c-4.2 2.8-6.4 5-6.3 6.1.1.9 1.4 4.4 2.8 7.6 2 4.5 2.9 5.6 3.6 4.5 1.3-2 7.1-20.9 6.7-21.8-.2-.5-3.2 1.1-6.8 3.6zM133.3 189.7c-5.2 9.4-20.3 38.5-20.3 39.1 0 .4 8.6.2 19.1-.3 23-1.2 22.8-1.1 18.4-10.7-1.6-3.5-4.9-9.8-7.3-14-2.4-4.3-4-8.3-3.6-8.9.4-.8.3-.9-.4-.5-.6.4-1.8-.6-2.7-2.3-1.9-3.8-1.9-5.1 0-2.5.8 1 1.5 1.4 1.5.8 0-.5-.6-1.8-1.3-2.8-1.1-1.6-1.5-1.4-3.4 2.1zM229.8 194.7c-5.5 7.4-5.7 7.7-4.3 10.4.8 1.5 1.9 3 2.4 3.3.8.5 9.7-10.1 10.7-12.8.4-1-2.2-8.7-2.9-8.5-.1 0-2.8 3.4-5.9 7.6zM238.1 189.6c1.6 4.4 2 4.6 4 1.9 2.5-3 1.7-4.5-2.1-4.5-2.8 0-2.9.2-1.9 2.6zM243.7 191.4c-1.5 1.9-2.7 4.1-2.7 4.9 0 .8 1.3 4.5 2.8 8.3l2.8 6.9 10.4.9 10.3.8 8.9-8.9 8.9-8.9-18.3-3.3c-10.1-1.9-18.8-3.6-19.4-3.8-.6-.2-2.3 1.2-3.7 3.1zM486.7 188.6c-1.2 1.3-.7 4.8 1.3 8.4 2.2 4.1 2.5 2.5.7-4.3-.7-2.7-1.6-4.5-2-4.1zM76.5 201.6c-8.2 5.3-15.6 10.1-16.3 10.8-.9.9-1.4 8.2-1.9 28.2l-.6 26.9 16.1 4c8.9 2.1 16.3 3.7 16.6 3.4.3-.2 5-10.4 10.5-22.6l10-22.2-8.8-18.7c-4.8-10.3-9.1-18.9-9.7-19-.5-.2-7.6 4-15.9 9.2zM350 201.5c-6.3 5.1-11.6 9.7-11.7 10.2-.3.7 29.1 15.5 35.8 18.1.8.3-10.9-35.8-12-36.9-.3-.4-5.8 3.5-12.1 8.6zM468.2 192.9c-.7.4-1.4 1.6-1.4 2.7-.2 2.3 6.1 21.5 7.4 22.9.7.7.8.3.5-1-2.4-8.3-5.7-22.9-5.5-23.7.2-.5 1.6 4.3 3.2 10.7 1.5 6.4 3 11.5 3.2 11.3.1-.2 1.6-4 3.2-8.4l3-8-5.9-3.7c-6.7-4.2-6-3.9-7.7-2.8zM484.2 196c-.8 2.1-.6 2.8 1.1 4.2 4.1 3.3 4.6 2.2 1.7-3.2l-1.8-3.5-1 2.5zM490.5 198c0 2.1.3 3.3.7 2.7.5-.8.8-.5.8.8 0 1.2.9 3.8 2 6 2.4 4.6 2.3 4.6.8 4.2-.6-.1-1.3.7-1.5 1.8-.2 1.8-.2 1.8.5.2.5-1.2 1.9 3.1 4.5 13.5 2.1 8.4 3.7 15.7 3.6 16.3 0 .5-1.8-5.5-3.9-13.5-2.1-8-3.9-13.8-3.9-13-.1 2.3 4.8 28 5.6 29.3.4.6.6 2.6.4 4.3-.1 1.8.2 3.5.8 3.9 1.2.7 1.2.5 1.6-6.5.1-2.5.6-8.6 1-13.6.7-8.5.6-9.4-1.4-12.3-1.2-1.7-1.9-3.6-1.5-4.2.4-.7.3-.9-.3-.6-.6.4-1.8-.4-2.7-1.8-2.3-3.5-1.9-4.5.5-1.5 1.2 1.4 1.9 1.8 1.6 1-.5-1.3-8.8-20.2-9.1-20.7-.1-.1-.1 1.6-.1 3.7zM278.2 204.3c-4.7 4.7-8.4 8.8-8.2 9 .3.3 5.3.8 11.2 1.2l10.6.7-2.4-8.3c-1.3-4.6-2.3-8.8-2.1-9.3.2-.5 1.4 2.9 2.6 7.6 1.3 4.7 2.6 9 3 9.5.6 1.1 14.4 2.4 13.8 1.3-.1-.3-2-4-4.2-8.2-3.5-6.9-4.4-7.9-8-9.2-2.2-.8-4.8-1.7-5.8-2.1-1.3-.6-3.8 1.3-10.5 7.8zM47.9 198.3c-2.6 1.9-6.4 25.8-5.2 32.7l.9 5.5 6.3-10.7c3.5-6 6.7-10.6 7.1-10.3 1.4.9.2-4.5-2.7-11.5-2.9-7.2-3.6-7.8-6.4-5.7zM234.7 203.1l-4.8 6.4 2.8.6c1.5.4 5 .7 7.6.8 5.5.1 5.5.3 1.3-9.3l-2.2-4.9-4.7 6.4zM460 212.3c-3 7.8-5.5 14.6-5.5 15 0 .4 2.3 2.1 5.1 3.8l5.2 2.9 4.5-6.3 4.5-6.3-3.9-11.4c-2.2-6.3-4.1-11.5-4.2-11.6-.1-.2-2.7 6.1-5.7 13.9zM479.2 209.4c-3.8 10.8-3.7 12.8 1.7 18l3.7 3.6 2.9-13c1.5-7.2 2.6-13.2 2.4-13.3-1.8-1.4-6.8-4.7-7.1-4.7-.1 0-1.8 4.2-3.6 9.4zM40.9 203.3c-2.7 2.2-2.7 2.3-1.5 8.9.6 3.6 1.4 6.9 1.7 7.3.3.3 1.2-2.9 1.8-7.2.7-4.3 1.5-8.6 1.7-9.6.7-2.3-.5-2.1-3.7.6zM301 201.5c0 .3 1.6 3.7 3.6 7.7l3.6 7.1 4.4-4.9c2.5-2.7 4.1-4 3.5-2.9-.5 1.1-2.1 3.1-3.5 4.4-1.4 1.4-2.6 3-2.6 3.6 0 .6 2.9 2 6.5 3.2l6.5 2.1 5.5-4.5c3.1-2.5 5.4-4.7 5.2-4.9-.3-.3-31.7-11.4-32.3-11.4-.2 0-.4.2-.4.5zM219.7 208.1l-2.9 4 2.6-.6c1.4-.3 3.7-.7 5.1-1 2.5-.5 2.5-.6 1-3.5-.9-1.7-1.9-3-2.3-3-.4 0-2 1.9-3.5 4.1zM416.3 208.7c.3 1 2 12 3.8 24.5 1.8 12.6 3.5 22.8 3.8 22.8.4 0 6.9-6.3 14.5-13.9l13.9-13.9-2.4-1.5c-1.3-.8-9.5-5.6-18.2-10.6-10.9-6.3-15.7-8.6-15.4-7.4zM398.8 220.7c-8.6 7-15.5 13-15.2 13.4.7 1.2 37.5 22.1 38 21.6.6-.6-5.7-46-6.5-46.9-.4-.5-7.7 4.9-16.3 11.9zM32.6 237.2c-2.6 15.6-5.1 29.6-5.4 31.2l-.5 2.9 2.9-2.2c2.6-1.9 3.2-3.5 5.2-12.9 5.2-24.5 5.9-30.1 4.6-38.1-.7-4-1.4-7.7-1.6-8.3-.2-.5-2.5 11.8-5.2 27.4zM488.1 220.6l-2.4 11.5 5.9 6.2 5.9 6.2-5.5-5.3c-3.1-2.8-5.9-5.2-6.2-5.2-.4 0-1.2 2.5-1.8 5.5l-1.2 5.6 7.3 7.7c4 4.2 7.6 7.8 8 8 1.5.6 2-4 1-9.1-.6-2.8-1.3-6.1-1.5-7.2-.2-1.1-1.6-9.2-3.1-18-1.6-8.8-3.1-16.3-3.4-16.7-.4-.4-1.7 4.4-3 10.8zM224.5 211.5c-.5.2-2.7.6-4.7 1-3.1.5-4.5 1.6-8.1 6.3-6.7 8.7-6.8 8.2 1.6 8.2h7.5l3.1-7.4c3.8-9.1 3.8-9.2.6-8.1zM225.3 218.7c-1.8 4.2-3.1 7.8-3 8 .2.1 6.9.6 15 .9l14.6.7-2.8-7.3c-1.5-4-3.4-7.6-4.2-8-.8-.4-4.8-1-8.9-1.3l-7.5-.6-3.2 7.6zM185 217.8c-15.7 2.5-28.6 4.6-28.6 4.6-.1.1-.5 1.1-.8 2.3-.5 1.5-.3 2.3.4 2.3.6 0 .8-.6.4-1.3-.6-1-.4-1 .7 0 .9 1 7.2 1.3 24 1.3h22.7l5.2-6.5c2.9-3.6 5.1-6.7 4.9-6.9-.2-.1-13.2 1.7-28.9 4.2zM249.6 219.7c1.4 3.8 2.8 7 3 7.2.3.3 3.4-2.4 7-6l6.5-6.4-5.8-.6c-3.2-.4-7.5-.7-9.5-.8l-3.7-.1 2.5 6.7zM329.8 217.7c-2.6 2.1-4.7 4-4.8 4.4 0 .3 2.8 1.5 6.1 2.7l6.2 2.2-.7-3.7c-.3-2.1-.6-5-.6-6.6 0-1.5-.3-2.7-.8-2.7-.4 0-2.8 1.7-5.4 3.7z"/><path d="M337.1 217.7c.3 9.5-.4 8.9 18.4 15.5 14 4.9 17.4 5.7 19.3 4.8 1.8-.8 2.2-1.5 1.7-3.3-.4-1.2-1-2.5-1.4-2.8-.7-.8-36.7-17.9-37.5-17.9-.3 0-.5 1.7-.5 3.7zM260.8 221.7l-6.8 6.8 22.1 5.9c12.1 3.2 22.2 5.7 22.3 5.5.6-.7-5.6-21.4-6.7-22.6-.7-.6-6.2-1.4-12.7-1.8l-11.5-.7-6.7 6.9zM50.1 227.6l-6.2 10.6 1.1 7c.7 3.8 1.3 6.8 1.5 6.6.8-.7 10.6-34 10.2-34.4-.2-.3-3.2 4.3-6.6 10.2zM296.2 227.2c1.6 5.7 3.1 10.9 3.3 11.6.3.9 2.2 0 6-3 3-2.4 5.4-4.7 5.1-5.3-.2-.5-.9-3.5-1.6-6.6-1.2-5.4-1.4-5.7-4.9-6.3-2-.3-5.2-.6-7.2-.6h-3.7l3 10.2zM309.4 221.6c.4 1.5 1 3.9 1.3 5.5.3 1.6.9 2.9 1.2 2.9 1 0 9.1-6.3 9.1-7 0-.6-9.8-4-11.4-4-.5 0-.5 1.2-.2 2.6zM56.6 222.7c-.3 1-2.5 8.6-5 17-2.5 8.3-4.6 15.6-4.6 16.2 0 .7 2.1 3.5 4.7 6.4 2.6 2.9 3.5 4.1 2 2.8-1.5-1.4-2.7-2.2-2.7-1.8 0 1.3 3.4 7.7 4.1 7.7 1.3 0 1.9-7.8 2.1-29.3.2-11.4.2-20.7.1-20.7s-.4.8-.7 1.7zM317.6 227.7c-3.1 2.4-5.6 4.8-5.6 5.1.1 2 4 15.6 4.7 16.2.4.4 6.1 3.5 12.6 6.9l11.7 6.2v-2.8c-.1-3.9-3.5-30.2-4.1-30.7-.2-.2-3.4-1.5-7-2.9l-6.6-2.5-5.7 4.5zM471.4 226.3c-1.1 1.8-2.8 4.4-3.8 5.8l-1.7 2.7 4.6 2.7c2.6 1.5 4.9 2.5 5.1 2.2.5-.5-1.3-15.7-1.9-16.3-.1-.1-1.2 1.2-2.3 2.9zM475.3 225.7c.4 1.8.9 6.2 1.3 9.7.5 4.4 1.2 6.7 2.2 7.1.8.3 1.6.4 1.8.2.5-.4-4.4-18.8-5.2-19.5-.4-.4-.4.7-.1 2.5zM478 226.4c0 1.8 3.2 13.2 4 13.9.4.5 1.1-1.3 1.5-3.9.6-4.4.4-4.9-2.4-7.8-1.7-1.7-3.1-2.7-3.1-2.2zM152.5 230c-.4 1.2-.5 2.4-.2 2.7.3.2.8-.5 1.2-1.7.4-1.2.5-2.4.2-2.7-.3-.2-.8.5-1.2 1.7zM152.1 235.8c-2.1 4.2-5.7 13.9-8 21.5-2.3 7.5-4.4 14.3-4.7 15-.5 1.3.7 1.3 27.3-.1l12.3-.7-11.5-20.9c-6.4-11.5-11.4-21.1-11.2-21.3.3-.2 5.5 8.9 11.8 20.2 11.4 20.8 12.6 22.3 17.4 21.3 1.4-.3 1.4-.5.1-2.3l-1.5-2-1.5 2c-1.8 2.3-2.1 1.3-.5-1.6.9-1.7-.7-4.6-11.1-19.6-6.7-9.6-11.9-17.7-11.7-17.9.2-.2 5.8 7.5 12.4 17.1l12.1 17.5 9.6-17.4c5.3-9.6 9.6-17.8 9.6-18.1 0-.3-10.6-.5-23.5-.5l-23.5.1-3.9 7.7zM206 228.5c0 1.8 7.3 14.6 7.9 13.9.8-.9 6.1-13.1 6.1-14 0-.2-3.1-.4-7-.4-3.8 0-7 .2-7 .5zM217.8 236.4l-3.5 8.3 5.9 11.7c3.2 6.4 6 11.6 6.2 11.6.3 0 5.9-8.6 12.7-19 6.7-10.5 12.4-18.9 12.6-18.6.2.2-5.1 8.8-11.8 19.2-6.7 10.4-12.2 19.4-12.2 20 0 .6 6.6 9.2 14.7 19.2l14.8 18.1 6.1-2.4c15-5.7 38.2-14.6 38.4-14.8.6-.6-2.7-47.1-3.4-47.7-1.2-1-43.5-12.1-48-12.6-2.1-.2-9.5-.5-16.4-.8l-12.7-.5-3.4 8.3zM123.7 230c-7.4.4-11.1 1-12.1 2.1-1.7 1.8-20.1 42.8-19.5 43.4.5.4 38.1-1.4 38.7-1.9.2-.2-4-9.5-9.3-20.7-5.2-11.1-9.3-20.4-9.1-20.6.1-.2 4.5 8.6 9.6 19.4 5.1 10.9 9.7 20.4 10.3 21 .5.7 2 1.3 3.2 1.3 2.1 0 2.7-1.1 5.4-9.9 1.7-5.5 3.1-10.3 3-10.8 0-.4-2.4 3.9-5.4 9.7-3 5.8-5.4 10.2-5.4 9.8-.2-1.9 10.4-21.6 11.3-21.1.5.3.6.1.2-.5-.4-.6.2-2.8 1.2-4.9 1-2.1 2.5-6 3.2-8.6.7-2.7 1.6-4.3 2-3.7.4.6.7-.2.6-1.9l-.1-3.1-8.5.2c-4.7 0-13.3.4-19.3.8z"/><path d="M194.5 246.7l-9.8 17.7 1.8 3.3c1.8 3.2 2 3.3 7.9 3.3 3.4 0 6.6-.4 7.2-.8.6-.4 3.5-6.2 6.3-12.8l5.2-12.2-4-8.1c-2.3-4.4-4.3-8.1-4.5-8.1-.2 0-4.8 8-10.1 17.7zM340.1 242.7c1 7.6 1.9 15.1 2.1 16.6.3 2.8.5 2.7 14.6-7.9 7.9-5.8 14.5-10.4 14.8-10.1.3.2-6 5.3-13.9 11.2l-14.4 10.7-.6 6.6c-.4 3.6-.4 6.8-.1 7.1.2.3 8.3-7.3 18-16.9 14.1-14.2 17.1-17.6 15.7-18.2-4.1-1.6-36.5-12.8-37.2-12.8-.4 0 0 6.2 1 13.7zM454.5 237.7c.4 4.8.9 8.9 1 9.1.2.3 6-7.5 7.8-10.5.4-.7-1.2-2.3-4.4-4.3l-5.1-3.1.7 8.8zM438.5 244c-8.4 8.4-13.6 14.3-13 14.8 2 1.7 11.1 8 13.2 9.1 2 1 2.6.4 8.7-8.4 7.2-10.3 7.5-12 5.8-24.8l-.7-4.7-14 14zM40.7 232.5c-.3 1.1-.9 4.2-1.2 7l-.7 5 2.1-3.2c1.7-2.7 1.9-4 1.3-7-.7-3-1-3.4-1.5-1.8zM305.3 237.8l-5.2 4.7 1.5 23c1.8 27.6 1.9 24.1-.2 34.8-.9 4.9-1.4 9-1.1 9.3.6.6 15.7-8.5 15.7-9.4 0-.4-2.7-2.4-6-4.6-3.4-2.1-5.9-4.1-5.6-4.3.2-.3 3.2 1.4 6.5 3.6 3.3 2.3 6.4 4.1 7 4.1.5 0 2.3-.8 4-1.8 3.6-2 3.7-3.1 1.3-12.5l-1.7-6.7-8.3 5.6c-4.6 3-8.6 5.4-8.8 5.1-.3-.2 3.4-3.1 8.1-6.3 4.7-3.1 8.5-6.1 8.5-6.5 0-.8-4.8-21.4-5.6-24.1-.3-.9-3.7-3.5-7.7-5.7-8.5-4.8-8.3-5.4.3-1.1 5.3 2.7 6 2.8 6 1.3 0-1.9-2.6-12.3-3.2-12.8-.2-.2-2.7 1.7-5.5 4.3zM377 234c0 .5.7 1 1.6 1 .8 0 1.2-.5.9-1-.3-.6-1-1-1.6-1-.5 0-.9.4-.9 1zM379.8 236.2c-3.8 3-.6 5.2 20.6 14.6 20.3 9.1 22.6 9.9 22.6 8.4-.1-.6-38.3-23.1-40.8-24-.4-.1-1.5.3-2.4 1zM463.8 237.8c-.8.9-3 3.9-4.8 6.5l-3.2 4.9.7 13.2c.6 11.8 1.6 17 2.8 15.6.2-.3 4.1-6 8.7-12.7 4.6-6.8 8.5-12.1 8.7-11.9.2.1-3.5 6-8.3 13-4.7 7-8.4 12.9-8.2 13 1.3 1 21.3 11.6 21.8 11.6.3 0-.4-8-1.7-17.8-1.3-9.7-2.6-20.5-3-24-.6-6.7-1.4-7.7-8.9-11.5-2.9-1.5-3.3-1.5-4.6.1z"/><path d="M375.6 238.9c-.3.5.1 1.1.9 1.5.9.3 1.5 0 1.5-.9 0-1.6-1.6-2-2.4-.6zM504.8 244.2c-.3 4.2 0 9.6.8 14 .8 4 1.3 8.2 1.3 9.3-.1 1.1-.7-.8-1.4-4.3-1.6-8.1-2.5-8.9-2.5-2.1 0 4.5 3.4 17.9 4.5 17.9.5 0-.5-25-1.3-33.5l-.8-8-.6 6.7zM40.1 244.8l-2 3.9 3.3 3.2c1.7 1.7 3.4 3.1 3.7 3.1.8 0-1.4-12.7-2.3-13.5-.4-.4-1.6 1.1-2.7 3.3zM380.3 245.7c.3 1.6 2.6 18.5 5.3 37.8 2.6 19.2 5 35.4 5.4 35.8.4.4 7.4-6.3 15.7-15l15.1-15.9.3-13.2.4-13.2-10-4.4c-5.5-2.5-15.1-6.8-21.4-9.5l-11.4-5.1.6 2.7zM360.2 262.3l-18.3 18.3.3 10.4.3 10.4 23.5 9.7c12.9 5.4 23.5 9.7 23.6 9.6.2-.4-10.5-75.9-10.8-76.3-.2-.2-8.6 7.9-18.6 17.9zM478 246.7c0 2.5.1 2.6 1.6 1.1.9-.9 1.3-2.1 1-2.7-1.3-2-2.6-1.1-2.6 1.6zM480.5 248.6c-1.7 2.7-1.7 3.4.5 21.3 1.3 10.2 2.6 18.9 2.9 19.3.3.3 3.6-5.5 7.2-13.1l6.6-13.7-7.7-8.2-7.7-8.3-1.8 2.7zM209.1 257.1c-2.4 5.7-4.6 11-4.9 11.8-.4 1.1 1.2 1.3 9.7.9 5.6-.3 10.4-.7 10.7-1 .6-.6-7.4-16.9-9.8-20.2-1.3-1.7-1.8-.9-5.7 8.5zM38.5 255.5c.4 2.7.8 5.1 1 5.2.1.2 1.1-.7 2.3-2l2.2-2.3-3.1-3-3.1-2.9.7 5zM319.2 263.2c1.6 6.8 3 12.3 3.1 12.4.1.1 4.4-2.7 9.6-6.1l9.4-6.4-12.2-6c-6.6-3.4-12.2-6.1-12.4-6.1-.2 0 .9 5.5 2.5 12.2zM447.7 260.7c-3.1 4.7-5.6 8.7-5.5 8.8.2.1 3.3 1.9 7.1 3.9l6.7 3.8v-3.5c0-6.7-1.3-21.7-1.9-21.7-.3.1-3.2 3.9-6.4 8.7zM35.6 257.8c-.3 2.2-.9 4.9-1.3 5.9-.6 1.7-.5 1.7 1.5-.1 2.2-1.9 2.9-6 1.3-8.4-.5-.9-1-.1-1.5 2.6zM38.7 263c-5.1 4.7-5.5 5.3-7.2 13.1-2.3 11-1 17.4 5.1 23.9l4.2 4.4.7-5.9c.5-3.9.2-10.7-1-20.2-1-7.9-1.6-14.6-1.3-14.8.3-.3 1.1 4.3 1.8 10.2 1.2 9.6 1.4 10.3 2.1 6.8 1-5.8 2.2-22.5 1.6-22.5-.3 0-3 2.2-6 5zM44.9 275.5c-1.1 12.1-1.3 18.4-.6 23.3.6 3.7 1.2 6.2 1.3 5.7.2-.6 2.3-7.7 4.8-15.9l4.4-14.9-3.6-7.4c-2-4-3.9-7.3-4.2-7.3-.4 0-1.3 7.4-2.1 16.5zM424 260.8c0 .4 1.5 1.3 3.3 2l3.2 1.2-2.5-2c-2.7-2.1-4-2.5-4-1.2zM499.5 261c-.3.5-.3 1.4 0 2 .3.5.1 1-.5 1s-4.3 6.5-8 14.5l-6.9 14.4-2.1 28.7c-1.1 15.8-1.9 28.8-1.7 28.9.1.2 3.8-4.4 8.1-10.2l7.9-10.4 2.8-31.7c1.4-17.4 2.4-32.2 2.1-32.7-.4-.6-.5-2-.3-3.3.3-2.3-.4-2.9-1.4-1.2zM423.8 274.2c-.3 6.2-.3 11.5-.1 11.8.6.6 15.3-14.9 15.3-16 0-.6-6.7-3.9-13.6-6.7-.8-.3-1.3 3.1-1.6 10.9zM332.9 270.1c-11.1 7.6-10.5 6.5-8.4 15.9l1.9 8.1 7.2-7.2 7.3-7.2.3-7.4c.2-4 0-7.3-.3-7.3s-3.9 2.3-8 5.1zM29.3 271.3c-1.6 1.8-2 3.5-2 9.2 0 3.8.2 5.9.4 4.5.2-1.4.8-3.4 1.3-4.5 1.1-2.2 3-10.8 2.6-11.2-.1-.2-1.2.7-2.3 2zM56.9 271.2c-.9 1.8-.6 3.2 2.2 8.9 1.8 3.8 3.4 6.7 3.7 6.5.2-.2-.8-3.6-2.2-7.6-1.4-3.9-2.6-7.7-2.6-8.3.1-.7 2.8 6.2 6 15.3 7.6 21.1 9.9 26.2 11.9 25.8 1.1-.2 3.6-6 7.5-17.1 3.2-9.2 6.1-16.5 6.3-16.3.3.3-2 7.5-5.1 16.2-3.1 8.6-5.4 15.9-5.1 16.2.4.5 24.4-4.6 25.3-5.4.8-.5-14.1-27.5-15.6-28.3-1.5-.8-29.1-8.1-30.5-8.1-.4 0-1.1 1-1.8 2.2zM212.8 270.7l-9.6.4-2.8 6.5c-1.6 3.8-2.3 6.8-1.8 7.2.5.5 4.4 3.9 8.6 7.6 5.3 4.6 7.9 6.4 8.3 5.5.2-.8 2.5-6.9 5-13.7 4.9-13.4 5.1-14.3 3.3-14-.7.1-5.6.4-11 .5zM221.2 285.1c-6 16.1-6.2 14.3 3.1 22.1l4.7 4 12.3-1.7c6.7-1 12.6-2.1 13.1-2.6.6-.6-20-27.3-26.8-34.6-.9-1-2.4 2-6.4 12.8zM431.8 279.8l-8.8 9.1V312.2l7.8-7c11.7-10.6 11-8.9 10.3-22.6l-.6-11.8-8.7 9zM500.6 293.2c-1.1 12.3-2.1 25-2.3 28.3-1.1 17.6-1.2 21.9-.8 21 .7-1.6 7.5-31.5 7.4-32.8 0-.7-1.3 2.4-2.9 6.8-3.6 10.2-3.8 8.7-.3-2.2 1.8-5.4 3-7.8 3.6-7 .5.8.6.5.3-.9-.4-1.1.5-5.4 1.9-9.5l2.6-7.4-3.3-9.3c-1.8-5-3.5-9.2-3.8-9.2-.3 0-1.4 10-2.4 22.2zM182.5 273c-1 1.7 6.7 12 9 12 4.6 0 4.7-1.5.5-7.3-3-4.2-4.7-5.7-6.5-5.7-1.3 0-2.7.5-3 1zM190 272.6c0 1 6.1 9.4 6.8 9.4.5 0 1.8-2.3 2.9-5l2.1-5h-5.9c-3.2 0-5.9.3-5.9.6zM442 279.2c0 4 .3 9 .6 11l.7 3.8 6.1-5.7c3.3-3.1 6.2-5.9 6.4-6.3.1-.4-2-2.2-4.8-4-3-1.9-4.7-3.7-4.3-4.4.3-.6.3-.8-.2-.4-.4.4-1.6.3-2.6-.3-1.8-.9-1.9-.5-1.9 6.3zM151.8 273.9c-6.5.4-12.2 1.1-12.7 1.6-1.3 1.5-8 23.5-7.1 23.5 1.5 0 55.4-13 55.8-13.5.3-.3-1.3-3.1-3.5-6.2l-4.1-5.8-8.3-.1c-4.6-.1-13.7.2-20.1.5z"/><path d="M448 274.3c0 .6 7.9 5.7 8.7 5.7.5 0-.1-.8-1.2-1.6-2.4-1.9-7.5-4.6-7.5-4.1zM107.7 276.1c-8.2.4-15.1 1-15.4 1.2-.5.6 13.5 27.7 14.3 27.7.3 0 3.6-.7 7.5-1.6 4.6-1 7.3-2.2 7.9-3.4 1.2-2.3 9-23.2 9-24.3 0-.8-1.6-.8-23.3.4zM127.8 287.8c-2.5 7-4.5 12.8-4.4 13 .2.1 1.7-.1 3.4-.4 3-.6 3.3-1.1 6.1-10.3 4.7-15.3 4.7-15.1 2-15.1-2.2 0-2.9 1.3-7.1 12.8zM55 276.3c0 .2-2 7.3-4.5 15.7-2.5 8.5-4.2 15.7-3.8 16 .5.4 4.9 2.1 9.9 3.8 7.6 2.6 9.7 3 12.6 2.1l3.6-.9-1.8-4.8c-4.3-11.1-16-34.5-16-31.9zM458.5 281.3c-.6 1.4-5.3 49.7-4.9 49.7.5 0 27.5-36 27.9-37.3.4-.8-1.1-2.1-3.7-3.4-2.4-1.2-7.6-4-11.6-6.3-5.4-3-7.4-3.7-7.7-2.7zM334 288.5c-3.5 3.5-6.2 6.6-5.9 6.8.2.2 3.2 1.5 6.7 3l6.2 2.6v-9.4c0-5.2-.1-9.5-.3-9.5-.1 0-3.1 2.9-6.7 6.5zM449.2 290l-6.3 5.8.7 18.2.7 18.1 2.7 1.9c2.3 1.6 3 1.7 3.9.7 1.1-1.4 6.2-50.7 5.2-50.7-.3.1-3.4 2.7-6.9 6zM192.8 285.7c-2.2.5-2.2.8-.2 3.8.9 1.4 2 2.2 2.5 1.9 1.1-.6 1.2-6.4.2-6.3-.5.1-1.6.3-2.5.6zM196.7 290.2c-.5 4-.2 4.8 6 13.7l6.7 9.5 1.9-4.5c3.6-8.6 3.6-8.7-4.8-15.9-4.2-3.6-8-6.6-8.4-6.8-.5-.1-1.1 1.6-1.4 4zM176.5 289.5c-4.9 1.3-16.9 4.2-26.7 6.5-16.5 3.9-17.7 4.3-18.7 6.8-.5 1.5-1.9 9.8-3 18.5l-2 15.7 10.5 14.5c7.8 10.8 11 14.4 12.2 14.1 1-.3 8.5-1.9 16.7-3.6 8.3-1.7 15.9-3.4 16.9-3.8 1.6-.7-1.3-4.2-19.4-23.3-11.7-12.3-23.6-24.8-26.4-27.7-2.8-2.8-4.7-5.2-4.4-5.2.4 0 12.2 12.1 26.3 27 14.2 14.8 26 27 26.4 27 .3 0 2.7-13.8 5.3-30.8l4.7-30.7-2.6-3.8c-3-4.3-3.5-4.4-15.8-1.2zM28.5 290c-.4 1.1-.2 2.7.4 3.4.6.7.8 1.6.5 1.9-.8.8 6.7 29.7 7.7 29.7 2.1 0 1.7-4.9-1.2-15.2-1.8-6.2-3.7-11.9-4.2-12.6-.5-.7-1.1-2.9-1.3-4.9-.4-4.4-1-5.1-1.9-2.3zM279.7 299.3c-11.4 4.4-20.6 8.4-20.5 8.8.4.9 16.8 13.9 18.5 14.6 2 .8 20.3-10.7 20.8-13.1 1.4-6.2 3.1-18.6 2.6-18.5-.3 0-10 3.7-21.4 8.2zM406.6 306.1c-8.1 8.3-14.5 15.3-14.1 15.7.3.3 4.3 2.1 8.8 3.9 4.5 1.9 10.3 4.3 12.9 5.3l4.8 2 .5-2.3c.7-3.3 2.3-15.2 2.1-15.4-.1-.1-3.9 2.3-8.5 5.3-4.6 3.1-8.5 5.4-8.7 5.1-.2-.2 3.7-3.2 8.6-6.6l9-6.2v-11c0-6-.2-10.9-.4-10.9s-7 6.8-15 15.1zM467.7 314.5c-16.1 21.3-16.6 22.3-12.1 28.8 1.4 2.1 2.4 4.1 2.1 4.3-.3.3-1.5-1.1-2.7-3.1-1.7-2.7-2.5-3.3-3.1-2.3-1.9 2.9.2 5.2 5.6 6.2.6.1 1.5.5 2.1.8.6.4 4.6 2.1 8.9 3.7 7.3 2.9 7.9 2.9 9.1 1.3.7-.9 1.4-3.1 1.4-4.7 0-1.7.9-14.5 1.9-28.5 1-14 1.8-25.6 1.7-25.7-.1-.1-6.8 8.6-14.9 19.2zM195.6 298c-1.1 3.5-8.9 58-8.3 58.6.6.6 7.6-1.3 8.9-2.5.4-.3 3.4-9.3 6.8-19.9l6.1-19.3-4.6-6.7c-7.5-10.9-8.3-11.9-8.9-10.2zM311.9 304.7l-12.7 7.6-1.9 11.9c-1.1 6.5-1.9 11.8-1.7 11.8.1 0 6.8-3.1 14.8-6.9l14.6-7v-8.3c0-8.3 0-8.4-3.1-10.2-1.7-1-2.8-2-2.6-2.3.3-.2 1.6.3 3 1.2 2.3 1.5 2.5 1.5 3.1-.7.8-3.1.8-4.8-.1-4.8-.5.1-6.5 3.5-13.4 7.7zM327 301.2c0 4.1.2 4.4 6 8.2 3.4 2.1 5.9 4.1 5.6 4.3-.2.2-2.9-1.2-5.9-3.1-3.1-2-5.9-3.6-6.2-3.6-.3 0-.5 3.1-.5 7s.4 7 1 7c.5 0 3.4-1.2 6.4-2.7 6.1-2.9 7.6-5.3 7.6-11.7v-4.3l-6.1-2.7c-3.3-1.4-6.5-2.6-7-2.6s-.9 1.9-.9 4.2zM432.6 305.3l-8.9 8.3 9.4 8.2 9.4 8.3.3-4.8c.1-2.6-.1-10.1-.5-16.6l-.8-11.7-8.9 8.3zM34.3 301.2c.2.7 1.5 4.9 2.8 9.3l2.4 8 .7-6.5c.7-6.1.6-6.6-1.9-9.2-2.8-2.9-4.8-3.7-4-1.6zM42 302.4c0 1.4.5 2.8 1 3.1.6.3 1-.5 1-1.9s-.4-2.8-1-3.1c-.6-.3-1 .5-1 1.9zM125.2 301.7c-2.5.5-3 1.5-7.6 13.7l-2.5 6.5 4.5 6.2c2.5 3.3 4.4 6.3 4.2 6.5-.3.2-2.3-2.2-4.6-5.3-2.6-3.6-4.3-5.1-4.6-4.2-.3.8-1.8 7.8-3.4 15.6l-2.9 14.3 4.6 6c2.5 3.3 5.4 6 6.3 6 1 0 1.8-.4 1.8-.8 0-.5.7-5.8 1.5-11.8.9-6 1.8-12.9 2-15.4.2-2.5 1.3-10.8 2.4-18.5 1.1-7.7 2.2-15.2 2.4-16.8.2-1.5-.1-2.6-.7-2.6-.6.1-2.2.4-3.4.6zM213 307.1c-1.2 3.3-2 6.2-1.8 6.4.4.4 15-1.5 15.6-2.1.4-.3-6.9-7.1-9.8-9.1-1.6-1.1-2-.6-4 4.8z"/><path d="M29.1 306c-.1 2.9 1.6 23.4 2.3 29.1.4 2.8 9.9 15 10.7 13.7.3-.7.9-5.4 1.2-10.3.6-8.1.4-9.4-1.4-12.5l-2.1-3.4-1.4 2.6c-1.2 2.2-1 3.7 1.2 11.8 1.3 5.2 2.3 9.8 2.1 10.3-.1.5-1.4-3.4-2.7-8.7l-2.5-9.7-2.2 2.8c-2.8 3.4-3 2.2-.3-1.6l1.9-2.8-3-11.4c-3.6-13.9-3.7-14.3-3.8-9.9zM115.5 304c-1.6.4-4.2 1.1-5.8 1.4l-2.7.6 3.6 7.1c1.9 3.9 3.7 6.9 3.9 6.7.4-.3 6.5-16 6.5-16.5s-2.3-.2-5.5.7zM342 307.8c0 2.7-1.4 15.1-3.1 27.6-1.6 12.5-2.9 23.4-2.7 24.2.2 1 9.5-5.3 26.6-18l26.3-19.5-3.8-1.6C368 313.2 343 303 342.5 303c-.3 0-.5 2.2-.5 4.8zm15.4 17.6c7.5 4.9 13.5 9.1 13.2 9.3-.5.5-28.6-17.6-28.6-18.4 0-.8 1.2-.1 15.4 9.1zM41.6 310.1c-1.1 5.5-.7 11.1.7 10.7.7-.3 1.3-2.7 1.5-6.3.3-6.5-1.1-9.5-2.2-4.4zM90.2 309.9c-12.9 3.2-14.6 4.2-11.7 7 1.7 1.6 4.7 2.1 17.8 3.1 8.7.7 16.1 1 16.3.7.3-.3-1.1-3.5-3.1-7.1-4.3-7.7-3.4-7.5-19.3-3.7zM243.5 310c-6 1.1-13 2.2-15.5 2.5-13 1.8-16.5 2.6-17.6 3.7-1.1 1.2-12.6 36.9-12 37.5.3.3 35.5-10.3 36.1-10.9.2-.2-5-6.1-11.6-13.2-6.5-7.1-11.9-13.1-11.9-13.5 0-.3 2.1 1.6 4.7 4.4 2.6 2.7 8.3 8.8 12.6 13.4l8 8.4 5.4-1.3c4.2-.9 5.6-1.7 6.3-3.6 2.5-6.4 2.5-6.4-8-15.3-5.5-4.7-9.8-8.6-9.5-8.9.2-.2 4.5 3.2 9.6 7.7 5 4.5 9.4 8.1 9.8 8.1.4 0 1.7-3.9 3-8.8 1.3-4.8 2.6-9.5 2.8-10.5.3-.9.1-1.7-.3-1.6-.5.1-5.8.9-11.9 1.9zM256 313.2c-.7 2.4-2 7.3-3 11l-1.9 6.8 3.4 2.5 3.3 2.6 9.3-5.7c5.2-3.1 9.5-5.8 9.7-5.9.4-.3-18.5-15.5-19.2-15.5-.3 0-1 1.9-1.6 4.2zM45.6 311.6c-.3.9-.6 3.1-.6 5 0 3.1.2 3.4 2.3 2.9 1.2-.3 5.4-1.4 9.2-2.4l7-1.7-8-2.7c-9.4-3.2-9.1-3.1-9.9-1.1zM288.6 318.8l-8.9 5.5 2.4 2.1c12.6 10.6 13.8 12.4 2.3 3.5l-6-4.8-9.9 5.9-9.8 5.9 6.5 3.2 6.6 3.2 9.7-2.8c5.3-1.6 10.3-3.4 11.2-4 1-.7 2.2-5 3.4-12 1-6 1.7-11 1.6-11.1-.1-.1-4.2 2.3-9.1 5.4zM69.6 314.9c-1.8.7-1.6.9 1.3 1.9 2.8 1 3.2.9 2.9-.5-.4-2-1.7-2.4-4.2-1.4zM75 315.7c0 .6.8 1.7 1.8 2.4 1.6 1.3 1.6 1.3.2-.6-.8-1.1-1.6-2.2-1.7-2.4-.2-.2-.3 0-.3.6zM423 315.7c0 .5-.6 4.7-1.3 9.4l-1.3 8.6 10.5 4.3c5.8 2.3 11.2 4.5 11.9 4.7 1.3.6 1.6-6.8.4-9.8-.7-1.5-18.7-17.9-19.7-17.9-.3 0-.5.3-.5.7zM58 317.6c-3 .9-7.2 2-9.3 2.5l-3.8 1 .1 5.7c.1 3.1-.2 10.4-.5 16.2l-.6 10.5 16.3 26.7c9 14.7 16.9 26.7 17.6 26.8 1.5 0 1.3-1.1-2.5-19-1.3-6.3-2.4-12.2-2.3-13 0-.8.3-13.7.6-28.6l.6-27.1-4.8-1.7c-2.6-.9-5-1.6-5.3-1.5-.3 0-3.1.7-6.1 1.5zm2 35.8c6.6 10.9 11.9 20 11.7 20.2-.3.4-24.8-38.8-25.6-41-1-3.1 2.8 2.7 13.9 20.8zM332.3 320l-6.2 2.9-.3 17.3-.3 17.3 3 2.7c3.8 3.6 5.3 3.5 6-.5.6-3.5 5.5-40.7 5.5-42 0-1.1-1-.8-7.7 2.3z"/><path d="M75 347.8V376h3.3c4.6-.1 25.7-2.7 26.3-3.3 1.2-1.2-3.3-9.9-15.9-30.7L75 319.6v28.2zM77.2 320.8c.1.4 6.4 10.8 13.7 23.1 14.1 23.3 14 23.1 15.5 15 .6-3.5.2-4.3-12.5-20.4-7.2-9.1-12.9-16.8-12.7-17.1.3-.2 6.1 6.8 12.9 15.6 6.8 8.8 12.6 16 13 16 .3 0 1.8-6.2 3.3-13.8 1.5-7.5 2.9-14.4 3.2-15.3.4-1.4-1.2-1.7-10.8-2.3-22.8-1.5-26-1.6-25.6-.8zM42.3 321.8c-.8.5-.8 1.3.2 3.2l1.4 2.5.1-3.3c0-3.5 0-3.5-1.7-2.4zM381.3 329.4l-8.3 6.4 3.9 2.5 3.8 2.5L391 334l10.2-6.8-4.7-2.1c-2.6-1.2-5.3-2.1-5.9-2-.6 0-4.8 2.9-9.3 6.3zM310.3 330.3c-7.2 3.4-13.4 6.4-13.6 6.7-.3.3 5.6 4.9 13.1 10.3l13.7 9.7.7-4.7c.9-6.7 1-28.3.1-28.2-.5 0-6.7 2.8-14 6.2zM392.2 334.4c-5.1 3.5-9.5 6.5-9.7 6.8-.3.3 6.7 5.3 15.6 11.2 8.8 5.9 16.3 10.6 16.5 10.4.5-.5 4.5-28 4.2-28.3-.9-.8-15.2-6.5-16.2-6.4-.6 0-5.3 2.9-10.4 6.3zM250.7 332.7c-.2.4-.7 2-1.1 3.5-.6 2.6-.5 2.6 2.5 1.8 4.2-1.2 4.3-1.3 1.5-3.9-1.3-1.2-2.6-1.9-2.9-1.4zM445 337.8c0 2.3.2 4.2.4 4.2s1.1-1.1 1.9-2.4c1.5-2.2 1.5-2.5-.3-4.1-2-1.8-2-1.7-2 2.3zM418.6 346.2c-.9 6.2-1.9 12.6-2.3 14.2-.4 2.2-.2 2.7.8 2.1 1.8-1 24.1-16.6 25.2-17.5.6-.5-7.9-4.5-20.9-9.7-.8-.3-1.7 3.5-2.8 10.9zM492.1 343.6c-1.8 4.7-3.1 8.7-2.8 9 .8.8 5.8-.8 6.3-2.1.3-.6.4-4.4.2-8.3l-.3-7.2-3.4 8.6zM449.6 338.8l-1.9 2.7 2.4-2.2c1.2-1.2 2.1-2.4 1.8-2.7-.2-.2-1.3.8-2.3 2.2zM486.6 344.5c-3.9 5-6.6 9.5-6.4 10.5.3 1.7.5 1.7 3.7.2 2.8-1.4 3.9-3 6.7-10.1 1.9-4.7 3.2-8.6 3-8.8-.2-.2-3.4 3.5-7 8.2zM352.6 350.6c-9.8 7.4-17.5 13.4-17.1 13.4.3 0 10.4-5 22.2-11.2l21.6-11.1-2.9-2.4c-1.6-1.2-3.6-2.3-4.4-2.2-.8 0-9.5 6.1-19.4 13.5zM251.4 339.4c-2.5 1.1-3.3 2.3-4.3 6.1-.7 2.6-1 4.9-.8 5.1.4.5 8-1.6 8.9-2.4.3-.4.9-2.8 1.3-5.5.8-5.3.3-5.6-5.1-3.3zM258 340.7c0 1.6-.3 3.8-.6 5l-.6 2.3 5.3-1.6c3-.9 5.8-1.8 6.3-2.1.8-.5-8-6.2-9.6-6.3-.5 0-.8 1.2-.8 2.7zM284.5 340.6c-4.4 1.3-8.7 2.7-9.5 3-.9.4 8.2 5.5 23 12.9 13.5 6.8 24.9 12.4 25.3 12.4.4.1.7-2.2.5-5.1l-.3-5.2-14.3-10.3c-7.9-5.7-14.9-10.3-15.5-10.2-.7 0-4.8 1.1-9.2 2.5zM125.6 341.1c-.3 1.3-1 6.2-1.6 10.9-.6 4.7-1.4 10-1.7 11.9l-.6 3.4 11.2-.5c6.2-.3 11.4-.8 11.8-1.1.3-.4-14.3-21.7-18.3-26.6-.2-.2-.5.7-.8 2zM241.3 342.1c-1.8.5-3.3 1.3-3.3 1.7 0 .5 1.5 2.3 3.4 4.1l3.3 3.2.6-2.8c.4-1.5.9-3.8 1.3-5.1.7-2.5 0-2.6-5.3-1.1zM448.8 342.1c-2.1 1.2-2.4 2.9-.4 2.9.7 0 1.6-.9 1.9-2 .3-1.1.4-2 .4-2-.1 0-1 .5-1.9 1.1zM34.3 343.1c1.4 4.1 16.1 37.9 16.3 37.6.2-.2-1.5-6.4-3.7-13.8-3.4-11-4.9-14.5-8.6-19.4-2.5-3.3-4.3-5.3-4-4.4zM370.5 347.4c-4.4 2.4-14 7.5-21.4 11.4l-13.4 7 17.2 11.2c9.4 6.2 17 11.4 16.8 11.7-.3.2-7.7-4.4-16.6-10.2-8.9-5.8-16.6-10.6-17.3-10.8-1.2-.2-10.9 42.6-9.7 43.1.4.2 10.6-4.6 22.6-10.7l22-10.9 4.2-21.4c2.3-11.7 4.4-22.1 4.7-23.1.7-2.4 0-2.2-9.1 2.7zM380.1 348.2c-5 24.3-7.9 39.3-7.6 39.6.1.2 9.6-5 20.9-11.4 11.4-6.4 20.3-12 19.9-12.4-1.3-1.2-31.2-21-31.7-21-.3 0-.9 2.4-1.5 5.2zM215.8 349.8c-16.8 5-18.7 5.9-19.3 8-.3 1.3-.5 2.6-.3 2.7.5.4 46-8.3 46.6-9 .7-.7-5.9-7.5-7.2-7.4-.6 0-9.5 2.6-19.8 5.7zM263.3 347.1c-4.5 1.4-6.3 2.5-6.3 3.7 0 .9-.9 13.1-2 27.1-1.1 14-1.9 25.6-1.7 25.7.2.2 14.5-6.4 31.8-14.7 17.3-8.3 33-15.8 34.9-16.6l3.5-1.5-25.5-12.9c-14-7-26.2-12.8-27-12.8-.8 0-4.3.9-7.7 2zM444.6 347.9c-1.5 7.4-4.6 27.4-4.3 27.7.3.3 8.7-27.4 8.7-28.7 0-.4-.9-.9-1.9-1.2-1.5-.4-2.1.1-2.5 2.2zM430.2 355.1c-7.3 5-13.2 9.5-13.2 10 0 1.1 18.1 23.9 19 23.9.3 0 2.2-9.7 4.1-21.5 1.9-11.8 3.5-21.5 3.4-21.5-.1 0-6.1 4.1-13.3 9.1zM444.1 367.7c-3.3 11.4-6 20.8-5.8 20.9.1.1 7.1-5 15.4-11.5l15.1-11.8-4.8-7.4c-4.1-6-5.7-7.6-9.3-9l-4.5-1.8-6.1 20.6zM250.4 350.9l-5.1 1.5L240 372c-2.9 10.7-8.2 29.5-11.7 41.8-3.6 12.3-6.2 22.6-5.9 22.9.5.5 26.7-3.4 27.2-4 .1-.1.5-4.5.8-9.7l.6-9.5-9-6.9c-4.9-3.8-8.8-7.1-8.6-7.4.2-.2 4.2 2.6 8.8 6.2l8.3 6.6.8-3.2c.5-1.7.4-3.4 0-3.7-10.6-7.3-16.3-11.5-15.9-11.9.3-.2 4 2.1 8.3 5.2 4.3 3.1 7.9 5.3 8 4.9.4-1.4 4.3-53.6 4.1-53.8-.2-.1-2.6.6-5.4 1.4zM462 352.4c0 1.3 7.3 11.6 8.2 11.6.5 0 .6.6.2 1.2-.4.7.2.4 1.4-.6 2.5-2.1 3.1-3.6.7-1.6-.9.8-1.5.9-1.5.2 0-.6.4-1.4 1-1.7.5-.3 1.5-1.5 2-2.6 1-1.7.6-2.2-3.2-3.8-5.7-2.4-8.8-3.4-8.8-2.7zM219 357.5c-11.8 2.3-21.7 4.3-22 4.4-.2 0 1.8 2.4 4.5 5.2 4.5 4.6 31.3 24.5 32 23.7.2-.2 2.4-8.1 5-17.7s4.9-18.1 5.2-18.8c.7-1.8-.1-1.7-24.7 3.2zM490 354.1c-1.8.6-3.1 2.5-4.6 6.7-1.2 3.1-3.1 8.2-4.3 11.2-1.3 3-1.8 5-1.3 4.5 1.2-1.4 14.2-22.3 14.2-23 0-.7-1-.5-4 .6zM191 357.1c-1.4.6-9.5 2.6-18 4.5s-13.7 3.2-11.5 3c2.2-.3 9.3-1 15.7-1.7 10.3-1.1 11.6-1.4 10.5-2.7-1-1.3-.9-1.4 1-.4 2.6 1.4 6.3 1.6 6.3.3 0-.5.3-1.6.6-2.5.7-1.8-.8-2-4.6-.5zM482 357.1c-4.6 1.7-12.1 27.9-8 27.9.5 0 3.2-6 6-13.3 2.9-7.2 5.4-13.8 5.7-14.5.6-1.4-.2-1.4-3.7-.1zM107.7 358.6c-.3 1-.9 3.7-1.3 5.8-.6 3.5-.5 3.8 1 3.3 1-.4 3.3-.7 5.2-.7h3.5l-2-2.8c-5.6-7.6-5.8-7.7-6.4-5.6z"/><path d="M475.1 359.4c-.6.7-.9 2-.6 2.8.3.8-.3 2.3-1.5 3.3-2 1.8-2.6 6-1.2 8.3.8 1.1 4.3-7.8 4.7-11.8 0-.9.4-2.1.9-2.8 1-1.7-.9-1.5-2.3.2zM46.3 361.2c1.7 4.7 5.6 19.9 5.4 21-.2.7-.2.9.1.4.3-.5 1.3 1.8 2.4 5.2 1.2 4.1 2.7 6.7 4.3 7.8 1.4.9 2.3 1.9 2 2.3-.2.4 2.5 3.6 6 7.1 3.5 3.5 6.2 6.7 6 7-.3.4.5 1.6 1.8 2.6l2.2 1.9-2-2.5c-1.1-1.4.1-.5 2.7 1.8 3.9 3.8 4.5 4.1 4.1 2-.9-4.6-5.8-10.2-13.1-14.6-4-2.5-7-4.7-6.7-5 .2-.3 2.2.6 4.2 2 5.2 3.4 8.6 5.2 8.1 4.1-.3-.4-6.4-10.6-13.7-22.6-11.8-19.2-15.4-24.6-13.8-20.5zM325 364.5c0 3.5.3 4.4 1.3 3.8.7-.4 2.2-1.5 3.4-2.2l2.2-1.5-3.2-2.3c-1.7-1.3-3.2-2.3-3.4-2.3-.2 0-.3 2-.3 4.5zM166 365.1c-9.1 1-17 2.1-17.6 2.3-1.2.5-7.9 39.4-7 40.4 1.2 1.2 40-3.8 41.2-5.3.6-.8 3.2-9.6 5.9-19.6 2.7-10 5.1-17.7 5.3-17.1.2.8-6 25.2-9.3 36.3-.5 1.3 2.4 1.2 22.7-1.3 23.7-2.9 25.8-3.5 25.8-7.4 0-1.5-17.8-14-19.3-13.6-.5.1-3.3-1.9-6.1-4.6-2.8-2.7-6.2-5.4-7.4-6.1-1.2-.7-2-1.6-1.8-2 .3-.5-.4-1.7-1.7-2.7l-2.2-1.9 1.9 2.2c2.4 2.8 1.3 3-2.1.3-3.1-2.4-5.9-2.4-28.3.1zm10.3 31.4c9.1 10.4 1.4 3-14.6-14l-14.1-15 11.3 11c6.2 6 14 14.1 17.4 18zm46.7-8c4.7 4.7 8.2 8.5 8 8.5-.3 0-4.3-3.8-9-8.5s-8.2-8.5-8-8.5c.3 0 4.3 3.8 9 8.5zM328.3 368.8l-3.2 2.7-2.1 20.4c-1.2 11.2-1.8 20.6-1.5 20.9 1.4 1.4 2.7-2.7 6.5-20.3 2.3-10.5 4.5-20.7 4.9-22.8 1.1-4.5-.1-4.8-4.6-.9zM393.1 377.9c-11.3 6.4-20.8 12.4-21.2 13.2-1 1.7-9.1 40-8.6 40.5.2.2 8 .9 17.4 1.6l17.1 1.1 5.8-4.3c3.3-2.4 8-7 10.5-10.4 2.6-3.4 8.5-11.1 13.2-17.2l8.5-11.1-9.9-12.4c-5.4-6.8-10.4-12.5-11.1-12.6-.7-.1-10.5 5.1-21.7 11.6zM141.5 368c-1.6.4-6.7.5-11.2.2-7.4-.4-8.3-.3-8.3 1.3 0 1.3.6 1.6 2.3 1.2 1.2-.3 4-.8 6.2-1.1 2.2-.3.9.2-2.8 1.1-6.8 1.6-6.9 1.7-6.3 4.6.3 1.6.6 5 .6 7.6 0 4.3.6 5.2 8.1 14.1 4.4 5.2 8.4 9.6 8.8 9.8.6.2 7.2-35.9 7.1-39.1 0-.8-.2-.8-4.5.3zM109.3 368.7c-1.5.3-2 .9-1.6 2 .4 1.1.2 1.4-.5.9-.7-.4-1.2-.3-1.2.2 0 .8 12 .4 12.9-.4.2-.2-.2-1-.9-1.9-1.2-1.4-4-1.7-8.7-.8zM455 377.8c-6.9 5.3-13.8 10.6-15.2 11.8-2.3 1.8-2.5 2.5-2.1 6.8.3 2.6.9 4.5 1.3 4.4 1.8-.7 30-32.8 28.8-32.8-.2 0-5.9 4.4-12.8 9.8zM468 370.5c-.8.9-5.6 9.3-10.6 18.6l-9.2 16.9h2.9c2 0 4.5-1.4 8.3-4.8 5-4.3 5.7-5.5 8.7-14.3 2.8-8.3 3.1-10.2 2.3-13.9-.8-4-1-4.2-2.4-2.5zM288.8 388.3c-18.6 8.9-34.2 16.6-34.7 17.2-.5.5-1.2 2.6-1.5 4.5-.6 3.4-.4 3.6 9.3 11.2l9.9 7.7 7.7-2.4c4.3-1.3 8-2.6 8.2-2.9.3-.2-7.2-4.1-16.6-8.7-9.4-4.5-16.9-8.4-16.7-8.7.3-.2 8.5 3.4 18.2 8.2l17.7 8.6 14.7-4.6 14.7-4.6 1.7-17.7c1-9.7 2-19.1 2.3-20.9.3-1.7.1-3.2-.3-3.1-.5 0-16.1 7.3-34.6 16.2z"/><path d="M111 373.8c0 .4 2.1 3.1 4.6 6 2.6 2.9 4.4 5.5 4.1 5.8-.2.3-2.6-2.2-5.3-5.6-7.9-9.8-8.4-9.1-8.4 11.4 0 9.6.3 18.1.6 19 .4 1.2 1.7 1.4 5.7 1 10.4-1 10-.7 9.3-7.7-.3-3.4-.6-9.4-.7-13.2 0-3.9-.3-9.4-.6-12.3l-.5-5.2h-4.4c-2.4 0-4.4.3-4.4.8zM89.5 375.8c-7.1.8-13.2 1.6-13.4 1.8-.5.4 4 5.5 17.6 19.9l11.3 12-.2-17.4c-.2-10.6-.7-17.5-1.3-17.6-.5-.1-6.8.5-14 1.3zM450.7 390.1c-13.5 15-14.6 17.7-6.8 16.1 2.9-.6 3.9-1.8 8.3-9.7 2.7-5 6.2-11.4 7.9-14.3 1.6-2.8 2.8-5.2 2.6-5.2-.1 0-5.5 5.9-12 13.1zM75.6 383c.3 1.9 1.5 8.2 2.7 14l2.2 10.5 12.3 2.1c6.7 1.2 12.2 1.8 12.2 1.5 0-.3-6.8-7.6-15-16.1-13.9-14.4-15-15.2-14.4-12zM469.6 386.2c-1 2.9-2.1 6-2.4 6.8-.3.9.6.5 2.1-.9 3.3-3 3.9-4.8 2.9-8.4-.7-2.6-.8-2.5-2.6 2.5zM122.5 399.7c.4 5.4.9 10 1 10.1.2.2 3.7.1 7.9-.3l7.5-.7-8.1-9.4c-4.5-5.2-8.3-9.4-8.6-9.4-.2 0-.1 4.4.3 9.7zM347.5 402l-21.9 10.6 11.4 6.1c16.3 8.6 24.1 12.5 24.6 12.1.5-.6 8.5-38.1 8.2-38.8-.2-.4-10.2 4.1-22.3 10zM424.3 408c-5.9 7.8-10.8 14.4-10.8 14.9 0 .9-6.5 7.6-7.4 7.6-1.4 0-6.5 4.4-5.2 4.5.8 0 2-.8 2.7-1.8.7-.9 1.4-1.2 1.4-.6 0 .7 4.5-.8 10.3-3.3l10.2-4.5 3.2-6.9c1.8-3.8 3-6.9 2.7-6.9-.3 0-4.1 2.7-8.5 6.1-4.4 3.4-8.3 5.9-8.5 5.6-.3-.3 3.9-3.9 9.3-8l9.9-7.5 1-6.6c.6-3.6.9-6.6.8-6.6-.2 0-5.2 6.3-11.1 14zM465.6 397.7c-.6 1.4-.5 1.5.5.6.7-.7 1-1.5.7-1.8-.3-.3-.9.2-1.2 1.2zM436.1 398.5c-.1 1.1-.4 3.1-.7 4.5-.6 2.3-.5 2.4.9 1 1.3-1.2 1.4-2.2.8-4.5-.7-2.1-1-2.4-1-1zM205.7 401.8c-11.4 1.5-20.6 2.9-20.5 3.2.5 1.1 34.9 32.2 35.2 31.9.4-.6 10.6-36.3 10.6-37.2 0-.9-1-.9-25.3 2.1zM460.2 402.1c-3.1 2.8-3.1 2.9-.9 2.9 1.6 0 2.8-.9 3.6-2.6 1.6-3.7 1.1-3.7-2.7-.3zM159.8 407.4c-9.7 1.1-18 2.4-18.3 2.8-.9.9 7.5 36 8.9 37.4 1 1 49.1 18.4 50.9 18.4.8 0 17.6-25.3 18-27.1.1-.6-7.9-8.4-17.8-17.4-15.2-13.9-18.5-16.4-21-16.4-1.6.1-11 1.1-20.7 2.3z"/><path d="M436.5 406c-.3.5-.1 1 .4 1 .6 0 1.1-.5 1.1-1 0-.6-.2-1-.4-1-.3 0-.8.4-1.1 1zM437.2 423.1c-14.2 13.2-18.8 18.2-20.3 21.7-1.1 2.4-1.8 4.6-1.7 4.7.2.2 10.4-9.5 22.8-21.6 18.7-18.1 22.1-21.8 20-21.9-1.9 0-7.1 4.3-20.8 17.1zM441.8 407.7c-1.8.5-2.4 3.7-1.2 6.8.5 1.3 1.2.8 3-2.2 3.3-5.4 3.1-5.9-1.8-4.6zM445.6 410.6c-.9 2-1.5 3.8-1.3 4 .2.2 2.1-1.4 4.2-3.6 3.8-3.9 3.8-4 1.4-4-1.9 0-2.9.9-4.3 3.6zM430.7 415.6c-2.1 4.2-3.7 7.8-3.5 7.9.2.2 3.1-.9 6.6-2.3 6.1-2.5 6.3-2.7 5.8-5.5-.3-1.6-.6-4-.6-5.3 0-1.8-.5-2.4-2.3-2.4-1.8 0-3 1.5-6 7.6zM81 410.2c0 .7 3.1 4 6.8 7.4 6.4 5.8 7.1 6.1 14.5 7.4 4.2.7 8 1.1 8.2.8.4-.4-4-11.6-5-12.6-.2-.2-4.2-.9-21.2-3.8-2.3-.3-3.3-.1-3.3.8zM127.6 410.7l-4.8.4.4 7.6c.3 7.2.5 7.7 3.8 10.5 1.9 1.6 3.4 3.4 3.2 3.9-.1.6.1.8.6.5.4-.2 4.4 2.4 8.7 5.9 4.3 3.6 8 6.3 8.2 6.1.2-.2-1.5-8.3-3.9-18l-4.2-17.6-3.5.2c-2 .1-5.8.3-8.5.5zM109.5 412.9c-.3.5 2.1 3.2 5.3 6 3.2 2.8 5.9 5.8 5.9 6.7 0 .9-2.7-1.1-6.4-4.8-3.4-3.4-6.3-5.9-6.3-5.5 0 .8 4 10.7 4.6 11.5.1.2 2.6.6 5.4.7 3.5.3 4.8.1 4.4-.7-.4-.6-.6-4.2-.5-8l.2-6.8h-6c-3.3 0-6.2.4-6.6.9zM82.5 415.5c.4 1.1.8 2.8.9 3.7 0 .9.3 1.6.6 1.6.3-.1 1.8.4 3.4 1.1 4.6 1.9 4.4.9-.8-3.9-3.1-2.8-4.6-3.7-4.1-2.5zM320.6 416.2c-.3 1.3-.5 3.6-.5 5.3 0 2.7.2 2.5 1.5-1.5 1.6-5.3 1.7-6 .5-6-.5 0-1.1 1-1.5 2.2zM321.7 423.7c-1.5 5.4-2.8 10.5-2.7 11.4 0 1.1 2.7 2.3 9.4 4.2l9.5 2.7 11.1-4.7c6.1-2.5 10.7-4.9 10.3-5.4-.9-.8-33.7-17.9-34.4-17.9-.2 0-1.7 4.4-3.2 9.7zM251.6 423.1c-.4 4.4-.5 8.3-.2 8.6.5.6 16.4-1.6 17.8-2.4.6-.3-4.6-4.8-15.8-13.5-.8-.6-1.3 1.5-1.8 7.3zM304.8 419.4l-12.8 4.2 12 5.9c6.6 3.2 11.8 6.1 11.5 6.3-.2.2-6-2.3-12.9-5.6l-12.5-6-8.5 2.7-8.5 2.8 12.3 7.1 12.3 7.1 8.9-3.3c4.9-1.9 9.4-4.2 10-5.2 1.5-2.3 3-20.4 1.8-20.3-.5.1-6.6 2-13.6 4.3zM80.9 422.4c2.8 3.3 5.8 6.1 6.7 6.2.9.1 1.3-.1.9-.4-.4-.4-1-.7-1.3-.7-.4 0-3.1-2.5-6.1-5.5l-5.4-5.5 5.2 5.9zM431.3 423.4c-4.3 2.1-5.6 3.3-7.8 7.7l-2.7 5.2 3.9-3.1c4-3.2 13.1-12.2 12.3-12.2-.3 0-2.8 1.1-5.7 2.4zM87 423.9c0 .4 1.1 1.8 2.5 3.1 1.3 1.2 2.2 2.6 2 3-.3.4 1.2 3.4 3.3 6.6 3.4 5.2 4.4 6.1 9.2 7.6 3 1 5.5 1.6 5.7 1.4.1-.1-3.8-3.6-8.7-7.6-4.9-4-8.8-7.5-8.6-7.8.3-.2 5.1 3.5 10.8 8.3 16.4 13.8 18.9 13.7 12.9-.6-3.8-9.3-3.9-9.4-8.2-10.5-2.4-.6-6.2-1.4-8.4-1.7l-4-.6 11.6 11.2c6.3 6.2 9.7 9.6 7.5 7.7-2.3-1.9-7.7-7-12.2-11.3-5.8-5.6-9.1-8.1-11.7-8.7-2.1-.4-3.7-.5-3.7-.1zM413.5 431.1c-4.9 2.2-9.3 4.4-9.8 4.8-.7.7-4.7 14.2-4.7 16.1 0 .5 1.2 1 2.8 1 3.6 0 16-12.4 19.6-19.7 1.4-2.9 2.6-5.5 2.6-5.8 0-.9-1.3-.5-10.5 3.6zM114.5 431.7c.9 2.1 3 7.1 4.7 11 2.9 7.1 3.1 7.3 6.5 7.3 2.7 0 3.4-.3 2.9-1.5-.3-.8-1.7-5.3-3.1-9.9-2.4-8-2.8-8.5-5.8-9.1-1.8-.4-4-.9-5-1.2-1.7-.4-1.7-.3-.2 3.4z"/><path d="M124 428.5c0 .4.8 1.4 1.8 2.2 1.5 1.3 1.5 1.4 0 .9-1.4-.4-1.5-.1-.8 2.2.5 1.5 1.8 5.7 3 9.3l2.1 6.6 5.2-.4c10-.7 12-1.3 10.7-2.8-.6-.8-5.2-4.1-10.1-7.5-4.9-3.4-8.7-6.5-8.4-6.9.2-.5-.4-1.6-1.5-2.6s-2-1.5-2-1zM260.3 431.9l-9.2 1.4-.5 4.6c-.3 2.5-.8 8.5-1.1 13.3-.8 10.2 0 11.2 6.1 8.1 3.3-1.6 4.2-3 9.1-14.6 3-7.1 5.3-13.2 5.1-13.5-.2-.4-4.4-.1-9.5.7zM269.3 436.3c-1.1 2.8-3.7 8.9-5.7 13.4l-3.5 8.2 7.7-2.8c18.7-7 27.7-10.4 28-10.6.4-.4-22.5-13.5-23.5-13.5-.4 0-1.8 2.4-3 5.3zM361 439.9c-.7 3.9-1.3 7.4-1.2 7.7.1.9 10.9 4.4 13.3 4.4.9 0 6.5-3.7 12.4-8.3l10.8-8.2-8.9-.7c-4.9-.3-12.5-.9-17-1.2l-8.1-.7-1.3 7zM233.7 436.4l-11.9 2.1 12.6 9.8c6.9 5.3 12.7 9.7 13 9.7.2 0 .7-3.9 1-8.8.4-4.8.8-10.2 1.1-12 .5-3.8 1-3.8-15.8-.8zM349.6 438.2c-10.9 4.6-10.9 4.2 1.2 7.6l7.2 2 .6-2.6c.3-1.5 1-4.3 1.5-6.2 1.1-4.3 1.1-5 .2-5-.5.1-5.2 1.9-10.7 4.2zM394.5 438.5c-1.6 1.4-3 3-3 3.7 0 .6-.6 1.3-1.4 1.6-.9.3-1.1 0-.6-.8.5-.9.4-1.1-.4-.6-.6.4-.9 1.1-.6 1.6.3.5-2.2 2.5-5.5 4.5s-6 3.8-6 4.1c0 .2 4.6.4 10.3.4h10.3l1.8-7.5c2.4-10 1.1-11.8-4.9-7zm5.5-1.1c0 .8-7.1 4.8-7.6 4.3-.3-.2 1-1.4 2.8-2.6 3.2-2 4.8-2.6 4.8-1.7zM307.1 441.4l-8.4 3.2 5.9 3.4c7 3.9 9.8 4.3 10.1 1.5l.3-2-.9 2c-1.6 3.5-1.3-.7.5-5.9.9-2.6 1.5-4.9 1.3-5-.2-.2-4.2 1.1-8.8 2.8zM317.1 444.1c-.7 3.4-1.1 6.2-.9 6.4.4.4 17-6.4 18.1-7.4.6-.6-13.2-5.1-15.5-5.1-.3 0-1.1 2.7-1.7 6.1zM213.5 450.2c-3.8 6-7.8 12.2-8.7 13.7l-1.7 2.7 9.7-.3c14.3-.5 35.2-3.3 35.2-4.8 0-1-22.2-19.2-26.4-21.6-.6-.4-4.1 4-8.1 10.3zM326.7 447.7c-5.9 2.5-10.7 4.8-10.7 5.2 0 .3 7.8 2.9 17.3 5.7 13.5 4 17.7 4.9 19.5 4.1 1.2-.6 2.2-1.3 2.2-1.6.1-.3.7-3.2 1.4-6.3l1.4-5.8-3.6-1c-2.1-.5-6.7-1.8-10.3-2.9l-6.5-1.9-10.7 4.5zM410.5 448.5l-5 4.5h3.2c2.2 0 3.6-.6 4.3-1.9 1.1-2.2 3.1-7.1 2.7-7.1-.1.1-2.4 2.1-5.2 4.5zM278.7 452.2c-16.3 6.2-19 7.5-20.3 9.9-.8 1.6-1.3 2.9-1.1 2.9.7 0 49-11 51.1-11.6 2.2-.7 1.6-1.2-5.4-5.2l-5.5-3-18.8 7zM105 446.3c.5.4 11.4 7.2 17 10.4 1.4.8.5-.4-2-2.7-2.5-2.3-5.8-4.8-7.5-5.5-3.7-1.6-8.2-2.9-7.5-2.2zM140 449.7c-8.5.5-9.9 1-9.3 3.3.8 3 21.7 13.8 28.9 15 3.2.5 5.9.8 6.1.6.2-.1-3.4-4.6-7.9-9.9-5.7-6.5-8.9-9.5-10.3-9.4-1.1 0-4.5.2-7.5.4zM121.5 453.6c2.2 2 3.9 4.1 3.7 4.7-.2.7 0 .9.4.5.4-.5 2.2.4 4.1 1.8 1.8 1.4 3.3 2.3 3.3 2.1 0-.2-.5-1.7-1-3.4-1.1-3-5.4-6.1-11.5-8.2-2.9-1.1-2.9-1 1 2.5zM358.6 451.2c-.2.7-.9 3.2-1.4 5.5l-1 4.2 5.2-2.3c2.8-1.3 6.4-2.9 8-3.8l2.8-1.5-5.9-1.6c-7.1-2-7.3-2-7.7-.5zM126.4 452.5c2.4 1.8 3.9 2 3.4.2-.3-.6-1.5-1.3-2.9-1.5-2.3-.2-2.3-.2-.5 1.3zM153.8 452.6c.6 1.1 4.4 5.3 8.4 9.5 7 7.3 7.5 7.7 12.7 8.3 3 .3 5.6.4 5.8.3.1-.2-5.1-4.1-11.7-8.7-6.6-4.5-11.9-8.5-11.6-8.7.2-.3 6.5 3.8 13.9 9l13.4 9.4 5.1-.8c2.8-.4 6.3-1.4 7.8-2.2l2.7-1.4-2.9-1.1c-20.8-7.5-38.3-13.5-39.9-13.6-1.1-.1-2.6-.5-3.3-1-1.1-.7-1.2-.5-.4 1zM284.3 459.9c-13.4 3.1-24.3 5.8-24.3 6.1 0 .3 10.6 4.1 23.6 8.5 13 4.4 23.9 8.1 24.3 8.3.4.1 1.8-5.3 3-12 1.2-6.8 2.5-13.3 2.8-14.6.4-1.9.1-2.2-2.3-2.1-1.6.1-13.8 2.7-27.1 5.8zM371.8 458.5c-1.2 2.4-2 4.6-1.7 4.8.9.7 23.9-1.9 24.7-2.8.5-.6 1.2-2.2 1.6-3.8l.6-2.7h-23l-2.2 4.5zM397.7 456.2c-.8 3-.6 3.1 2.8.3l3-2.4-2.6-.1c-1.9 0-2.8.6-3.2 2.2zM400 458.6c-3 3-3.8 4.3-2.5 3.9 1.6-.5 1.5-.2-.5 1.2-3.4 2.4-8.8 8-10.2 10.6-.6 1.2 2.5-1.1 7-5.2 4.5-4 8.2-7.5 8.2-7.7 0-.2-.8-.1-1.7.3-2.8.9-.5-1.1 5.2-4.6 4.9-3 4.9-3.1 2-3.1-2.3 0-4.2 1.1-7.5 4.6zM315 455.3c0 .2-1.1 6.1-2.5 13.2-1.3 7.1-2.2 13.1-2 13.3.3.3 8.8-3.4 19.1-8.2 10.2-4.8 18.7-8.6 19-8.3.2.2-3.7 2.3-8.8 4.7-5.1 2.4-13.6 6.4-18.8 8.8l-9.5 4.5 12 1.8c20 2.9 18.1 3.6 24.6-8.6l5.7-10.5-8.2-2.4c-25.8-7.8-30.6-9.1-30.6-8.3zM368.5 457.6c-1.1.8-2.5 1.2-3.3.9-.7-.2-1.1-.1-.7.4.3.5-1.1 1.9-3 3.1-2 1.2-3.5 2.3-3.3 2.4.2.2 2.5.1 5.1-.2 4.4-.4 4.9-.7 6.8-4.3 2.1-4.1 1.6-4.8-1.6-2.3zM133.5 460.7c.9 3.9 1.2 4 8.5 4.8l6.5.6-3.2-2c-3.9-2.4-11-6.1-11.9-6.1-.3 0-.3 1.2.1 2.7zM359.3 460.7c-1.8.9-3.3 2-3.3 2.4 0 .5 1.6-.1 3.5-1.2 1.9-1.2 3.5-2.3 3.5-2.5 0-.5 0-.5-3.7 1.3zM255.1 461.1c-1.9.8-2.1 1.2-1.1 2.4 1.5 1.8 2.6 1.3 3.3-1.5.3-1.1.4-2 .4-1.9-.1 0-1.3.5-2.6 1zM376.7 464c-4.3.4-7.9.9-8.1 1.1-1 1.4-7.6 14.2-7.4 14.4.3.2 28.5-14.9 29.5-15.8.7-.8-3.2-.7-14 .3zM239 465c-3.1.7-2.9.8 2.3.9 3.2 0 5.7-.3 5.7-.9 0-1.1-2.7-1.1-8 0zM375.8 473.3c-11.6 6.3-17 9.8-17.8 11.5-1.5 3.3-.9 3.1 15.5-7.3 7.5-4.8 13.9-8.4 14.1-8.2.3.3-4.7 3.8-11.2 7.8-6.4 4-11.3 7.4-10.8 7.6.5.1 3.9-.5 7.5-1.5 6.1-1.5 7-2.2 10.9-7.1 2.3-2.9 4.3-5.9 4.4-6.6.1-.8 1.3-2.3 2.6-3.4 1.4-1.1 2.3-2 2-2-.3 0-8 4.2-17.2 9.2zM358.2 465.9c-3.1.5-4 1.6-9.2 11.1-6.8 12.2-6.3 13 3.5 7.6 5.7-3.3 6.8-4.4 10.4-11 2.3-4 4.1-7.6 4.1-8 0-.7-4.1-.6-8.8.3zM216 468.2c-3 .5-6.8.7-8.4.3l-2.9-.5 2.4 1.8c5.9 4.5 29.1 20.4 29.4 20.1.2-.2 2.6-3.3 5.4-6.8 4.6-5.7 5.1-6.9 5.1-11.2V467l-12.7.1c-7.1.1-15.3.6-18.3 1.1zM248.1 472.2c.1 2.9-.2 9-.6 13.5l-.8 8.2 3.5 1.4c3.3 1.4 4.8 1.2 29.2-4.8 14.2-3.5 25.9-6.5 26.2-6.7.2-.3-10.7-4.2-24.3-8.8l-24.6-8.3-3.8 4.4c-2.1 2.4-3.9 3.9-3.9 3.3 0-.6.7-1.7 1.6-2.4.8-.8 2-2.2 2.5-3.2.8-1.6.6-1.8-2.1-1.8-3.1 0-3.1 0-2.9 5.2zM158 469.3c.3.3 3.8 2.1 7.9 4.2l7.3 3.6-2.2-3.1c-1.2-1.7-2.8-3.3-3.4-3.5-2.1-.6-10-1.6-9.6-1.2zM199.6 470.2c.3.4-.4.8-1.5.8-2.2 0-7.1 2-7.1 2.9 0 1.2 31.7 14.1 36.8 14.9 3 .5 5 .6 4.5.2-4.7-4.3-27.5-18.8-30-19.2-1.8-.2-3-.1-2.7.4zM172.9 474.8c2.4 2.9 4.5 4.3 7.6 5.1 6.8 1.7 7.7 1.5 6.3-1.4-1-2.3-1.2-2.3-4-.9-1.7.9-3.2 1.3-3.4 1.1-.3-.2.9-1 2.6-1.7 1.6-.7 3-1.8 3-2.5 0-1.4-1.9-1.9-10.4-3.1l-4.9-.7 3.2 4.1zM187.8 472.7c.7.3 1.6.2 1.9-.1.4-.3-.2-.6-1.3-.5-1.1 0-1.4.3-.6.6zM187.5 477.7c.9 2 1.7 3.8 1.8 3.9.5.4 23.1 4.3 23.4 4 .3-.2-18.5-8.6-24-10.6l-2.7-1 1.5 3.7zM242.2 484.6c-2.4 3.1-4.2 5.8-4 6 .2.2 2 1 4 1.8l3.6 1.6.4-7.3c.2-3.9.3-7.3.3-7.4 0-.1-2 2.3-4.3 5.3zM191.1 485.8c.6 1.9 2.8 3.8 7 6.1 3.3 1.8 5.8 3.5 5.5 3.8-.3.3-2.6-.7-5.1-2.1-4.9-2.9-5-2.9-3.5.9.9 2.4 1.5 2.6 6.2 2.6 2.9 0 8.6.2 12.7.5 6.4.5 8.1.3 12.3-1.7l4.9-2.3-4.4-2.2c-2.4-1.3-10.6-3.4-18.3-4.9-7.6-1.4-14.9-2.8-16.1-3-2-.5-2.1-.3-1.2 2.3zM353.8 485c-5.9 3.1-6.2 5.2-.4 3 1.4-.5 3-1.8 3.6-3 1.3-2.4 1.4-2.4-3.2 0zM282 490.8c-21.7 5.3-26 6.7-24 7.4 1.4.5 6.6 2.4 11.5 4.2l9 3.3 30.2-7.1c28.1-6.6 35-8.8 31.2-10-.8-.2-7.2-1.1-14.4-2-7.1-.9-13.9-1.8-15-2-1.1-.2-13.9 2.6-28.5 6.2zM357.7 489.5c-2.1.8-4.4 1.2-5.2.9-3.3-1.3-12 1.9-17.5 6.4-8 6.7-8.1 6.7-1.2 3.3 3.4-1.8 6.7-2.9 7.1-2.7.5.3 6-1.7 12.2-4.4 10.6-4.6 13.3-6.7 4.6-3.5zM348 494c-3 1.6-5.9 2.9-6.5 2.9-.5 0 1.5-1.3 4.5-2.9 3-1.6 6-2.9 6.5-2.9.6 0-1.5 1.3-4.5 2.9zM229 491c.8.5 2.4 1 3.4 1 2.6 0 1.8-.6-1.9-1.4-2.2-.5-2.6-.4-1.5.4zM235 492.9c0 .8 1.9 1.7 9.8 4.8.6.3 1.2-.1 1.2-1 0-.8-1.9-2.2-4.3-3.1-4.8-1.8-6.7-2-6.7-.7zM309.5 499.4l-26 6.1 18.5.6 18.5.5 8.3-6.4c4.5-3.6 8.2-6.7 8.2-6.9 0-.4.8-.6-27.5 6.1zM228.5 496l-3 2 8-.1h8l-4-1.9c-5.1-2.4-5.4-2.4-9 0zM247 497c0 .5.9 1 2.1 1 1.1 0 1.7-.5 1.4-1-.3-.6-1.3-1-2.1-1s-1.4.4-1.4 1z"/><path d="M249 498.9c-1.4.4-10.6.6-20.5.4-14.6-.2-17.6-.1-16 .9 2.3 1.4 1.4 1.3 19 2.7 17.5 1.4 18.2 1.4 16.7-.1-.7-.7-1.2-1.7-1.2-2.3.1-.5.9 0 1.9 1.3 1.7 2 3.1 2.3 12.8 2.7l10.8.6-9.4-3.6c-9.8-3.7-10.1-3.7-14.1-2.6zM206.8 499.7c.7.3 1.6.2 1.9-.1.4-.3-.2-.6-1.3-.5-1.1 0-1.4.3-.6.6zM239 507.5c7.4 1.9 14.9 3.6 16.5 3.9 3.4.6 18.9-3.8 16.5-4.7-.8-.3-7.3-.8-14.5-1.1-7.1-.3-17.3-.8-22.5-1.1l-9.5-.5 13.5 3.5zm16.1 1.8c1.2 2.2 1.2 2.2-1 .3-1.1-1.1-2.1-2.3-2.1-2.8 0-1.4 1.9.1 3.1 2.5zM270.7 509.2c-3.2 1.1-5.7 2.1-5.5 2.2.5.4 39.9-3.3 41.2-3.8.6-.2-5.9-.4-14.4-.4-13 0-16.4.3-21.3 2z"/></svg>