#Produced by polyHédronisme http://levskaya.github.com/polyhedronisme
group C
#vertices
v 0.5773502691896257 0.5773502691896257 0.5773502691896257
v -0.5773502691896257 0.5773502691896257 0.5773502691896257
v -0.5773502691896257 -0.5773502691896257 0.5773502691896257
v 0.5773502691896257 -0.5773502691896257 0.5773502691896257
v 0.5773502691896257 -0.5773502691896257 -0.5773502691896257
v 0.5773502691896257 0.5773502691896257 -0.5773502691896257
v -0.5773502691896257 0.5773502691896257 -0.5773502691896257
v -0.5773502691896257 -0.5773502691896257 -0.5773502691896257
#normal vector defs 
vn 0 0 1
vn -1 0 0
vn 0 -1 0
vn 0 1 0
vn 1 0 0
vn 0 0 -1
#face defs 
f 4//1 1//1 2//1 3//1 
f 2//2 7//2 8//2 3//2 
f 3//3 8//3 5//3 4//3 
f 1//4 6//4 7//4 2//4 
f 4//5 5//5 6//5 1//5 
f 6//6 5//6 8//6 7//6 
