#Produced by polyHédronisme http://levskaya.github.com/polyhedronisme
group aaC
#vertices
v -0.3597156257990619 -0.3603279451529784 0.8604762063847847
v 0.3609610225196453 -0.3598373608921547 0.8601107270710387
v -0.860054020546977 -0.36070859976728176 0.3603914235327652
v 0.36082467773991256 -0.8601538275007876 0.3600621042015715
v 0.360523881685312 0.36051506688188006 0.8599729443647209
v 0.8602637077671076 0.3605884602861389 0.35993297892434206
v -0.36035913442092415 0.35993546186361297 0.8603377233336561
v -0.3606136613026019 0.860130616652541 0.360467824585547
v 0.8600278835999986 0.36068193865000836 -0.36041150017134094
v 0.8604510525469955 -0.3602012308088544 0.3602734022735384
v 0.8602124533907664 -0.3602078191437005 -0.3605308938090256
v 0.36068613567379637 -0.8599929534147902 -0.36069977110462303
v 0.3598047644448901 0.36052492169425215 -0.8604121227979322
v -0.3607200892635931 0.860113491101072 -0.3602411353457184
v 0.36041039299877203 0.8602676577825585 0.3604985835260206
v 0.36027296013543164 0.8602508681524894 -0.3606532259941933
v -0.36103760865968876 0.3603663857642834 -0.8599672804498736
v -0.8601820361823211 -0.3606905859663657 -0.36011463494794593
v -0.8603219715074286 0.3601203336075079 0.3605833801627685
v -0.8604444173297734 0.3600966851498658 -0.3601973570252306
v -0.3606028835589806 -0.3605474347560218 -0.8600489328774783
v -0.36008457181605985 -0.8603961495671093 0.3606349497069545
v -0.3603962222484977 -0.8602385124694312 -0.3602929628279246
v 0.36003110603362937 -0.360261480269431 -0.8604877251453094
#normal vector defs 
vn -0.5774088857973483 -0.5774778158669263 -0.577164058811556
vn -0.7069228905744955 -0.7072906121447271 0.00012943622787111244
vn -0.9999999172304369 -0.0003678864352981601 0.00017377770380245985
vn -0.7073607329741716 -0.00034255482931996303 -0.7068526551569508
vn -0.5770915288463058 -0.5771354889956865 0.5778234978568659
vn -0.00015400659822631654 -0.7071497719845006 -0.7070637710024723
vn 0.00033818819830729605 -0.9999999183862083 -0.0002210346568021475
vn -0.7069432691552977 -0.00047337041563655347 0.7072700970042984
vn -0.5777234454406731 0.5773349963411675 -0.576992133904702
vn -0.0006130400925955607 0.00010879479774709037 -0.9999998061727495
vn 0.0008197737869762576 -0.7069318179613395 0.7072812260514298
vn -0.7073169664184394 0.7068965274320976 0.00009230957733362271
vn 0.5774491398551492 -0.5769549179117369 -0.5776465299627526
vn -0.5772704739293996 0.5770553569839063 0.5777247743567026
vn 0.7073137335652917 -0.7068997201466963 -0.00026070375944512223
vn -0.0005653783791575047 0.7071111317410096 -0.7071022045752913
vn 0.0005064324132366813 0.00019214906996432203 0.9999998533024621
vn 0.5773881537855559 -0.5772554379574658 0.5774072039874822
vn 0.7069486868101361 0.0002971590043190917 -0.7072647777982091
vn -0.00019030782161004887 0.9999999816155852 -0.00002348962743828383
vn -0.0001874831061548808 0.7068932619231743 0.7073202111474685
vn 0.577225725391738 0.5771611181591325 -0.5776638344498308
vn 0.7073357239126709 0.0005410667707063668 0.706877557235825
vn 0.9999999125574108 0.00025792264661971724 -0.000329182440507161
vn 0.7069793472739908 0.7072341771831127 -0.00014543784806087188
vn 0.5775883087159366 0.5771360779038887 0.5773263316499436
#face defs 
f 18//1 21//1 23//1 
f 3//2 18//2 23//2 22//2 
f 3//3 19//3 20//3 18//3 
f 17//4 21//4 18//4 20//4 
f 1//5 3//5 22//5 
f 12//6 23//6 21//6 24//6 
f 4//7 22//7 23//7 12//7 
f 7//8 19//8 3//8 1//8 
f 14//9 17//9 20//9 
f 17//10 13//10 24//10 21//10 
f 1//11 22//11 4//11 2//11 
f 8//12 14//12 20//12 19//12 
f 11//13 12//13 24//13 
f 7//14 8//14 19//14 
f 4//15 12//15 11//15 10//15 
f 13//16 17//16 14//16 16//16 
f 1//17 2//17 5//17 7//17 
f 2//18 4//18 10//18 
f 11//19 24//19 13//19 9//19 
f 8//20 15//20 16//20 14//20 
f 5//21 15//21 8//21 7//21 
f 9//22 13//22 16//22 
f 2//23 10//23 6//23 5//23 
f 6//24 10//24 11//24 9//24 
f 6//25 9//25 16//25 15//25 
f 5//26 6//26 15//26 
